<?xml version="1.0" encoding="utf-8"?>
<!-- Generator: Adobe Illustrator 16.0.0, SVG Export Plug-In . SVG Version: 6.00 Build 0)  -->
<!DOCTYPE svg PUBLIC "-//W3C//DTD SVG 1.1//EN" "http://www.w3.org/Graphics/SVG/1.1/DTD/svg11.dtd">
<svg version="1.1" id="Layer_1" xmlns="http://www.w3.org/2000/svg" xmlns:xlink="http://www.w3.org/1999/xlink" x="0px" y="0px"
	 width="102px" height="102px" viewBox="0 0 102 102" enable-background="new 0 0 102 102" xml:space="preserve">
<circle fill="#FFFFFF" cx="51" cy="51" r="51"/>
<g display="none">
	<g display="inline">
		<path fill="#53BCE8" d="M81.071,57.045c-0.823-0.476-1.785-0.34-2.246,0.632c-1.558,3.282-2.833,5.249-5.391,7.926
			c-2.168,2.269-4.544,3.506-7.612,3.767c-0.982,0.084-1.094-0.342-0.491-0.755c2.587-1.761,4.262-3.383,5.821-5.425
			c0.873-1.143,1.396-2.267,1.004-3.11c-0.59-1.273-2.555-1.191-3.979,0.288c-0.614,0.635-2.555,2.028-3.923,2.862
			c-0.839,0.508-3.595,1.915-4.547,2.148l-2.375,0.928c-1.526,0.548-2.939,1.253-3.788,2.724c-1.583,2.74-0.731,6.409,2.101,7.83
			c1.635,0.823,3.188,0.995,5.146,0.542c3.854-0.889,6.974-1.886,9.597-3.154c2.181-1.055,4.276-2.824,5.65-4.595
			c0.53-0.682,1.192-1.715,1.688-2.425c1.693-2.416,3.032-5.328,3.858-7.914C81.873,58.409,81.894,57.517,81.071,57.045z"/>
		<path fill="#53BCE8" d="M20.934,57.043c0.825-0.474,1.786-0.338,2.249,0.634c1.555,3.282,2.831,5.249,5.389,7.924
			c2.167,2.269,4.545,3.506,7.61,3.767c0.983,0.086,1.096-0.343,0.492-0.753c-2.586-1.763-4.262-3.386-5.821-5.425
			c-0.874-1.145-1.395-2.267-1-3.112c0.587-1.271,2.552-1.189,3.976,0.29c0.611,0.635,2.553,2.026,3.923,2.86
			c0.837,0.51,3.593,1.917,4.546,2.148l2.374,0.927c1.526,0.551,2.941,1.256,3.788,2.725c1.584,2.74,0.731,6.411-2.101,7.832
			c-1.636,0.823-3.188,0.995-5.147,0.542c-3.852-0.889-6.972-1.888-9.595-3.157c-2.18-1.054-4.274-2.823-5.65-4.592
			c-0.528-0.685-1.192-1.715-1.691-2.425c-1.688-2.416-3.028-5.328-3.855-7.914C20.134,58.409,20.113,57.517,20.934,57.043z"/>
	</g>
	<g display="inline">
		<path fill="#53BCE8" d="M55.116,23.74c0-2.269-1.841-4.111-4.113-4.111c-2.271,0-4.114,1.843-4.114,4.111
			c0,2.273,1.843,4.114,4.114,4.114C53.275,27.854,55.116,26.014,55.116,23.74z"/>
		<g>
			<path fill="#53BCE8" d="M66.142,29.912H35.865c-1.136,0-2.056,0.922-2.056,2.058c0,1.135,0.92,2.056,2.056,2.056h8.75
				c1.616,4.598,1.138,9.21-1.584,13.929l-4.866,8.431c-0.71,1.23-0.289,2.801,0.939,3.513c0.406,0.233,0.848,0.344,1.284,0.344
				c0.887,0,1.752-0.462,2.228-1.287l7.496-12.984c0.184-0.317,0.522-0.514,0.891-0.514s0.707,0.197,0.891,0.514l7.497,12.984
				c0.476,0.825,1.34,1.287,2.228,1.287c0.437,0,0.879-0.11,1.283-0.344c1.229-0.712,1.65-2.282,0.94-3.513l-4.862-8.422
				c-2.727-4.723-3.206-9.34-1.589-13.938h8.751c1.135,0,2.055-0.92,2.055-2.056C68.196,30.834,67.276,29.912,66.142,29.912z
				 M50.999,39.977c-1.518-0.902-4.637-3.234-4.637-5.564c0-1.192,0.969-2.162,2.161-2.162c0.834,0,1.6,0.487,1.954,1.242L51,34.607
				l0.527-1.113c0.357-0.754,1.125-1.244,1.957-1.244c1.192,0,2.161,0.97,2.161,2.162C55.645,36.985,52.036,39.349,50.999,39.977z"
				/>
		</g>
	</g>
</g>
<g>
	<path fill="#53BCE8" d="M40.964,49.407c-2.056-2.228-2.121-2.422-3.376-4.403c-1.64-2.587-3.987-1.242-3.779,1.413
		c0.208,2.654,2.052,4.751,3.786,8.218c-2.12-1.007-4.496-1.822-6.633-4.117c-4.035-4.332-5.069-11.6-5.577-14.895
		c-0.803-5.218-4.267-3.655-4.267-3.655c-1.445,7.509,0.735,23.242,6.223,27.577c5.487,4.332,7.206,6.817,7.824,13.078h12.874
		c0,0,0.109-2.588,0.18-4.346c0.401-1.524,1.887-8.782-4.091-15.289C42.938,51.691,42.508,51.08,40.964,49.407z"/>
	<path fill="#53BCE8" d="M80.882,31.968c0,0-3.465-1.563-4.267,3.655c-0.507,3.295-1.541,10.563-5.576,14.895
		c-2.139,2.294-4.513,3.11-6.634,4.117c1.733-3.467,3.578-5.563,3.786-8.218c0.209-2.655-2.139-4-3.778-1.413
		c-1.255,1.98-1.32,2.175-3.376,4.403c-1.544,1.673-1.974,2.285-3.166,3.582c-5.976,6.505-4.492,13.761-4.09,15.288
		c0.071,1.757,0.18,4.347,0.18,4.347h12.874c0.619-6.261,2.337-8.746,7.824-13.078C80.146,55.21,82.326,39.478,80.882,31.968z"/>
	<path fill="#53BCE8" d="M60.593,34.654c-0.014-2.572-1.486-4.675-4.205-5.182C52.219,28.695,51,32.948,51,32.948
		s-1.219-4.253-5.387-3.476c-2.719,0.507-4.191,2.61-4.205,5.182C41.374,41.284,51,46.011,51,46.011S60.626,41.284,60.593,34.654z"
		/>
</g>
</svg>
