<?xml version="1.0" encoding="utf-8"?>
<!-- Generator: Adobe Illustrator 16.0.0, SVG Export Plug-In . SVG Version: 6.00 Build 0)  -->
<!DOCTYPE svg PUBLIC "-//W3C//DTD SVG 1.1//EN" "http://www.w3.org/Graphics/SVG/1.1/DTD/svg11.dtd">
<svg version="1.1" id="Layer_1" xmlns="http://www.w3.org/2000/svg" xmlns:xlink="http://www.w3.org/1999/xlink" x="0px" y="0px"
	 width="115px" height="101px" viewBox="0 0 115 101" enable-background="new 0 0 115 101" xml:space="preserve">
<ellipse fill="#FFFFFF" cx="50.805" cy="50.5" rx="48.828" ry="50"/>
<ellipse fill="#F2F2F2" stroke="#FFFFFF" stroke-width="3" stroke-miterlimit="10" cx="96.227" cy="45.563" rx="16.797" ry="17.968"/>
<polygon fill="#20A7E0" points="90.439,41.811 86.648,45.59 94.218,53.396 105.807,41.679 102.421,37.729 94.35,45.845 "/>
<g>
	<g>
		<path fill="#20A7E0" d="M56.237,42.494c0.004-0.242,0.01-0.481,0.01-0.729c0-9.244-9.242-8.968-9.242-8.968
			s-9.243-0.275-9.243,8.968c0,0.248,0.007,0.487,0.011,0.729c-1.363,0.313-2.179,2.125-1.827,4.118
			c0.31,1.765,1.435,3.086,2.653,3.246c0.028,0.12,0.056,0.251,0.084,0.366c0.533,2.164,3.44,7.355,8.322,7.355
			c4.882,0,7.79-5.191,8.324-7.355c0.027-0.115,0.053-0.246,0.083-0.366c1.218-0.16,2.343-1.481,2.653-3.246
			C58.417,44.619,57.601,42.807,56.237,42.494z"/>
		<path fill="#20A7E0" d="M59.062,59.496l-6.298-1.643l-4.566,3.32l1.233,6.47h0.002l-2.426,2.426l-2.426-2.426l1.234-6.47
			l-4.565-3.32l-6.298,1.643c-3.418,0.893-5.804,3.979-5.804,7.513v4.612h35.719v-4.612C64.865,63.475,62.479,60.389,59.062,59.496z
			"/>
	</g>
	<g>
		<path fill="#20A7E0" d="M57.934,41.443c1.456,1.048,2.202,3.154,1.795,5.461c-0.303,1.72-1.216,3.165-2.411,3.97
			c3.712-0.568,5.924-4.581,6.356-6.328c0.024-0.101,0.047-0.214,0.071-0.32c1.06-0.139,2.04-1.289,2.311-2.824
			c0.306-1.734-0.403-3.312-1.593-3.585c0.003-0.211,0.01-0.417,0.01-0.634c0-8.045-8.044-7.804-8.044-7.804
			s-3.572-0.104-5.956,2.207C54.032,32.592,57.806,35.351,57.934,41.443z"/>
		<g>
			<path fill="#20A7E0" d="M66.922,52.617l-5.481-1.429l-3.973,2.89l0.653,3.429l1.366,0.355c2.85,0.743,5.108,2.741,6.253,5.31
				h6.235v-4.013C71.976,56.082,69.897,53.396,66.922,52.617z"/>
		</g>
	</g>
	<g>
		<path fill="#20A7E0" d="M30.266,44.227c0.023,0.105,0.046,0.219,0.073,0.32c0.431,1.747,2.643,5.76,6.355,6.328
			c-1.196-0.805-2.108-2.25-2.412-3.971c-0.407-2.306,0.339-4.412,1.794-5.458c0.128-6.094,3.903-8.853,7.462-9.858
			c-2.383-2.312-5.957-2.207-5.957-2.207s-8.044-0.241-8.044,7.804c0,0.216,0.006,0.423,0.009,0.634
			c-1.188,0.273-1.896,1.852-1.591,3.585C28.226,42.938,29.206,44.088,30.266,44.227z"/>
		<g>
			<path fill="#20A7E0" d="M34.524,57.862l1.366-0.355l0.653-3.429l-3.973-2.89l-5.481,1.429c-2.976,0.779-5.053,3.465-5.053,6.542
				v4.013h6.235C29.415,60.604,31.674,58.605,34.524,57.862z"/>
		</g>
	</g>
</g>
</svg>
