<?xml version="1.0" encoding="utf-8"?>
<!-- Generator: Adobe Illustrator 16.0.0, SVG Export Plug-In . SVG Version: 6.00 Build 0)  -->
<!DOCTYPE svg PUBLIC "-//W3C//DTD SVG 1.1//EN" "http://www.w3.org/Graphics/SVG/1.1/DTD/svg11.dtd">
<svg version="1.1" id="Layer_1" xmlns="http://www.w3.org/2000/svg" xmlns:xlink="http://www.w3.org/1999/xlink" x="0px" y="0px"
	 width="115px" height="101px" viewBox="0 0 115 101" enable-background="new 0 0 115 101" xml:space="preserve">
<g display="none">
	<circle display="inline" fill="#21A6DF" cx="43.336" cy="41.156" r="5.625"/>
	<g display="inline">
		<path fill="#21A6DF" d="M53.925,29.96c-0.151-0.145-0.313-0.271-0.468-0.408c-1.091,1.131-2.184,2.265-3.273,3.396
			c0.128,0.118,0.281,0.2,0.411,0.324c5.104,4.925,5.373,12.914,0.794,18.221c0.966,0.928,2.253,2.172,3.548,3.42
			c0.132-0.121,0.267-0.244,0.397-0.365C61.288,47.295,60.796,36.588,53.925,29.96z"/>
		<path fill="#21A6DF" d="M70.047,40.646c-0.461-6.534-3.223-12.93-8.312-17.839c-0.229-0.219-0.477-0.406-0.711-0.616
			c-1.653,1.714-2.187,2.285-3.839,3.997c0.197,0.182,0.99,0.78,1.19,0.961c5.101,4.676,7.031,12.035,6.078,18.86
			c-0.574,4.112-2.192,8.028-4.798,11.05c1.483,1.432,1.711,1.719,3.706,3.643C68.345,54.984,70.55,47.73,70.047,40.646z"/>
		<polygon fill="#21A6DF" points="56.988,78.811 51.029,78.811 42.984,50.647 48.942,50.647 		"/>
		<polygon fill="#21A6DF" points="43.277,50.647 37.321,50.647 29.275,78.811 35.231,78.811 		"/>
		<rect x="37.185" y="50.647" fill="#21A6DF" width="11.601" height="5.097"/>
		<rect x="37.439" y="60.438" fill="#21A6DF" width="11.601" height="5.098"/>
		<rect x="35.427" y="70.859" fill="#21A6DF" width="17.927" height="5.1"/>
		<rect x="40.699" y="45.55" fill="#21A6DF" width="4.922" height="6.151"/>
		<circle fill="#FFFFFF" cx="43.61" cy="39.518" r="2.197"/>
	</g>
</g>
<g display="none">
	<g display="inline">
		<path fill="#20A7E0" d="M35.562,68.738c-0.583-0.134-2.31-0.616-2.31-0.616c-0.907-0.171-1.569-0.627-1.569-1.581v-0.073
			c0-0.261,0-0.516,0.013-0.76c0.489-0.697,0.839-1.604,1.208-2.571c0.853-0.53,1.379-1.238,1.379-2.019
			c0-0.39-0.131-0.759-0.368-1.1v-1.598c0-2.625-2.142-4.753-4.786-4.753c-2.644,0-4.786,2.128-4.786,4.753v1.597
			c-0.235,0.342-0.368,0.71-0.368,1.101c0,0.78,0.525,1.488,1.38,2.019c0.368,0.968,0.719,1.872,1.207,2.571
			c0.013,0.244,0.014,0.499,0.014,0.76v0.073c0,0.954-0.661,1.41-1.568,1.581c0,0-1.729,0.482-2.312,0.616
			c-1.801,0.409-3.139,2.166-3.139,4.073h19.144C38.701,70.904,37.363,69.147,35.562,68.738z M67.468,68.738
			c-0.583-0.134-2.31-0.616-2.31-0.616c-0.908-0.171-1.57-0.627-1.57-1.581v-0.073c0-0.261,0-0.516,0.014-0.76
			c0.489-0.697,0.84-1.604,1.208-2.571c0.853-0.53,1.379-1.238,1.379-2.019c0-0.39-0.131-0.759-0.368-1.1v-1.598
			c0-2.625-2.143-4.753-4.785-4.753c-2.645,0-4.786,2.128-4.786,4.753v1.597c-0.235,0.342-0.368,0.71-0.368,1.101
			c0,0.78,0.525,1.488,1.38,2.019c0.367,0.968,0.719,1.872,1.206,2.571c0.014,0.244,0.014,0.499,0.014,0.76v0.073
			c0,0.954-0.661,1.41-1.567,1.581c0,0-1.729,0.482-2.312,0.616c-1.801,0.409-3.14,2.166-3.14,4.073h19.144
			C70.606,70.904,69.268,69.147,67.468,68.738z"/>
		<path fill="#20A7E0" d="M56.19,33.122c-1.07-4.673-5.367-8.169-10.51-8.169c-5.552,0-10.122,4.075-10.704,9.309
			c-0.219-0.016-0.44-0.027-0.663-0.027c-4.625,0-8.375,3.635-8.375,8.121c0,4.484,3.75,8.12,8.375,8.12h9.173V63.24h-6.381v3.19
			h15.953v-3.19h-6.381V50.476h8.575c4.957,0,8.975-3.895,8.975-8.7C64.227,37.277,60.704,33.576,56.19,33.122z M35.51,47.287
			c0-1.908,1.338-3.664,3.14-4.073c0.583-0.132,2.311-0.617,2.311-0.617c0.907-0.17,1.568-0.627,1.568-1.581v-0.072
			c0-0.262-0.001-0.515-0.014-0.76c-0.489-0.698-0.839-1.603-1.207-2.571c-0.855-0.53-1.38-1.238-1.38-2.019
			c0-0.389,0.133-0.757,0.368-1.099v-1.597c0-2.625,2.142-4.753,4.786-4.753s4.786,2.128,4.786,4.753v1.598
			c0.237,0.341,0.368,0.71,0.368,1.099c0,0.781-0.526,1.489-1.379,2.019c-0.368,0.969-0.719,1.875-1.208,2.571
			c-0.013,0.246-0.013,0.499-0.013,0.76v0.072c0,0.954,0.661,1.411,1.569,1.581c0,0,1.727,0.485,2.31,0.617
			c1.801,0.409,3.14,2.166,3.14,4.073H35.51z"/>
	</g>
</g>
<g>
	<ellipse fill="#FFFFFF" cx="50.205" cy="50.5" rx="48.828" ry="50"/>
	
		<ellipse fill="#F2F2F2" stroke="#FFFFFF" stroke-width="3" stroke-miterlimit="10" cx="96.826" cy="46.425" rx="16.797" ry="17.968"/>
	<polygon fill="#20A7E0" points="91.039,42.672 87.248,46.451 94.818,54.258 106.406,42.54 103.021,38.59 94.949,46.706 	"/>
	<g>
		<g>
			<path fill="#20A7E0" d="M71.883,67.998h-3.758c0.016-0.11,0.035-0.219,0.035-0.332V59.03v-2.476c1.463,0,2.65-1.187,2.65-2.651
				V41.439c0-1.464-1.188-2.651-2.65-2.651v-0.003h-3.199l-1.836,3.177l-1.834-3.177h-3.198v0.003c-1.465,0-2.651,1.187-2.651,2.651
				v11.978c0,1.464,1.187,2.65,2.651,2.65v0.487v2.476v8.636c0,0.113,0.02,0.222,0.033,0.332h-5.141V49.022h-9.793v18.976h-3.786
				v-7.706h-9.794v7.706h-3.571c-1.058,0-1.916,0.857-1.916,1.916c0,1.058,0.858,1.916,1.916,1.916h45.841
				c1.059,0,1.916-0.858,1.916-1.916C73.799,68.855,72.941,67.998,71.883,67.998z"/>
			<circle fill="#20A7E0" cx="63.125" cy="33.355" r="4.184"/>
			<path fill="#20A7E0" d="M26.109,52.751c3.07,0.026,12.747-3.777,14.638-10.776h3.641c0.769,0,1.032-0.512,0.584-1.137
				l-6.104-8.528c-0.447-0.625-1.18-0.625-1.627,0l-6.104,8.528c-0.447,0.625-0.185,1.137,0.584,1.137h3.761
				c-1.105,4.233-4.867,8.619-9.52,9.78C25.027,51.988,25.275,52.744,26.109,52.751z"/>
		</g>
	</g>
</g>
</svg>
