<?xml version="1.0" encoding="utf-8"?>
<!-- Generator: Adobe Illustrator 16.0.0, SVG Export Plug-In . SVG Version: 6.00 Build 0)  -->
<!DOCTYPE svg PUBLIC "-//W3C//DTD SVG 1.1//EN" "http://www.w3.org/Graphics/SVG/1.1/DTD/svg11.dtd">
<svg version="1.1" id="Layer_1" xmlns="http://www.w3.org/2000/svg" xmlns:xlink="http://www.w3.org/1999/xlink" x="0px" y="0px"
	 width="42.922px" height="379.518px" viewBox="0 0 42.922 379.518" enable-background="new 0 0 42.922 379.518"
	 xml:space="preserve">
<g>
	<path fill-rule="evenodd" clip-rule="evenodd" fill="#2B2C2B" d="M20.312,3.944H31.73c0.726,0,1.32,0.593,1.32,1.32V16.63
		c0,0.725-0.595,1.318-1.32,1.318H20.312c-0.727,0-1.32-0.593-1.32-1.318V5.264C18.991,4.537,19.584,3.944,20.312,3.944z"/>
	<polygon fill-rule="evenodd" clip-rule="evenodd" fill="#FFFFFF" points="24.399,6.875 24.399,9.29 21.967,9.29 21.967,12.561 
		24.42,12.561 24.42,15.02 27.665,15.02 27.665,12.561 30.075,12.561 30.075,9.269 27.642,9.269 27.617,6.873 	"/>
	<path fill-rule="evenodd" clip-rule="evenodd" fill="#2B2C2B" d="M17.25,18.4c1.727,1.726,3.724,3.377,4.514,2.585
		c1.132-1.13,1.829-2.115,4.322-0.112c2.493,2.005,0.578,3.34-0.518,4.436c-1.266,1.266-5.978,0.068-10.635-4.591
		c-4.659-4.657-5.856-9.371-4.591-10.634c1.095-1.097,2.43-3.011,4.434-0.518c2.004,2.492,1.019,3.19-0.113,4.32
		C13.875,14.678,15.525,16.675,17.25,18.4z"/>
</g>
<g>
	<path fill-rule="evenodd" clip-rule="evenodd" fill="#26ABE2" d="M20.312,35.875H31.73c0.726,0,1.32,0.593,1.32,1.32v11.367
		c0,0.725-0.595,1.318-1.32,1.318H20.312c-0.727,0-1.32-0.593-1.32-1.318V37.195C18.991,36.468,19.584,35.875,20.312,35.875z"/>
	<polygon fill="#FFFFFF" points="24.399,38.807 24.399,41.222 21.967,41.222 21.967,44.493 24.42,44.493 24.42,46.952 
		27.665,46.952 27.665,44.493 30.075,44.493 30.075,41.2 27.642,41.2 27.617,38.805 	"/>
	<path fill-rule="evenodd" clip-rule="evenodd" fill="#26ABE2" d="M17.25,50.332c1.727,1.726,3.724,3.377,4.514,2.585
		c1.132-1.13,1.829-2.115,4.322-0.112c2.493,2.005,0.578,3.34-0.518,4.436c-1.266,1.266-5.978,0.068-10.635-4.591
		c-4.659-4.657-5.856-9.371-4.591-10.634c1.095-1.097,2.43-3.011,4.434-0.518c2.004,2.492,1.019,3.19-0.113,4.32
		C13.875,46.609,15.525,48.606,17.25,50.332z"/>
</g>
<g>
	<path fill-rule="evenodd" clip-rule="evenodd" fill="#2B2C2B" d="M17.9,67.807c-0.368,0-0.668,0.297-0.668,0.667v2.895h1.335
		v-2.895C18.567,68.104,18.269,67.807,17.9,67.807z"/>
	<path fill-rule="evenodd" clip-rule="evenodd" fill="#2B2C2B" d="M25.022,67.807c-0.368,0-0.667,0.297-0.667,0.667v2.895h1.336
		v-2.895C25.691,68.104,25.391,67.807,25.022,67.807z"/>
	<path fill-rule="evenodd" clip-rule="evenodd" fill="#2B2C2B" d="M28.361,70.033h-1.337v1.337h1.337V85.61H26.58
		c-0.737,0-1.335,0.6-1.335,1.338v1.779H14.563V71.37h1.335v-1.337h-1.335c-0.738,0-1.337,0.6-1.337,1.337v17.358
		c0,0.739,0.599,1.337,1.337,1.337h10.683l4.451-4.455V71.37C29.696,70.633,29.099,70.033,28.361,70.033z"/>
	<rect x="21.4" y="79.881" fill-rule="evenodd" clip-rule="evenodd" fill="#2B2C2B" width="3.93" height="1.042"/>
	<rect x="19.904" y="70.033" fill-rule="evenodd" clip-rule="evenodd" fill="#2B2C2B" width="3.116" height="1.337"/>
	<rect x="21.4" y="76.204" fill-rule="evenodd" clip-rule="evenodd" fill="#2B2C2B" width="5.418" height="1.044"/>
	<polygon fill-rule="evenodd" clip-rule="evenodd" fill="#2B2C2B" points="15.445,80.97 16.222,80.229 17.38,81.377 19.602,79.184 
		20.42,79.99 17.464,83.003 	"/>
	<polygon fill-rule="evenodd" clip-rule="evenodd" fill="#2B2C2B" points="15.493,77.146 16.271,76.403 17.431,77.553 
		19.651,75.357 20.469,76.166 17.516,79.177 	"/>
</g>
<g>
	<path fill-rule="evenodd" clip-rule="evenodd" fill="#26ABE2" d="M17.9,100.14c-0.368,0-0.668,0.297-0.668,0.667v2.895h1.335
		v-2.895C18.567,100.438,18.269,100.14,17.9,100.14z"/>
	<path fill-rule="evenodd" clip-rule="evenodd" fill="#26ABE2" d="M25.022,100.14c-0.368,0-0.667,0.297-0.667,0.667v2.895h1.336
		v-2.895C25.691,100.438,25.391,100.14,25.022,100.14z"/>
	<path fill-rule="evenodd" clip-rule="evenodd" fill="#26ABE2" d="M28.361,102.366h-1.337v1.337h1.337v14.241H26.58
		c-0.737,0-1.335,0.6-1.335,1.338v1.779H14.563v-17.358h1.335v-1.337h-1.335c-0.738,0-1.337,0.6-1.337,1.337v17.358
		c0,0.739,0.599,1.338,1.337,1.338h10.683l4.451-4.455v-14.241C29.696,102.966,29.099,102.366,28.361,102.366z"/>
	<rect x="21.4" y="112.214" fill-rule="evenodd" clip-rule="evenodd" fill="#26ABE2" width="3.93" height="1.042"/>
	<rect x="19.904" y="102.366" fill-rule="evenodd" clip-rule="evenodd" fill="#26ABE2" width="3.116" height="1.337"/>
	<rect x="21.4" y="108.537" fill-rule="evenodd" clip-rule="evenodd" fill="#26ABE2" width="5.418" height="1.044"/>
	<polygon fill-rule="evenodd" clip-rule="evenodd" fill="#26ABE2" points="15.445,113.303 16.222,112.563 17.38,113.71 
		19.602,111.517 20.42,112.323 17.464,115.336 	"/>
	<polygon fill-rule="evenodd" clip-rule="evenodd" fill="#26ABE2" points="15.493,109.479 16.271,108.736 17.431,109.886 
		19.651,107.69 20.469,108.499 17.516,111.51 	"/>
</g>
<g>
	<path fill-rule="evenodd" clip-rule="evenodd" fill="#2B2C2B" d="M21.78,132.652l-3.687,2.62v-1.154h-3.308v3.507l-3.606,2.565
		l1.295,2.361l1.516-1.077v3.483c0.349-0.227,0.879-0.422,1.29-0.496v-3.904l6.5-4.624l6.501,4.624v8.385h-1.914v-4.887h-3.674
		v4.887h-3.769c-0.195,0.446-0.479,0.881-0.81,1.291h11.456v-8.759l1.514,1.077l1.298-2.361L21.78,132.652z"/>
	<path fill-rule="evenodd" clip-rule="evenodd" fill="#2B2C2B" d="M16.029,146.142c-0.696,0-1.313,0.34-1.696,0.864
		c-0.381-0.524-0.996-0.864-1.692-0.864c-1.16,0-2.102,0.942-2.102,2.102c0,2.077,3.794,4.425,3.794,4.425s3.799-2.462,3.799-4.425
		C18.132,147.084,17.19,146.142,16.029,146.142z"/>
	<rect x="17.616" y="141.954" fill-rule="evenodd" clip-rule="evenodd" fill="#2B2C2B" width="3.271" height="3.272"/>
</g>
<g>
	<path fill-rule="evenodd" clip-rule="evenodd" fill="#26ABE2" d="M21.78,162.818l-3.687,2.62v-1.154h-3.308v3.507l-3.606,2.565
		l1.295,2.361l1.516-1.077v3.483c0.349-0.227,0.879-0.422,1.29-0.496v-3.904l6.5-4.624l6.501,4.624v8.385h-1.914v-4.887h-3.674
		v4.887h-3.769c-0.195,0.446-0.479,0.881-0.81,1.291h11.456v-8.759l1.514,1.077l1.298-2.361L21.78,162.818z"/>
	<path fill-rule="evenodd" clip-rule="evenodd" fill="#26ABE2" d="M16.029,176.308c-0.696,0-1.313,0.34-1.696,0.864
		c-0.381-0.524-0.996-0.864-1.692-0.864c-1.16,0-2.102,0.942-2.102,2.102c0,2.077,3.794,4.425,3.794,4.425s3.799-2.462,3.799-4.425
		C18.132,177.25,17.19,176.308,16.029,176.308z"/>
	<rect x="17.616" y="172.12" fill-rule="evenodd" clip-rule="evenodd" fill="#26ABE2" width="3.271" height="3.272"/>
</g>
<g>
	<path fill-rule="evenodd" clip-rule="evenodd" fill="#2B2C2B" d="M21.462,203.91c-3.047,0-5.517,2.469-5.517,5.516
		c0,3.044,2.47,5.514,5.517,5.514c3.046,0,5.515-2.47,5.515-5.514C26.977,206.379,24.509,203.91,21.462,203.91L21.462,203.91z
		 M24.77,210.526h-2.205v2.207h-2.206v-2.207h-2.206v-2.204h2.206v-2.207h2.206v2.207h2.205V210.526z"/>
	<path fill-rule="evenodd" clip-rule="evenodd" fill="#2B2C2B" d="M31.846,203.264c0,0-0.002,0-0.003-0.004l-2.652-2.65v-4.414
		h-2.206v2.207l-5.523-5.524l-10.385,10.386c-0.861,0.861-0.863,2.26,0,3.122c0.861,0.859,2.258,0.859,3.119,0
		c0-0.004,0.001-0.004,0.003-0.007l7.263-7.259l7.262,7.266c0.861,0.859,2.26,0.859,3.122,0
		C32.707,205.523,32.707,204.125,31.846,203.264z"/>
</g>
<g>
	<path fill-rule="evenodd" clip-rule="evenodd" fill="#26ABE2" d="M21.462,235.91c-3.047,0-5.517,2.469-5.517,5.516
		c0,3.044,2.47,5.514,5.517,5.514c3.046,0,5.515-2.47,5.515-5.514C26.977,238.379,24.509,235.91,21.462,235.91L21.462,235.91z
		 M24.77,242.526h-2.205v2.207h-2.206v-2.207h-2.206v-2.204h2.206v-2.207h2.206v2.207h2.205V242.526z"/>
	<path fill-rule="evenodd" clip-rule="evenodd" fill="#26ABE2" d="M31.846,235.264c0,0-0.002,0-0.003-0.004l-2.652-2.65v-4.414
		h-2.206v2.207l-5.523-5.524l-10.385,10.386c-0.861,0.861-0.863,2.26,0,3.122c0.861,0.859,2.258,0.859,3.119,0
		c0-0.004,0.001-0.004,0.003-0.007l7.263-7.259l7.262,7.266c0.861,0.859,2.26,0.859,3.122,0
		C32.707,237.523,32.707,236.125,31.846,235.264z"/>
</g>
<g>
	<path fill-rule="evenodd" clip-rule="evenodd" fill="#2B2C2B" d="M31.909,267.552l-0.003-0.004l-2.67-2.666v-4.44h-2.219v2.221
		l-5.556-5.559l-10.448,10.448c-0.866,0.866-0.867,2.273,0,3.139c0.866,0.866,2.272,0.866,3.137,0c0.003,0,0.003-0.003,0.005-0.003
		l7.306-7.306l7.309,7.309c0.867,0.866,2.27,0.866,3.139,0C32.775,269.825,32.775,268.418,31.909,267.552z"/>
	<path fill-rule="evenodd" clip-rule="evenodd" fill="#2B2C2B" d="M15.01,272.248l2.775-1.64l1.266,2.147
		c0.579-0.403,1.421-0.588,1.972-0.578c0.83,0.014,1.737,0.304,2.122,0.377c0.747-0.705,1.122-2.098,0.445-3.225
		c-0.937-1.561-2.651-1.474-3.597-0.929l-5.379,3.169c-1.458,0.915-1.542,2.558-0.929,3.594c0.825,1.405,2.409,1.631,3.691,0.873
		c-0.03-0.314-0.01-0.618,0.058-0.931c-0.945,0.653-2.201,0.948-3.075-0.335C13.845,274.015,14.101,272.803,15.01,272.248z"/>
	<path fill-rule="evenodd" clip-rule="evenodd" fill="#2B2C2B" d="M28.762,277.236c-0.311,1.523-1.696,1.534-2.173,1.435
		l-3.162-0.657l0.75-3.605l3.155,0.654C28.321,275.267,28.969,276.225,28.762,277.236L28.762,277.236z M27.493,274.296l-6.119-1.271
		c-1.621-0.216-2.688,0.512-3.104,2.041c-0.375,1.378,0.551,2.71,2.039,3.103l6.116,1.269c1.067,0.123,2.689-0.177,3.104-2.038
		C29.896,275.756,28.631,274.548,27.493,274.296z"/>
</g>
<g>
	<path fill-rule="evenodd" clip-rule="evenodd" fill="#26ABE2" d="M31.909,299.886l-0.003-0.004l-2.67-2.666v-4.44h-2.219v2.221
		l-5.556-5.559l-10.448,10.448c-0.866,0.866-0.867,2.273,0,3.139c0.866,0.866,2.272,0.866,3.137,0c0.003,0,0.003-0.003,0.005-0.003
		l7.306-7.306l7.309,7.309c0.867,0.866,2.27,0.866,3.139,0C32.775,302.159,32.775,300.752,31.909,299.886z"/>
	<path fill-rule="evenodd" clip-rule="evenodd" fill="#26ABE2" d="M15.01,304.582l2.775-1.64l1.266,2.147
		c0.579-0.403,1.421-0.588,1.972-0.578c0.83,0.014,1.737,0.304,2.122,0.377c0.747-0.705,1.122-2.098,0.445-3.225
		c-0.937-1.561-2.651-1.474-3.597-0.929l-5.379,3.169c-1.458,0.915-1.542,2.558-0.929,3.594c0.825,1.405,2.409,1.631,3.691,0.873
		c-0.03-0.314-0.01-0.618,0.058-0.931c-0.945,0.653-2.201,0.948-3.075-0.335C13.845,306.349,14.101,305.137,15.01,304.582z"/>
	<path fill-rule="evenodd" clip-rule="evenodd" fill="#26ABE2" d="M28.762,309.57c-0.311,1.523-1.696,1.534-2.173,1.435
		l-3.162-0.657l0.75-3.605l3.155,0.654C28.321,307.601,28.969,308.559,28.762,309.57L28.762,309.57z M27.493,306.63l-6.119-1.271
		c-1.621-0.216-2.688,0.512-3.104,2.041c-0.375,1.378,0.551,2.71,2.039,3.103l6.116,1.269c1.067,0.123,2.689-0.177,3.104-2.038
		C29.896,308.09,28.631,306.882,27.493,306.63z"/>
</g>
<g>
	<polygon fill-rule="evenodd" clip-rule="evenodd" fill="#2B2C2B" points="20.879,328.947 19.881,329.945 20.801,330.868 
		20.188,331.479 19.268,330.561 18.271,331.559 19.19,332.477 18.577,333.088 17.658,332.17 16.661,333.167 17.581,334.086 
		16.968,334.701 16.048,333.781 15.05,334.776 18.727,338.454 24.556,332.626 	"/>
	<path fill-rule="evenodd" clip-rule="evenodd" fill="#2B2C2B" d="M31.069,326.539c0.164,0.165,0.383,0.255,0.613,0.255
		c0.23,0,0.451-0.09,0.613-0.255l-4.597-4.593c-0.162,0.161-0.254,0.38-0.254,0.611s0.091,0.449,0.254,0.61l0.154,0.155
		l-1.945,1.943l-2.451-2.452l-0.458,0.46c-0.255,0.255-0.255,0.664-0.002,0.919l0.459,0.46l-9.237,9.238
		c-0.347,0.346-0.469,0.862-0.314,1.331l0.895,2.684l-0.82,0.819c-0.37,0.373-0.415,0.944-0.137,1.364l-3.151,3.152
		c-0.085,0.082-0.085,0.222,0,0.305c0.042,0.041,0.098,0.065,0.152,0.065c0.056,0,0.11-0.024,0.153-0.065l3.152-3.149
		c0.18,0.118,0.389,0.178,0.596,0.178c0.278,0,0.555-0.105,0.767-0.316l0.82-0.82l2.685,0.896c0.47,0.156,0.983,0.033,1.331-0.313
		l9.238-9.239l0.459,0.459c0.254,0.254,0.666,0.254,0.92,0l0.458-0.459l-2.45-2.452l1.945-1.942L31.069,326.539L31.069,326.539z
		 M28.465,323.936l0.768,0.77l-1.944,1.942l-0.767-0.77L28.465,323.936L28.465,323.936z M19.678,339.466
		c-0.116,0.115-0.288,0.154-0.443,0.102l-4.564-4.563c-0.053-0.155-0.012-0.327,0.105-0.442l9.295-9.296l4.901,4.904L19.678,339.466
		L19.678,339.466z M28.359,327.719l-0.763-0.767l1.942-1.943l0.766,0.768L28.359,327.719z"/>
</g>
<g>
	<polygon fill-rule="evenodd" clip-rule="evenodd" fill="#26ABE2" points="20.879,360.947 19.881,361.945 20.801,362.868 
		20.188,363.479 19.268,362.561 18.271,363.559 19.19,364.477 18.577,365.088 17.658,364.17 16.661,365.167 17.581,366.086 
		16.968,366.701 16.048,365.781 15.05,366.776 18.727,370.454 24.556,364.626 	"/>
	<path fill-rule="evenodd" clip-rule="evenodd" fill="#26ABE2" d="M31.069,358.539c0.164,0.165,0.383,0.255,0.613,0.255
		c0.23,0,0.451-0.09,0.613-0.255l-4.597-4.593c-0.162,0.161-0.254,0.38-0.254,0.611s0.091,0.449,0.254,0.61l0.154,0.155
		l-1.945,1.943l-2.451-2.452l-0.458,0.46c-0.255,0.255-0.255,0.664-0.002,0.919l0.459,0.46l-9.237,9.238
		c-0.347,0.346-0.469,0.862-0.314,1.331l0.895,2.684l-0.82,0.819c-0.37,0.373-0.415,0.944-0.137,1.364l-3.151,3.152
		c-0.085,0.082-0.085,0.222,0,0.305c0.042,0.041,0.098,0.065,0.152,0.065c0.056,0,0.11-0.024,0.153-0.065l3.152-3.149
		c0.18,0.118,0.389,0.178,0.596,0.178c0.278,0,0.555-0.105,0.767-0.316l0.82-0.82l2.685,0.896c0.47,0.156,0.983,0.033,1.331-0.313
		l9.238-9.239l0.459,0.459c0.254,0.254,0.666,0.254,0.92,0l0.458-0.459l-2.45-2.452l1.945-1.942L31.069,358.539L31.069,358.539z
		 M28.465,355.936l0.768,0.77l-1.944,1.942l-0.767-0.77L28.465,355.936L28.465,355.936z M19.678,371.466
		c-0.116,0.115-0.288,0.154-0.443,0.102l-4.564-4.563c-0.053-0.155-0.012-0.327,0.105-0.442l9.295-9.296l4.901,4.904L19.678,371.466
		L19.678,371.466z M28.359,359.719l-0.763-0.767l1.942-1.943l0.766,0.768L28.359,359.719z"/>
</g>
</svg>
