<?xml version="1.0" encoding="UTF-8"?>
<!DOCTYPE svg PUBLIC "-//W3C//DTD SVG 1.1//EN" "http://www.w3.org/Graphics/SVG/1.1/DTD/svg11.dtd">
<!-- Creator: CorelDRAW -->
<svg xmlns="http://www.w3.org/2000/svg" xml:space="preserve" width="70px" height="73px" style="shape-rendering:geometricPrecision; text-rendering:geometricPrecision; image-rendering:optimizeQuality; fill-rule:evenodd; clip-rule:evenodd"
viewBox="0 0 70 73"
 xmlns:xlink="http://www.w3.org/1999/xlink">
 <defs>
  <style type="text/css">
   <![CDATA[
    .str0 {stroke:#333333;stroke-width:1.24962}
    .str1 {stroke:#C4C8CD;stroke-width:8.33277}
    .fil3 {fill:none}
    .fil5 {fill:#161614}
    .fil2 {fill:#333333}
    .fil0 {fill:#393939}
    .fil4 {fill:#999999}
    .fil1 {fill:white}
   ]]>
  </style>
 </defs>
 <g id="teleconsulting" visibility="hidden">
  <metadata id="CorelCorpID_0Corel-Layer"/>
  <rect class="fil0" x="32.0246" y="22.9896" width="17.3136" height="17.2473" rx="8.5938" ry="8.5938"/>
  <polygon class="fil1" points="38.6839,26.5987 38.6839,29.5728 35.6886,29.5728 35.6886,33.6016 38.7111,33.6016 38.7111,36.6288 42.7056,36.6288 42.7056,33.6016 45.6737,33.6016 45.6737,29.5468 42.6784,29.5468 42.6477,26.5975 "/>
  <path class="fil0" d="M29.7511 40.9233c2.12483,2.12601 4.58627,4.15753 5.55833,3.18429 1.39372,-1.39254 2.25121,-2.60554 5.32211,-0.138191 3.06972,2.46853 0.712213,4.11383 -0.637802,5.46266 -1.55671,1.55671 -7.35953,0.0826781 -13.0962,-5.654 -5.73668,-5.73668 -7.21189,-11.5407 -5.654,-13.0974 1.34883,-1.35002 2.99413,-3.70634 5.46148,-0.636621 2.46735,3.06854 1.25553,3.92839 -0.138191,5.32093 -0.972058,0.973239 1.05946,3.4335 3.18429,5.55833z"/>
 </g>
 <g id="Layer_x0020_2" visibility="hidden">
  <metadata id="CorelCorpID_1Corel-Layer"/>
  <polygon class="fil2" points="37.9953,50.41 37.9953,72.974 58.1699,72.974 58.1699,50.4136 "/>
 </g>
 <g id="Layer_x0020_3" visibility="hidden">
  <metadata id="CorelCorpID_2Corel-Layer"/>
  <g id="_38409184">
   <polygon id="_38414560" class="fil3 str0" points="2.17443,19.1223 2.69531,73.104 66.9374,73.104 66.9374,16.2947 35.0827,1.1634 "/>
   <path id="_38413256" class="fil2" d="M-9.5505 21.5247l16.121 -12.8127 -0.132285 -15.6167 13.5887 0 0 4.80596 14.7899 -10.545 44.7348 34.2476 -13.1564 0c-19.5132,-12.3297 -40.4095,-15.2553 -63.6869,-0.0803159l-12.2588 0.00118112z"/>
   <g>
    <rect id="_38412464" class="fil4" x="-4.10695" y="54.6073" width="25.0191" height="24.9232" rx="8.5938" ry="8.5938"/>
    <polygon id="_38410464" class="fil1" points="4.83313,58.105 4.83313,63.4212 -0.522053,63.4212 -0.522053,70.6224 4.88037,70.6224 4.88037,76.0355 12.0214,76.0355 12.0214,70.6224 17.3281,70.6224 17.3281,63.3739 11.973,63.3739 11.9175,58.1026 "/>
   </g>
   <polygon id="_38409280" class="fil2" points="14.4427,26.6826 33.3205,26.6826 33.3205,36.4693 14.4415,36.4693 "/>
  </g>
 </g>
 <g id="Layer_x0020_4" visibility="hidden">
  <metadata id="CorelCorpID_3Corel-Layer"/>
  <g id="_61649280">
   <path id="_61776776" class="fil5" d="M-2202.45 608.968l-54.5132 38.7583 0 -17.0707 -48.9336 0 0 51.8711 -53.338 37.9374 19.1872 34.9303c0,-0.00826781 22.3999,-15.938 22.3999,-15.938l0 51.5002c5.14612,-3.36264 12.9793,-6.22802 19.0667,-7.32055l0.00118112 -57.7459 96.1298 -68.3594 96.1345 68.3677 0 124.001 -28.2924 0 0 -72.2843 -54.3384 0 0 72.2843 -55.7416 0c-2.88783,6.59181 -7.08433,13.0135 -11.9505,19.0679l169.394 -0.00118112 0 -129.505 22.3951 15.925 19.1919 -34.922 -156.793 -111.496z"/>
   <path id="_61648496" class="fil5" d="M-2290.55 800.832c-10.3052,0 -19.4175,5.02919 -25.068,12.7584 -5.654,-7.72922 -14.7545,-12.7584 -25.0668,-12.7584 -17.1498,0 -31.0622,13.9053 -31.0622,31.0633 0,30.7126 56.129,65.4421 56.129,65.4421 0.00118112,0 56.1432,-36.4173 56.1432,-65.4421 0,-17.1592 -13.9135,-31.0633 -31.0752,-31.0633z"/>
   <polygon id="_62207600" class="fil5" points="-2218.7,738.881 -2267.11,738.881 -2267.11,787.299 -2218.7,787.299 "/>
  </g>
  <polygon class="fil3 str1" points="-1166.82,-1172.22 -568.901,-1172.22 -568.901,-574.289 -1166.82,-574.289 "/>
  <polygon class="fil3 str1" points="-568.901,-1172.22 29.0224,-1172.22 29.0224,-574.289 -568.901,-574.289 "/>
  <polygon class="fil3 str1" points="29.0224,-1172.22 626.941,-1172.22 626.941,-574.289 29.0224,-574.289 "/>
  <polygon class="fil3 str1" points="626.941,-1172.22 1224.87,-1172.22 1224.87,-574.289 626.941,-574.289 "/>
  <path class="fil5" d="M327.804 -874.32c41.3745,0 74.917,-33.5342 74.917,-74.917 0.00118112,-41.3721 -33.5425,-74.9052 -74.9182,-74.9052 -41.3698,0 -74.917,33.5331 -74.917,74.9052 0.00118112,41.3827 33.546,74.9182 74.9182,74.917z"/>
  <path class="fil5" d="M-190.897 -993.193c0,22.9833 -18.6333,41.6154 -41.6178,41.6154 -22.9786,-0.00118112 -41.6119,-18.6321 -41.6119,-41.6142 0,-22.9833 18.6333,-41.6142 41.6119,-41.6142 22.9845,-0.00118112 41.6178,18.6321 41.6178,41.6131z"/>
  <path class="fil5" d="M1071.84 -947.414c-94.9215,-42.6501 -253.491,-55.2668 -290.332,12.4171 -5.55361,10.2072 -8.00915,27.5401 8.24064,48.8639 1.78112,2.3327 4.93824,2.14609 6.9922,-0.503155 35.1512,-45.31 79.3674,-59.9286 273.133,-52.8159 4.99139,0.181892 5.73668,-6.26582 1.96656,-7.9619z"/>
  <path class="fil5" d="M1044.14 -876.931c-55.5302,72.6492 -144.619,29.0566 -173.898,17.4344 -29.2881,-11.6245 -43.9257,16.4695 -43.9257,16.4695 16.5581,-8.59025 27.3712,-6.37094 38.5044,1.35002 -18.0829,10.2131 -25.8298,32.9236 -25.8298,32.9236 30.0476,-23.3814 50.6888,-16.0372 50.6888,-16.0372 -20.1994,10.0442 -26.3802,41.9355 -26.3802,41.9355 34.7591,-30.4586 56.8719,-29.5055 56.8719,-29.5055 -20.1699,16.6514 -15.6084,56.2069 -15.6084,56.2069 18.4171,-42.0524 53.1136,-50.0427 53.1136,-50.0427 -9.74184,21.6676 3.94493,53.8471 3.94493,53.8471 0.634259,-31.2937 23.392,-56.4644 34.563,-66.9657 0,0 -2.5831,18.612 15.8128,39.0914 -6.72882,-29.6743 8.07056,-53.6286 17.7675,-67.5421 15.7962,-19.8593 14.3742,-29.1653 14.3754,-29.1653z"/>
  <path class="fil5" d="M839.398 -771.889c-6.91189,-16.3029 -17.0589,-17.1309 -25.4306,-34.9551 -4.45281,-9.49381 -3.42878,-19.088 -3.42878,-19.088 0.00118112,0 -28.3421,29.7452 -25.4164,63.3373 1.05356,12.1608 9.50798,23.3034 23.1546,25.7164 29.4759,5.20754 37.7201,-19.4423 31.1212,-35.0106z"/>
  <g id="_39301984">
   <path id="_61642768" class="fil0" d="M35.5575 23.6388l-4.86265 3.45713 0 -1.52246 -4.3654 0 0 4.62643 -4.75753 3.3839 1.71144 3.11578c0,0 1.99845,-1.42088 1.99845,-1.42088l0 4.59336c0.459454,-0.300003 1.15749,-0.555124 1.70081,-0.653157l0 -5.15085 8.5749 -6.0981 8.57608 6.09928 0 11.0611 -2.52404 0 0 -6.44771 -4.8473 0 0 6.44771 -4.9725 0c-0.257483,0.588196 -0.631897,1.16104 -1.06537,1.70081l15.11 0 0 -11.5525 1.99727 1.42088 1.71262 -3.11578 -13.9868 -9.94499z"/>
   <path id="_39945152" class="fil0" d="M27.6983 40.7532c-0.918908,0 -1.73152,0.448824 -2.23585,1.1386 -0.504336,-0.689772 -1.31576,-1.1386 -2.23585,-1.1386 -1.52954,0 -2.7709,1.24017 -2.7709,2.7709 0,2.74019 5.00675,5.83707 5.00675,5.83707 0,0 5.00793,-3.24807 5.00793,-5.83707 0,-1.53073 -1.24017,-2.7709 -2.77208,-2.7709z"/>
   <polygon id="_61642648" class="fil0" points="34.1083,35.2268 29.7901,35.2268 29.7901,39.5461 34.1083,39.5461 "/>
  </g>
 </g>
 <g id="Layer_x0020_5" visibility="hidden">
  <metadata id="CorelCorpID_4Corel-Layer"/>
  <g id="_61650480">
   <path id="_39996032" class="fil0" d="M35 36.5c-4.01816,0 -7.27567,3.25634 -7.27567,7.27567 0,4.01697 3.25752,7.27567 7.27567,7.27567 4.01816,0 7.27567,-3.2587 7.27567,-7.27567 0,-4.01816 -3.25752,-7.27567 -7.27567,-7.27567zm4.3654 8.73081l-2.91027 0 0 2.91027 -2.91027 0 0 -2.91027 -2.91027 0 0 -2.91027 2.91027 0 0 -2.91027 2.91027 0 0 2.91027 2.91027 0 0 2.91027z"/>
   <path id="_37647728" class="fil0" d="M48.6986 35.6473c0,-0.00118112 -0.00236223,-0.00236223 -0.00354335,-0.00354335l-3.49846 -3.49846 0 -5.82054 -2.91027 0 0 2.91027 -7.2863 -7.2863 -13.6986 13.6986c-1.13623,1.13741 -1.13741,2.97995 0,4.11619 1.13623,1.13623 2.97877,1.13623 4.11501,0 0.00118112,-0.00118112 0.00236223,-0.00354335 0.00354335,-0.00472446l9.58003 -9.57885 9.58357 9.58357c1.13623,1.13623 2.97877,1.13623 4.11501,0 1.13623,-1.13623 1.13623,-2.97877 0,-4.11619z"/>
  </g>
 </g>
 <g id="Layer_x0020_6" visibility="hidden">
  <metadata id="CorelCorpID_5Corel-Layer"/>
  <path class="fil0" d="M48.7872 35.5315c0,-0.00118112 -0.00236223,-0.00236223 -0.00354335,-0.00354335l-3.52091 -3.51972 0 -5.85597 -2.92799 0 0 2.92799 -7.33 -7.33118 -13.7824 13.7824c-1.14332,1.1445 -1.1445,2.99767 0,4.14217 1.14332,1.14214 2.99649,1.14214 4.13981,0 0.00236223,-0.00118112 0.00354335,-0.00354335 0.00472446,-0.00472446l9.6379 -9.63908 9.64263 9.64381c1.14332,1.14214 2.99649,1.14214 4.13981,0 1.14332,-1.1445 1.14332,-2.99885 0,-4.14217z"/>
  <g id="_61781312">
   <path id="_61953392" class="fil0" d="M26.4948 41.7253l3.66264 -2.15908 1.66774 2.82995c0.764182,-0.526778 1.87679,-0.775993 2.60318,-0.763001 1.09253,0.020079 2.29136,0.40276 2.79924,0.498431 0.982688,-0.927176 1.47876,-2.76617 0.585833,-4.25556 -1.23427,-2.05514 -3.49846,-1.94175 -4.74454,-1.22482l-7.09851 4.18351c-1.92049,1.20474 -2.0327,3.37327 -1.226,4.74218 1.09017,1.85081 3.17956,2.14491 4.8721,1.15041 -0.0389768,-0.41339 -0.0129923,-0.818513 0.0767725,-1.23072 -1.24608,0.859852 -2.90554,1.24962 -4.05595,-0.441737 -0.679141,-0.996862 -0.341342,-2.59491 0.85749,-3.32957z"/>
   <path id="_61807864" class="fil0" d="M44.6367 48.3088c-0.411028,2.0079 -2.23821,2.02207 -2.86775,1.88979l-4.16816 -0.864577 0.987413 -4.75871 4.16225 0.864577c1.30395,0.270475 2.16026,1.53545 1.88624,2.86893zm-1.67364 -3.88115l-8.07174 -1.67482c-2.14136,-0.283468 -3.54689,0.672055 -4.09611,2.69058 -0.494887,1.8201 0.727567,3.57524 2.68822,4.09257l8.07056 1.67364c1.40671,0.162994 3.54689,-0.235042 4.09493,-2.68822 0.483076,-2.16735 -1.18466,-3.76303 -2.68586,-4.09375z"/>
  </g>
 </g>
 <g id="Layer_x0020_7" visibility="hidden">
  <metadata id="CorelCorpID_6Corel-Layer"/>
  <g id="_61831896">
   <polygon id="_40079344" class="fil0" points="35.1996,31.4484 33.8838,32.7653 35.0969,33.9772 34.2878,34.7862 33.076,33.5732 31.759,34.889 32.972,36.102 32.1641,36.9099 30.9511,35.6969 29.6354,37.0126 30.8472,38.2256 30.0393,39.0347 28.8263,37.8217 27.5105,39.1374 32.3614,43.9883 40.0505,36.3004 "/>
   <path id="_61647360" class="fil0" d="M47.6746 28.2712c0.214963,0.213782 0.505517,0.334256 0.809064,0.334256 0.302366,0 0.594101,-0.120474 0.807883,-0.334256l-6.06267 -6.06267c-0.214963,0.213782 -0.335437,0.504336 -0.335437,0.807883 0,0.303547 0.120474,0.594101 0.335437,0.807883l0.201971 0.203152 -2.5642 2.56302 -3.23389 -3.23389 -0.605912 0.605912c-0.335437,0.334256 -0.335437,0.87875 -0.00118112,1.21301l0.607093 0.605912 -12.1856 12.1856c-0.459454,0.459454 -0.620086,1.1386 -0.414572,1.75514l1.18112 3.54217 -1.0819 1.0819c-0.488982,0.488982 -0.549219,1.24371 -0.181892,1.79884l-4.15753 4.15753c-0.112206,0.111025 -0.112206,0.291736 0,0.403942 0.0555124,0.0555124 0.128742,0.0838592 0.201971,0.0838592 0.0732292,0 0.146458,-0.0283468 0.201971,-0.0838592l4.15753 -4.15635c0.238585,0.157088 0.512604,0.236223 0.787804,0.236223 0.366146,0 0.732292,-0.139372 1.01103,-0.419296l1.0819 -1.0819 3.54217 1.18112c0.616542,0.205514 1.29568,0.0448824 1.75514,-0.414572l12.1856 -12.1856 0.605912 0.605912c0.335437,0.335437 0.87875,0.335437 1.21301,0.00118112l0.605912 -0.607093 -3.23271 -3.23389 2.56302 -2.56302 0.201971 0.201971zm-3.43587 -3.43587l1.0134 1.0134 -2.5642 2.56302 -1.01222 -1.0134 2.56302 -2.56302zm-11.5915 20.4841c-0.153545,0.154726 -0.377957,0.206695 -0.585833,0.138191l-6.02015 -6.02133c-0.0685047,-0.206695 -0.0153545,-0.429926 0.138191,-0.584652l12.2623 -12.2612 6.46779 6.46779 -12.2623 12.2612zm11.4533 -15.4951l-1.00749 -1.00867 2.56302 -2.56302 1.00867 1.00749 -2.5642 2.5642z"/>
  </g>
 </g>
 <g id="Layer_x0020_8">
  <metadata id="CorelCorpID_7Corel-Layer"/>
  <rect class="fil3" width="70" height="73"/>
  <g id="_40017936">
   <path id="_39840384" class="fil1" d="M60.1601 53.6451c-2.67523,0.0744103 -4.82958,3.39571 -4.82958,7.48827 0,4.09375 2.15435,7.41386 4.82958,7.48945l0 0.488982 -50.2328 0 0 -0.496069c2.63389,-0.145277 4.74218,-3.43468 4.74218,-7.48237 0,-4.04768 -2.10829,-7.33709 -4.74218,-7.48237l0 -9.96153 50.2328 0 0 9.95562zm9.25404 -3.0083c-0.557487,-3.91658 -3.11224,-7.30874 -6.00125,-9.9887l0 -0.21142 -0.230318 0c-2.61971,-2.38349 -5.47447,-4.18587 -7.35363,-5.24652 -3.1146,-1.84018 -7.18,-3.15712 -12.1714,-4.96423l0.0259845 -0.00236223c-5.45557,-1.88979 -3.68154,-5.27486 -2.88192,-6.52212 0.152364,-0.134647 0.309452,-0.263389 0.453548,-0.414572 4.56619,-4.67013 8.37765,-22.6526 -6.25519,-22.6526 -14.6328,0 -10.8202,17.9825 -6.25401,22.6526 0.144096,0.151183 0.300003,0.279924 0.452367,0.414572 0.799615,1.24726 2.57365,4.63352 -2.88192,6.52212l0.0259845 0.00118112c-4.99139,1.80829 -9.05679,3.12523 -12.1726,4.96541 -1.87797,1.06064 -4.73273,2.86302 -7.35126,5.24652l-0.144096 0 0 0.129923c-2.92326,2.69531 -5.52526,6.11464 -6.08983,10.0702 -0.468903,3.29649 0.85749,12.371 5.82762,15.997 0.0850403,0.120474 0.171262,0.237404 0.262208,0.348429l0 5.38353 56.7384 0 0 -5.49101c0.0602369,-0.0767725 0.115749,-0.158269 0.174805,-0.239766 4.97013,-3.62603 6.29653,-12.7017 5.82644,-15.9982z"/>
   <polygon id="_39959800" class="fil1" points="53.8211,61.1334 16.2675,61.1334 16.2675,64.3047 53.8211,64.3047 "/>
   <polygon id="_37647552" class="fil1" points="33.089,48.6986 16.2675,48.6986 16.2675,56.7207 33.089,56.7207 "/>
  </g>
 </g>
</svg>
