<?xml version="1.0" encoding="utf-8"?>
<!-- Generator: Adobe Illustrator 16.0.0, SVG Export Plug-In . SVG Version: 6.00 Build 0)  -->
<!DOCTYPE svg PUBLIC "-//W3C//DTD SVG 1.1//EN" "http://www.w3.org/Graphics/SVG/1.1/DTD/svg11.dtd">
<svg version="1.1" id="Layer_1" xmlns="http://www.w3.org/2000/svg" xmlns:xlink="http://www.w3.org/1999/xlink" x="0px" y="0px"
	 width="100px" height="100px" viewBox="0 0 100 100" enable-background="new 0 0 100 100" xml:space="preserve">
<circle fill="#E6E6E6" cx="50" cy="50" r="49.317"/>
<path display="none" fill="#53BCE8" d="M65.321,48.482h-1.999V38.356c0-7.36-5.967-13.326-13.326-13.326
	s-13.324,5.965-13.324,13.326v10.126h-2c-1.465,0-2.665,1.2-2.665,2.667v10.235c0,9.936,8.054,13.992,17.989,13.992
	c9.937,0,17.99-4.058,17.99-13.992V51.149C67.985,49.682,66.787,48.482,65.321,48.482z M42,38.356c0-4.409,3.587-7.996,7.995-7.996
	c4.408,0,7.995,3.587,7.995,7.996v10.126H42V38.356z M52.501,66.86h-2.505h-2.504l1.246-4.928c-0.825-0.448-1.393-1.313-1.393-2.321
	c0-1.464,1.188-2.649,2.652-2.649c1.465,0,2.651,1.186,2.651,2.649c0,1.008-0.567,1.872-1.393,2.321L52.501,66.86z"/>
<g display="none">
	<g display="inline">
		<g>
			<path fill="#53BCE8" d="M65.683,56.129c0.02-3.105,2.291-9.381,2.291-9.381l-2.927-2.93l-2.932-2.928
				c0,0-6.276,2.269-9.381,2.292c0,0-3.19,11.099-5.883,17.484c-0.481-0.07-0.987,0.076-1.359,0.446
				c-0.624,0.624-0.624,1.635,0,2.258c0.624,0.627,1.637,0.625,2.26,0c0.369-0.369,0.515-0.877,0.446-1.357
				C54.584,59.319,65.683,56.129,65.683,56.129z M47.753,61.111c-0.108-0.109-0.229-0.19-0.356-0.262l9.349-9.348
				c-0.413-0.69-0.328-1.598,0.267-2.195c0.701-0.701,1.841-0.701,2.542,0c0.703,0.705,0.703,1.842,0,2.544
				c-0.595,0.595-1.5,0.679-2.192,0.267l-9.349,9.351C47.943,61.34,47.86,61.219,47.753,61.111z"/>
			<path fill="#53BCE8" d="M55.019,62.329v4.451c0,0.137-0.117,0.254-0.251,0.254h-27.54c-0.134,0-0.253-0.117-0.253-0.254V33.219
				c0-0.134,0.119-0.253,0.253-0.253h27.54c0.134,0,0.251,0.119,0.251,0.253v6.94c1.194-0.254,2.551-0.63,3.789-1.013v-5.927
				c0-2.227-1.813-4.041-4.04-4.041h-27.54c-2.229,0-4.041,1.813-4.041,4.041V66.78c0,2.229,1.812,4.042,4.041,4.042h27.54
				c2.227,0,4.04-1.813,4.04-4.042v-5.716C57.579,61.463,56.293,61.89,55.019,62.329z"/>
		</g>
		<g>
			<path fill="#53BCE8" d="M62.115,40.89c0,0-6.276,2.269-9.381,2.292c0,0-3.19,11.099-5.883,17.484
				c-0.481-0.07-0.987,0.076-1.359,0.446c-0.624,0.624-0.624,1.635,0,2.258c0.624,0.627,1.637,0.625,2.259,0
				c0.37-0.369,0.516-0.877,0.447-1.357c6.385-2.692,17.484-5.883,17.484-5.883c0.02-3.105,2.291-9.381,2.291-9.381l-2.927-2.93
				L62.115,40.89z M59.555,51.852c-0.595,0.595-1.5,0.679-2.192,0.267l-9.349,9.351c-0.07-0.129-0.153-0.25-0.261-0.357
				c-0.107-0.109-0.229-0.19-0.356-0.262l9.35-9.348c-0.413-0.69-0.328-1.598,0.267-2.195c0.701-0.701,1.84-0.701,2.542,0
				C60.258,50.011,60.258,51.149,59.555,51.852z"/>
			<polygon fill="#53BCE8" points="67.449,32.046 63.166,39.763 69.054,45.651 76.813,41.387 			"/>
		</g>
	</g>
	<g display="inline">
		<path fill="#53BCE8" d="M33.371,40.763h15.252c0.816,0,1.477-0.661,1.477-1.477c0-0.814-0.661-1.476-1.477-1.476H33.371
			c-0.815,0-1.476,0.661-1.476,1.476C31.895,40.102,32.556,40.763,33.371,40.763z"/>
		<path fill="#53BCE8" d="M48.624,42.636H33.371c-0.815,0-1.476,0.661-1.476,1.476c0,0.816,0.661,1.477,1.476,1.477h15.252
			c0.816,0,1.477-0.661,1.477-1.477C50.101,43.297,49.44,42.636,48.624,42.636z"/>
		<path fill="#53BCE8" d="M42.553,47.462h-9.182c-0.815,0-1.476,0.661-1.476,1.476c0,0.816,0.661,1.477,1.476,1.477h9.182
			c0.816,0,1.477-0.661,1.477-1.477C44.03,48.123,43.369,47.462,42.553,47.462z"/>
		<path fill="#53BCE8" d="M40.998,60.632h-7.626c-0.815,0-1.476,0.66-1.476,1.477c0,0.814,0.661,1.476,1.476,1.476h7.626
			c0.815,0,1.476-0.661,1.476-1.476C42.474,61.292,41.813,60.632,40.998,60.632z"/>
	</g>
</g>
<g display="none">
	<path display="inline" fill="#54BDE8" d="M72.828,23.172C72.047,22.391,71.023,22,70,22H45c-2.555,0-5.021,1.021-6.828,2.828
		l-9.344,9.344C27.021,35.979,26,38.445,26,41v33c0,1.023,0.391,2.047,1.172,2.828S28.977,78,30,78h40
		c1.023,0,2.047-0.391,2.828-1.172S74,75.023,74,74V26C74,24.977,73.609,23.953,72.828,23.172z M70,74H30V40.666
		c0-1.104,0.896-2.668,2-2.668h6c2.209,0,4-1.789,4-3.998v-6c0-1.104,1.563-2.001,2.667-2.001H70V74z M34,66h12v-4H34V66z M34,58h12
		v-4H34V58z M34,50h12v-4H34V50z"/>
	<rect x="34" y="45.188" display="inline" fill="#54BDE8" width="30.99" height="4.813"/>
	<rect x="34" y="54" display="inline" fill="#54BDE8" width="30.99" height="4.565"/>
	<rect x="34" y="62" display="inline" fill="#54BDE8" width="30.99" height="4.76"/>
</g>
<g>
	<circle fill="#53BCE8" cx="54.123" cy="50.174" r="2.806"/>
	<path fill="#53BCE8" d="M71.475,29.985H28.525c-1.509,0-2.743,1.234-2.743,2.744v35.914c0,0.755,0.617,1.371,1.371,1.371h8.152
		c2.33,0,4.397-2.467,5.94-2.467c0.771,0,16.738,0,17.508,0c1.543,0,3.613,2.467,5.94,2.467h8.151c0.755,0,1.373-0.616,1.373-1.371
		V32.729C74.218,31.22,72.982,29.985,71.475,29.985z M36.648,56.432c0,0.754-0.617,1.372-1.372,1.372h-1.373
		c-0.754,0-1.372-0.618-1.372-1.372v-14.04c0-0.754,0.618-1.371,1.372-1.371h1.373c0.755,0,1.372,0.617,1.372,1.371V56.432z
		 M64.577,56.211c-0.754,1.307-2.44,1.759-3.749,1.004l-2.882-1.664c-1.079,0.769-2.396,1.227-3.823,1.227s-2.743-0.459-3.824-1.228
		l-2.885,1.665c-1.306,0.755-2.992,0.303-3.747-1.004c-0.754-1.309-0.302-2.994,1.004-3.749l2.881-1.662
		c-0.02-0.206-0.032-0.415-0.032-0.626c0-2.666,1.583-4.957,3.859-5.999v-3.328c0-1.51,1.233-2.744,2.743-2.744
		c1.509,0,2.744,1.234,2.744,2.744v3.327c2.274,1.043,3.858,3.334,3.858,6c0,0.212-0.012,0.42-0.032,0.627l2.88,1.661
		C64.88,53.217,65.331,54.902,64.577,56.211z"/>
</g>
</svg>
