<?xml version="1.0" encoding="utf-8"?>
<!-- Generator: Adobe Illustrator 16.0.0, SVG Export Plug-In . SVG Version: 6.00 Build 0)  -->
<!DOCTYPE svg PUBLIC "-//W3C//DTD SVG 1.1//EN" "http://www.w3.org/Graphics/SVG/1.1/DTD/svg11.dtd">
<svg version="1.1" id="Layer_1" xmlns="http://www.w3.org/2000/svg" xmlns:xlink="http://www.w3.org/1999/xlink" x="0px" y="0px"
	 width="64px" height="64px" viewBox="0 0 64 64" enable-background="new 0 0 64 64" xml:space="preserve">
<circle fill="#25AAE1" cx="32" cy="32" r="31.259"/>
<g display="none">
	<path display="inline" fill="#FFFFFF" d="M47.064,23.79c-9.789-3.978-26.141-5.155-29.94,1.158
		c-0.573,0.952-0.826,2.569,0.85,4.557c0.183,0.218,0.509,0.2,0.721-0.047c3.625-4.226,8.185-5.589,28.167-4.926
		C47.376,24.549,47.453,23.947,47.064,23.79z"/>
	<path display="inline" fill="#FFFFFF" d="M44.208,30.362c-5.727,6.775-14.914,2.71-17.933,1.626
		c-3.021-1.084-4.53,1.536-4.53,1.536c1.708-0.801,2.823-0.595,3.971,0.126c-1.864,0.952-2.664,3.069-2.664,3.069
		c3.099-2.18,5.228-1.495,5.228-1.495c-2.083,0.938-2.721,3.912-2.721,3.912c3.585-2.841,5.865-2.753,5.865-2.753
		c-2.079,1.554-1.609,5.243-1.609,5.243c1.899-3.923,5.478-4.667,5.478-4.667c-1.005,2.021,0.407,5.02,0.407,5.02
		c0.064-2.917,2.412-5.265,3.563-6.243c0,0-0.266,1.735,1.633,3.646c-0.694-2.768,0.832-5.002,1.833-6.299
		C44.354,31.23,44.208,30.362,44.208,30.362z"/>
	<path display="inline" fill="#FFFFFF" d="M23.094,40.158c-0.713-1.521-1.759-1.597-2.623-3.26
		c-0.459-0.885-0.354-1.779-0.354-1.779s-2.922,2.773-2.621,5.906c0.109,1.134,0.98,2.174,2.388,2.398
		C22.924,43.911,23.774,41.611,23.094,40.158z"/>
</g>
<g>
	<g>
		<path fill="#FCFCFC" d="M48.065,36.492c-0.439-0.255-0.954-0.182-1.2,0.338c-0.832,1.753-1.514,2.804-2.88,4.234
			c-1.159,1.212-2.428,1.873-4.066,2.013c-0.526,0.045-0.585-0.184-0.263-0.404c1.382-0.939,2.276-1.807,3.109-2.897
			c0.468-0.611,0.746-1.211,0.536-1.662c-0.314-0.681-1.364-0.637-2.126,0.154c-0.328,0.339-1.364,1.083-2.096,1.529
			c-0.447,0.271-1.921,1.023-2.429,1.147l-1.269,0.495c-0.816,0.294-1.571,0.67-2.024,1.455c-0.847,1.465-0.392,3.425,1.123,4.185
			c0.873,0.439,1.703,0.531,2.749,0.289c2.059-0.475,3.726-1.008,5.126-1.686c1.166-0.563,2.286-1.509,3.021-2.454
			c0.283-0.365,0.637-0.917,0.901-1.296c0.904-1.291,1.62-2.848,2.062-4.229C48.494,37.221,48.505,36.743,48.065,36.492z"/>
		<path fill="#FCFCFC" d="M15.934,36.491c0.44-0.254,0.954-0.181,1.201,0.339c0.831,1.753,1.512,2.804,2.879,4.233
			c1.158,1.212,2.428,1.873,4.066,2.013c0.524,0.046,0.585-0.184,0.263-0.403c-1.382-0.941-2.277-1.808-3.11-2.897
			c-0.467-0.612-0.745-1.211-0.535-1.663c0.313-0.68,1.364-0.636,2.125,0.155c0.327,0.339,1.364,1.082,2.096,1.528
			c0.447,0.271,1.92,1.024,2.429,1.147l1.269,0.495c0.815,0.295,1.571,0.671,2.024,1.455c0.846,1.464,0.391,3.426-1.123,4.186
			c-0.874,0.439-1.704,0.531-2.75,0.289c-2.058-0.475-3.725-1.008-5.126-1.687c-1.165-0.563-2.284-1.509-3.019-2.453
			c-0.282-0.366-0.637-0.917-0.903-1.296c-0.902-1.291-1.618-2.848-2.06-4.229C15.506,37.221,15.496,36.743,15.934,36.491z"/>
	</g>
	<g>
		<circle fill="#FCFCFC" cx="32" cy="18.698" r="2.198"/>
		<g>
			<path fill="#FCFCFC" d="M40.088,21.995H23.912c-0.607,0-1.099,0.493-1.099,1.099c0,0.607,0.492,1.099,1.099,1.099h4.675
				c0.863,2.457,0.608,4.921-0.846,7.442l-2.6,4.505c-0.379,0.657-0.154,1.497,0.502,1.876c0.217,0.125,0.453,0.186,0.686,0.186
				c0.474,0,0.936-0.248,1.19-0.688l4.005-6.937c0.099-0.169,0.279-0.275,0.476-0.275s0.378,0.105,0.476,0.275l4.006,6.937
				c0.255,0.44,0.716,0.688,1.19,0.688c0.233,0,0.47-0.061,0.686-0.186c0.657-0.379,0.881-1.219,0.503-1.876l-2.599-4.5
				c-1.457-2.523-1.713-4.99-0.849-7.447h4.675c0.607,0,1.099-0.492,1.099-1.099C41.187,22.488,40.695,21.995,40.088,21.995z
				 M31.997,27.373c-0.811-0.482-2.477-1.728-2.477-2.973c0-0.637,0.518-1.155,1.154-1.155c0.446,0,0.855,0.26,1.043,0.664
				l0.28,0.596l0.282-0.595c0.191-0.403,0.601-0.665,1.046-0.665c0.637,0,1.155,0.519,1.155,1.155
				C34.48,25.774,32.552,27.037,31.997,27.373z"/>
		</g>
	</g>
</g>
</svg>
