<?xml version="1.0" encoding="utf-8"?>
<!-- Generator: Adobe Illustrator 16.0.0, SVG Export Plug-In . SVG Version: 6.00 Build 0)  -->
<!DOCTYPE svg PUBLIC "-//W3C//DTD SVG 1.1//EN" "http://www.w3.org/Graphics/SVG/1.1/DTD/svg11.dtd">
<svg version="1.1" id="Layer_1" xmlns="http://www.w3.org/2000/svg" xmlns:xlink="http://www.w3.org/1999/xlink" x="0px" y="0px"
	 width="101px" height="101px" viewBox="0 0 101 101" enable-background="new 0 0 101 101" xml:space="preserve">
<circle fill="#FFFFFF" cx="50.5" cy="50.5" r="49.796"/>
<path fill="#53C3C0" d="M67.604,48.338h-2.167V37.365c0-7.976-6.466-14.44-14.441-14.44s-14.439,6.464-14.439,14.44v10.974h-2.167
	c-1.588,0-2.888,1.3-2.888,2.889V62.32c0,10.767,8.728,15.162,19.494,15.162c10.768,0,19.495-4.396,19.495-15.162V51.228
	C70.49,49.638,69.191,48.338,67.604,48.338z M42.331,37.365c0-4.777,3.888-8.664,8.664-8.664c4.777,0,8.664,3.887,8.664,8.664
	v10.974H42.331V37.365z M53.71,68.254h-2.714h-2.714l1.35-5.34c-0.894-0.486-1.509-1.424-1.509-2.515
	c0-1.586,1.287-2.872,2.874-2.872c1.588,0,2.873,1.286,2.873,2.872c0,1.091-0.614,2.028-1.508,2.515L53.71,68.254z"/>
</svg>
