<?xml version="1.0" encoding="utf-8"?>
<!-- Generator: Adobe Illustrator 16.0.0, SVG Export Plug-In . SVG Version: 6.00 Build 0)  -->
<!DOCTYPE svg PUBLIC "-//W3C//DTD SVG 1.1//EN" "http://www.w3.org/Graphics/SVG/1.1/DTD/svg11.dtd">
<svg version="1.1" id="Layer_1" xmlns="http://www.w3.org/2000/svg" xmlns:xlink="http://www.w3.org/1999/xlink" x="0px" y="0px"
	 width="25px" height="25px" viewBox="0 0 25 25" enable-background="new 0 0 25 25" xml:space="preserve">
<g>
	<path fill-rule="evenodd" clip-rule="evenodd" fill="#474647" d="M23.785,11.711l-0.003-0.005l-2.884-2.879V4.031h-2.397V6.43
		L12.5,0.426L1.216,11.711c-0.936,0.936-0.937,2.455,0,3.39c0.935,0.935,2.453,0.935,3.388,0c0.003,0,0.003-0.003,0.005-0.003
		L12.5,7.208l7.895,7.894c0.936,0.935,2.451,0.935,3.391,0C24.721,14.166,24.721,12.647,23.785,11.711z"/>
	<path fill-rule="evenodd" clip-rule="evenodd" fill="#474647" d="M5.532,16.783l2.998-1.771l1.367,2.319
		c0.625-0.435,1.535-0.634,2.13-0.624c0.896,0.015,1.875,0.329,2.292,0.408c0.807-0.762,1.212-2.266,0.482-3.483
		c-1.013-1.686-2.866-1.592-3.887-1.003l-5.811,3.422c-1.574,0.988-1.665,2.764-1.003,3.882c0.891,1.518,2.603,1.761,3.986,0.943
		c-0.032-0.34-0.01-0.668,0.063-1.006c-1.021,0.706-2.377,1.024-3.321-0.362C4.274,18.691,4.551,17.383,5.532,16.783z"/>
	<path fill-rule="evenodd" clip-rule="evenodd" fill="#474647" d="M20.386,22.171c-0.336,1.646-1.832,1.657-2.347,1.55l-3.415-0.709
		l0.811-3.895l3.407,0.706C19.909,20.044,20.609,21.078,20.386,22.171L20.386,22.171z M19.015,18.996l-6.609-1.374
		c-1.75-0.233-2.903,0.553-3.352,2.204c-0.405,1.489,0.595,2.928,2.202,3.351l6.605,1.371c1.154,0.132,2.905-0.191,3.354-2.201
		C21.609,20.572,20.244,19.268,19.015,18.996z"/>
</g>
</svg>
