<?xml version="1.0" encoding="utf-8"?>
<!-- Generator: Adobe Illustrator 16.0.0, SVG Export Plug-In . SVG Version: 6.00 Build 0)  -->
<!DOCTYPE svg PUBLIC "-//W3C//DTD SVG 1.1//EN" "http://www.w3.org/Graphics/SVG/1.1/DTD/svg11.dtd">
<svg version="1.1" id="Layer_1" xmlns="http://www.w3.org/2000/svg" xmlns:xlink="http://www.w3.org/1999/xlink" x="0px" y="0px"
	 width="175px" height="155px" viewBox="0 0 175 155" enable-background="new 0 0 175 155" xml:space="preserve">
<g>
	<path fill="#474747" d="M163.488,111.993l-30.741-9.548V69.187c0-3.746-3.048-6.813-6.813-6.813c-3.771,0-6.813,3.067-6.813,6.813
		v47.822l-6.304-10.919c-1.873-3.243-6.044-4.378-9.306-2.48c-3.25,1.866-4.367,6.043-2.487,9.287l21.276,36.856
		c1.258,2.162,3.526,3.374,5.872,3.374h31.521c2.9,0,5.471-1.82,6.428-4.55l6.759-19.137c0.456-1.354,0.709-2.795,0.709-4.313
		C173.591,118.835,169.303,113.553,163.488,111.993z"/>
	<g>
		<g>
			<path fill="#474747" d="M91.583,105.376c0.485-1.809,1.318-3.463,2.357-4.952H16.535V16.999h101.087V55.71
				c2.422-1.501,5.252-2.411,8.313-2.411c2.446,0,4.738,0.602,6.813,1.595V1.873H1.409V115.55h90.9
				C90.969,112.336,90.662,108.803,91.583,105.376z"/>
		</g>
		<g>
			<g>
				<path fill="#19A9E1" d="M95.737,88.114c-0.048,0-0.101,0-0.154,0c-1.234-0.065-2.304-0.875-2.706-2.038L77.621,41.728
					L67.598,71.5c-0.399,1.188-1.492,2.003-2.745,2.056c-1.361,0.101-2.407-0.68-2.9-1.832l-4.21-9.825l-6.396,19.592
					c-0.399,1.229-1.533,2.063-2.824,2.086c-1.294-0.084-2.452-0.774-2.892-1.992L35.016,52.434l-4.186,11.22
					c-0.44,1.182-1.568,1.968-2.833,1.968h-6.05v-6.05h3.949l6.319-16.946c0.44-1.181,1.571-1.967,2.833-1.967h0.012
					c1.267,0.006,2.396,0.804,2.83,1.991l10.425,28.632l6.169-18.895c0.39-1.194,1.479-2.027,2.738-2.08
					c1.347-0.083,2.42,0.673,2.915,1.831l4.254,9.92l10.331-30.682c0.411-1.229,1.56-2.056,2.857-2.062
					c1.262-0.095,2.448,0.815,2.868,2.044L96.15,76.995l7.262-15.668c0.491-1.07,1.564-1.755,2.741-1.755h6.051v6.05h-4.118
					l-9.602,20.738C97.988,87.435,96.913,88.114,95.737,88.114z"/>
			</g>
		</g>
	</g>
</g>
</svg>
