<?xml version="1.0" encoding="utf-8"?>
<!-- Generator: Adobe Illustrator 16.0.0, SVG Export Plug-In . SVG Version: 6.00 Build 0)  -->
<!DOCTYPE svg PUBLIC "-//W3C//DTD SVG 1.1//EN" "http://www.w3.org/Graphics/SVG/1.1/DTD/svg11.dtd">
<svg version="1.1" id="Layer_1" xmlns="http://www.w3.org/2000/svg" xmlns:xlink="http://www.w3.org/1999/xlink" x="0px" y="0px"
	 width="101px" height="101px" viewBox="0 0 101 101" enable-background="new 0 0 101 101" xml:space="preserve">
<circle fill="#F2F2F2" cx="50.5" cy="50.75" r="50"/>
<g>
	<circle fill="#24A9E1" cx="50.5" cy="30.75" r="5"/>
	<path fill="#24A9E1" d="M72.162,28.319c-1.46,0.911-2.398,2.259-2.881,3.891c0-1.213,0.256-2.31,0.735-3.239
		c-3.053,1.132-5.975,2.954-8.52,5.38c-2.965,2.824-6.902,4.399-10.997,4.399s-8.032-1.575-10.997-4.399
		c-2.545-2.426-5.467-4.248-8.52-5.38c0.479,0.93,0.735,2.026,0.735,3.239c-0.482-1.632-1.421-2.979-2.881-3.891
		c-2.366-0.569-4.768-0.643-7.088-0.126c1.699,9.896,9.297,16.865,18.773,18.032c-4.644-2.183-8.316-5.809-10.975-10.462
		l0.084,0.075c1.214,1.665,2.715,3.122,4.345,4.396c1.665,1.31,3.483,2.417,5.373,3.37c2.627,1.286,4.399,3.843,4.683,6.754
		l2.283,23.496c0.104,1.075,1.007,1.895,2.087,1.895c1.158,0,2.097-0.938,2.097-2.097c0,1.158,0.938,2.097,2.097,2.097
		c1.08,0,1.983-0.819,2.087-1.895l2.283-23.496c0.283-2.911,2.056-5.468,4.683-6.754c1.89-0.953,3.708-2.061,5.373-3.37
		c1.63-1.274,3.131-2.731,4.345-4.396l0.084-0.075c-2.658,4.653-6.331,8.279-10.975,10.462c9.477-1.167,17.074-8.137,18.773-18.032
		C76.93,27.677,74.528,27.75,72.162,28.319z"/>
</g>
</svg>
