<?xml version="1.0" encoding="utf-8"?>
<!-- Generator: Adobe Illustrator 16.0.0, SVG Export Plug-In . SVG Version: 6.00 Build 0)  -->
<!DOCTYPE svg PUBLIC "-//W3C//DTD SVG 1.1//EN" "http://www.w3.org/Graphics/SVG/1.1/DTD/svg11.dtd">
<svg version="1.1" id="Layer_1" xmlns="http://www.w3.org/2000/svg" xmlns:xlink="http://www.w3.org/1999/xlink" x="0px" y="0px"
	 width="102px" height="102px" viewBox="0 0 102 102" enable-background="new 0 0 102 102" xml:space="preserve">
<circle fill="#FFFFFF" cx="51" cy="51" r="51"/>
<g>
	<g>
		<path fill="#53BCE8" d="M81.071,57.045c-0.823-0.476-1.785-0.34-2.246,0.632c-1.558,3.282-2.833,5.249-5.391,7.926
			c-2.168,2.269-4.544,3.506-7.612,3.767c-0.982,0.084-1.094-0.342-0.491-0.755c2.587-1.761,4.262-3.383,5.821-5.425
			c0.873-1.143,1.396-2.267,1.004-3.11c-0.59-1.273-2.555-1.191-3.979,0.288c-0.614,0.635-2.555,2.028-3.923,2.862
			c-0.839,0.508-3.595,1.915-4.547,2.148l-2.375,0.928c-1.526,0.548-2.939,1.253-3.788,2.724c-1.583,2.74-0.731,6.409,2.101,7.83
			c1.635,0.823,3.188,0.995,5.146,0.542c3.854-0.889,6.974-1.886,9.597-3.154c2.181-1.055,4.276-2.824,5.65-4.595
			c0.53-0.682,1.192-1.715,1.688-2.425c1.693-2.416,3.032-5.328,3.858-7.914C81.873,58.409,81.894,57.517,81.071,57.045z"/>
		<path fill="#53BCE8" d="M20.934,57.043c0.825-0.474,1.786-0.338,2.249,0.634c1.555,3.282,2.831,5.249,5.389,7.924
			c2.167,2.269,4.545,3.506,7.61,3.767c0.983,0.086,1.096-0.343,0.492-0.753c-2.586-1.763-4.262-3.386-5.821-5.425
			c-0.874-1.145-1.395-2.267-1-3.112c0.587-1.271,2.552-1.189,3.976,0.29c0.611,0.635,2.553,2.026,3.923,2.86
			c0.837,0.51,3.593,1.917,4.546,2.148l2.374,0.927c1.526,0.551,2.941,1.256,3.788,2.725c1.584,2.74,0.731,6.411-2.101,7.832
			c-1.636,0.823-3.188,0.995-5.147,0.542c-3.852-0.889-6.972-1.888-9.595-3.157c-2.18-1.054-4.274-2.823-5.65-4.592
			c-0.528-0.685-1.192-1.715-1.691-2.425c-1.688-2.416-3.028-5.328-3.855-7.914C20.134,58.409,20.113,57.517,20.934,57.043z"/>
	</g>
	<g>
		<path fill="#53BCE8" d="M55.116,23.74c0-2.269-1.841-4.111-4.113-4.111c-2.271,0-4.114,1.843-4.114,4.111
			c0,2.273,1.843,4.114,4.114,4.114C53.275,27.854,55.116,26.014,55.116,23.74z"/>
		<g>
			<path fill="#53BCE8" d="M66.142,29.912H35.865c-1.136,0-2.056,0.922-2.056,2.058c0,1.135,0.92,2.056,2.056,2.056h8.75
				c1.616,4.598,1.138,9.21-1.584,13.929l-4.866,8.431c-0.71,1.23-0.289,2.801,0.939,3.513c0.406,0.233,0.848,0.344,1.284,0.344
				c0.887,0,1.752-0.462,2.228-1.287l7.496-12.984c0.184-0.317,0.522-0.514,0.891-0.514s0.707,0.197,0.891,0.514l7.497,12.984
				c0.476,0.825,1.34,1.287,2.228,1.287c0.437,0,0.879-0.11,1.283-0.344c1.229-0.712,1.65-2.282,0.94-3.513l-4.862-8.422
				c-2.727-4.723-3.206-9.34-1.589-13.938h8.751c1.135,0,2.055-0.92,2.055-2.056C68.196,30.834,67.276,29.912,66.142,29.912z
				 M50.999,39.977c-1.518-0.902-4.637-3.234-4.637-5.564c0-1.192,0.969-2.162,2.161-2.162c0.834,0,1.6,0.487,1.954,1.242L51,34.607
				l0.527-1.113c0.357-0.754,1.125-1.244,1.957-1.244c1.192,0,2.161,0.97,2.161,2.162C55.645,36.985,52.036,39.349,50.999,39.977z"
				/>
		</g>
	</g>
</g>
</svg>
