<?xml version="1.0" encoding="utf-8"?>
<!-- Generator: Adobe Illustrator 16.0.0, SVG Export Plug-In . SVG Version: 6.00 Build 0)  -->
<!DOCTYPE svg PUBLIC "-//W3C//DTD SVG 1.1//EN" "http://www.w3.org/Graphics/SVG/1.1/DTD/svg11.dtd">
<svg version="1.1" id="Layer_1" xmlns="http://www.w3.org/2000/svg" xmlns:xlink="http://www.w3.org/1999/xlink" x="0px" y="0px"
	 width="70px" height="67px" viewBox="0 0 70 67" enable-background="new 0 0 70 67" xml:space="preserve">
<g>
	<ellipse fill="#FFFFFF" cx="34.832" cy="33.36" rx="34.326" ry="32.856"/>
	<path display="none" fill="none" stroke="#21A3DD" stroke-width="2" stroke-miterlimit="10" d="M22.72,48.326
		c0,0-5.685-7.768-6.2-10.85c-0.442-2.65,1.033-5.425,4.392-9.816c0,0,8.546-10.136,23.142-2.454c0,0,5.441,2.52,7.34,12.012
		c0.507,2.533-8.19,11.969-8.19,11.969s0.506-7.25-0.593-10.16c-1.542-4.086-8.761-4.564-8.761-4.564s-7.613-0.534-9.321,4.822
		C22.871,44.482,22.72,48.326,22.72,48.326z"/>
	<path display="none" fill="#FFFFFF" stroke="#21A3DD" stroke-width="2" stroke-miterlimit="10" d="M23.646,22.044v10.2
		c0,0,0.431,1.722,1.636,2.067c1.205,0.344,17.049,0,17.049,0s1.723-1.55,1.723-2.067s0-10.055,0-10.055
		S35.141,14.228,23.646,22.044z"/>
	<rect x="32.558" y="22.044" display="none" fill="#21A3DD" width="2.583" height="8.783"/>
	<rect x="29.458" y="25.144" display="none" fill="#21A3DD" width="8.783" height="2.583"/>
</g>
<g>
	<path fill="none" stroke="#24A9E1" stroke-width="2" stroke-miterlimit="10" d="M50.337,46.316c0,1.104-0.896,2-2,2H21.328
		c-1.104,0-2-0.896-2-2V24.811c0-1.104,0.896-2,2-2h27.009c1.104,0,2,0.896,2,2V46.316z"/>
	<path fill="#24A9E1" d="M29.97,25.196c0,0.608-0.493,1.101-1.101,1.101l0,0c-0.608,0-1.101-0.493-1.101-1.101v-5.688
		c0-0.608,0.493-1.101,1.101-1.101l0,0c0.608,0,1.101,0.493,1.101,1.101V25.196z"/>
	<path fill="#24A9E1" d="M35.97,25.196c0,0.608-0.493,1.101-1.101,1.101l0,0c-0.608,0-1.101-0.493-1.101-1.101v-5.688
		c0-0.608,0.493-1.101,1.101-1.101l0,0c0.608,0,1.101,0.493,1.101,1.101V25.196z"/>
	<path fill="#24A9E1" d="M41.97,25.196c0,0.608-0.493,1.101-1.101,1.101l0,0c-0.608,0-1.102-0.493-1.102-1.101v-5.688
		c0-0.608,0.493-1.101,1.102-1.101l0,0c0.607,0,1.101,0.493,1.101,1.101V25.196z"/>
	<path fill="#24A9E1" d="M46.176,30.343c0,0.475-0.385,0.86-0.86,0.86H24.674c-0.475,0-0.86-0.385-0.86-0.86l0,0
		c0-0.475,0.385-0.86,0.86-0.86h20.642C45.791,29.483,46.176,29.868,46.176,30.343L46.176,30.343z"/>
	<path fill="#24A9E1" d="M46.176,35.344c0,0.475-0.385,0.859-0.86,0.859H24.674c-0.475,0-0.86-0.385-0.86-0.859l0,0
		c0-0.477,0.385-0.861,0.86-0.861h20.642C45.791,34.482,46.176,34.867,46.176,35.344L46.176,35.344z"/>
	<path fill="#24A9E1" d="M46.176,40.344c0,0.475-0.385,0.859-0.86,0.859H24.674c-0.475,0-0.86-0.385-0.86-0.859l0,0
		c0-0.477,0.385-0.861,0.86-0.861h20.642C45.791,39.482,46.176,39.867,46.176,40.344L46.176,40.344z"/>
</g>
</svg>
