<?xml version="1.0" encoding="utf-8"?>
<!-- Generator: Adobe Illustrator 16.0.0, SVG Export Plug-In . SVG Version: 6.00 Build 0)  -->
<!DOCTYPE svg PUBLIC "-//W3C//DTD SVG 1.1//EN" "http://www.w3.org/Graphics/SVG/1.1/DTD/svg11.dtd">
<svg version="1.1" id="Layer_1" xmlns="http://www.w3.org/2000/svg" xmlns:xlink="http://www.w3.org/1999/xlink" x="0px" y="0px"
	 width="70px" height="67px" viewBox="0 0 70 67" enable-background="new 0 0 70 67" xml:space="preserve">
<ellipse fill="#FFFFFF" cx="35" cy="33.499" rx="34.326" ry="32.855"/>
<g display="none">
	<path display="inline" fill="none" stroke="#21A3DD" stroke-width="2" stroke-miterlimit="10" d="M22.888,48.465
		c0,0-5.685-7.768-6.2-10.85c-0.442-2.651,1.033-5.425,4.392-9.816c0,0,8.546-10.136,23.142-2.454c0,0,5.441,2.52,7.34,12.012
		c0.507,2.532-8.19,11.969-8.19,11.969s0.506-7.25-0.593-10.161c-1.542-4.086-8.761-4.563-8.761-4.563s-7.613-0.534-9.321,4.822
		C23.039,44.621,22.888,48.465,22.888,48.465z"/>
	<path display="inline" fill="#FFFFFF" stroke="#21A3DD" stroke-width="2" stroke-miterlimit="10" d="M23.814,22.183v10.2
		c0,0,0.431,1.722,1.636,2.067c1.205,0.344,17.049,0,17.049,0s1.723-1.55,1.723-2.067s0-10.055,0-10.055
		S35.309,14.367,23.814,22.183z"/>
	<rect x="32.726" y="22.183" display="inline" fill="#21A3DD" width="2.583" height="8.783"/>
	<rect x="29.626" y="25.283" display="inline" fill="#21A3DD" width="8.783" height="2.583"/>
</g>
<g display="none">
	<path display="inline" fill="none" stroke="#21A3DD" stroke-width="2" stroke-miterlimit="10" d="M53.068,47.812
		c0,1.185-0.963,2.146-2.147,2.146H19.079c-1.186,0-2.146-0.962-2.146-2.146V22.409c0-1.186,0.961-2.147,2.146-2.147h31.842
		c1.185,0,2.147,0.961,2.147,2.147V47.812z"/>
	<path display="inline" fill="#23A2DC" d="M44.84,28.846c0,0.417-0.241,0.755-0.536,0.755H25.519c-0.297,0-0.537-0.338-0.537-0.755
		l0,0c0-0.417,0.24-0.755,0.537-0.755h18.785C44.599,28.091,44.84,28.429,44.84,28.846L44.84,28.846z"/>
	<path display="inline" fill="#23A2DC" d="M44.84,35.226c0,0.439-0.241,0.796-0.536,0.796H25.519c-0.297,0-0.537-0.356-0.537-0.796
		l0,0c0-0.44,0.24-0.797,0.537-0.797h18.785C44.599,34.429,44.84,34.785,44.84,35.226L44.84,35.226z"/>
	<path display="inline" fill="#23A2DC" d="M44.84,41.604c0,0.463-0.241,0.836-0.536,0.836H25.519c-0.297,0-0.537-0.373-0.537-0.836
		l0,0c0-0.464,0.24-0.837,0.537-0.837h18.785C44.599,40.768,44.84,41.141,44.84,41.604L44.84,41.604z"/>
	<path display="inline" fill="#23A2DC" d="M27.666,22.052c0,0.494-0.4,0.894-0.894,0.894l0,0c-0.494,0-0.894-0.4-0.894-0.894v-4.115
		c0-0.494,0.4-0.894,0.894-0.894l0,0c0.494,0,0.894,0.4,0.894,0.894V22.052z"/>
	<path display="inline" fill="#23A2DC" d="M36.252,22.052c0,0.494-0.4,0.894-0.894,0.894l0,0c-0.494,0-0.894-0.4-0.894-0.894v-4.115
		c0-0.494,0.4-0.894,0.894-0.894l0,0c0.494,0,0.894,0.4,0.894,0.894V22.052z"/>
	<path display="inline" fill="#23A2DC" d="M44.84,22.052c0,0.494-0.4,0.894-0.895,0.894l0,0c-0.495,0-0.896-0.4-0.896-0.894v-4.115
		c0-0.494,0.4-0.894,0.896-0.894l0,0c0.494,0,0.895,0.4,0.895,0.894V22.052z"/>
</g>
<g>
	<g>
		<path fill="none" stroke="#21A2DC" stroke-width="2" stroke-miterlimit="10" d="M52.421,41.836c0,1.241-1.007,2.247-2.248,2.247
			H19.827c-1.241,0-2.248-1.006-2.248-2.247V20.668c0-1.241,1.006-2.247,2.248-2.247h30.346c1.241,0,2.248,1.006,2.248,2.247V41.836
			z"/>
		<path fill="#23A1DB" d="M48.019,26.945c0,0.518-0.42,0.937-0.938,0.937H22.917c-0.517,0-0.937-0.419-0.937-0.937l0,0
			c0-0.518,0.419-0.938,0.937-0.938h24.165C47.599,26.008,48.019,26.428,48.019,26.945L48.019,26.945z"/>
		<path fill="#23A1DB" d="M48.019,31.298c0,0.441-0.356,0.799-0.797,0.799H35.328c-0.44,0-0.797-0.357-0.797-0.799l0,0
			c0-0.439,0.357-0.796,0.797-0.796h11.894C47.662,30.502,48.019,30.858,48.019,31.298L48.019,31.298z"/>
		<path fill="#23A1DB" d="M48.019,35.937c0,0.412-0.336,0.748-0.748,0.748h-6.934c-0.412,0-0.748-0.336-0.748-0.748l0,0
			c0-0.414,0.336-0.75,0.748-0.75h6.934C47.683,35.187,48.019,35.522,48.019,35.937L48.019,35.937z"/>
		<polyline fill="#FFFFFF" stroke="#21A3DD" stroke-width="2" stroke-miterlimit="10" points="30.543,38.824 30.543,40.247 
			30.543,48.579 27.175,45.249 23.883,48.579 23.883,40.247 23.808,38.824 		"/>
	</g>
	<circle fill="none" stroke="#21A3DD" stroke-width="2" stroke-miterlimit="10" cx="27.175" cy="35.547" r="4.7"/>
</g>
</svg>
