<?xml version="1.0" encoding="utf-8"?>
<!-- Generator: Adobe Illustrator 16.0.0, SVG Export Plug-In . SVG Version: 6.00 Build 0)  -->
<!DOCTYPE svg PUBLIC "-//W3C//DTD SVG 1.1//EN" "http://www.w3.org/Graphics/SVG/1.1/DTD/svg11.dtd">
<svg version="1.1" id="Layer_1" xmlns="http://www.w3.org/2000/svg" xmlns:xlink="http://www.w3.org/1999/xlink" x="0px" y="0px"
	 width="155px" height="155px" viewBox="0 0 155 155" enable-background="new 0 0 155 155" xml:space="preserve">
<g>
	<g>
		<path fill="#474747" d="M145.645,119.429l-25.976-8.066V83.257c0-3.165-2.576-5.757-5.757-5.757s-5.758,2.592-5.758,5.757v40.409
			l-5.325-9.229c-1.582-2.74-5.104-3.696-7.859-2.096c-2.75,1.581-3.69,5.107-2.103,7.851l17.978,31.143
			c1.06,1.826,2.978,2.845,4.961,2.845h26.633c2.451,0,4.625-1.534,5.434-3.84l5.71-16.169c0.384-1.145,0.599-2.366,0.599-3.646
			C154.181,125.209,150.556,120.743,145.645,119.429z"/>
	</g>
	<path fill="#19A9E1" d="M89.734,133.164c-2.841,2.771-5.925,4.619-9.168,5.335V102.04h18.387v-6.134H80.566v-36.81h24.736
		c0.54,3.627,0.905,7.408,1.121,11.287c1.809-1.057,3.846-1.723,6.032-1.938c-0.215-3.196-0.526-6.319-0.94-9.348h24.496
		c1.839,5.814,2.833,11.996,2.833,18.403c0,6.41-0.994,12.592-2.833,18.406h-7.142v6.134h4.817
		c-0.528,1.199-1.162,2.333-1.762,3.492l14.952,4.643c4.68-9.913,7.303-20.984,7.303-32.675c0-42.348-34.333-76.68-76.682-76.68
		c-42.348,0-76.68,34.332-76.68,76.68c0,42.352,34.332,76.68,76.68,76.68c7.809,0,15.338-1.174,22.437-3.343L89.734,133.164z
		 M133.688,52.965h-23.185c-2.82-14.671-8.147-26.601-15.114-34.128C112.576,24.088,126.552,36.692,133.688,52.965z M80.566,16.504
		c10.617,2.339,19.525,16.684,23.635,36.461H80.566V16.504z M59.611,18.837c-6.967,7.527-12.293,19.458-15.108,34.128H21.313
		C28.448,36.692,42.431,24.088,59.611,18.837z M16.156,77.5c0-6.407,0.993-12.589,2.827-18.403H43.49
		c-0.803,5.823-1.264,11.963-1.264,18.403c0,6.442,0.461,12.589,1.264,18.406H18.983C17.155,90.092,16.156,83.91,16.156,77.5z
		 M21.313,102.04h23.189c2.821,14.668,8.142,26.605,15.108,34.129C42.431,130.919,28.448,118.312,21.313,102.04z M74.432,138.499
		c-10.614-2.34-19.523-16.678-23.633-36.459h23.633V138.499z M74.432,95.906H49.702c-0.868-5.809-1.341-11.99-1.341-18.406
		c0-6.413,0.467-12.589,1.341-18.403h24.729V95.906z M74.432,52.965H50.799c4.109-19.778,13.019-34.123,23.633-36.461V52.965z"/>
</g>
</svg>
