<?xml version="1.0" encoding="UTF-8"?>
<!DOCTYPE svg PUBLIC "-//W3C//DTD SVG 1.1//EN" "http://www.w3.org/Graphics/SVG/1.1/DTD/svg11.dtd">
<!-- Creator: CorelDRAW -->
<svg xmlns="http://www.w3.org/2000/svg" xml:space="preserve" width="24px" height="22px" style="shape-rendering:geometricPrecision; text-rendering:geometricPrecision; image-rendering:optimizeQuality; fill-rule:evenodd; clip-rule:evenodd"
viewBox="0 0 24 24"
 xmlns:xlink="http://www.w3.org/1999/xlink">
 <defs>
  <style type="text/css">
   <![CDATA[
    .str0 {stroke:#333333;stroke-width:0.999685}
    .str1 {stroke:#C4C8CD;stroke-width:6.66614}
    .fil3 {fill:none}
    .fil5 {fill:#161614}
    .fil6 {fill:#26ABE2}
    .fil2 {fill:#333333}
    .fil0 {fill:#393939}
    .fil4 {fill:#999999}
    .fil1 {fill:white}
   ]]>
  </style>
 </defs>
 <g id="teleconsulting" visibility="hidden">
  <metadata id="CorelCorpID_0Corel-Layer"/>
  <rect class="fil0" x="9.61972" y="1.19182" width="13.8507" height="13.7977" rx="6.87496" ry="6.87496"/>
  <polygon class="fil1" points="14.9471,4.07906 14.9471,6.45827 12.5509,6.45827 12.5509,9.68126 14.9688,9.68126 14.9688,12.103 18.1644,12.103 18.1644,9.68126 20.5389,9.68126 20.5389,6.43748 18.1427,6.43748 18.1181,4.07811 "/>
  <path class="fil0" d="M7.80094 15.5386c1.69984,1.70079 3.66898,3.32598 4.44661,2.5474 1.11496,-1.11402 1.80094,-2.08441 4.25764,-0.110551 2.45575,1.9748 0.569764,3.29102 -0.510236,4.37008 -1.24535,1.24535 -5.88756,0.0661417 -10.4769,-4.52315 -4.58929,-4.58929 -5.76945,-9.23244 -4.52315,-10.4778 1.07906,-1.08 2.39528,-2.96504 4.36913,-0.509291 1.97386,2.4548 1.00441,3.14268 -0.110551,4.25669 -0.777638,0.778583 0.847559,2.74677 2.5474,4.44661z"/>
 </g>
 <g id="Layer_x0020_2" visibility="hidden">
  <metadata id="CorelCorpID_1Corel-Layer"/>
  <polygon class="fil2" points="14.3962,23.1279 14.3962,41.1789 30.5357,41.1789 30.5357,23.1307 "/>
 </g>
 <g id="Layer_x0020_3" visibility="hidden">
  <metadata id="CorelCorpID_2Corel-Layer"/>
  <g id="_38409184">
   <polygon id="_38414560" class="fil3 str0" points="-14.2602,-1.90205 -13.8435,41.2828 37.5496,41.2828 37.5496,-4.16409 12.0661,-16.269 "/>
   <path id="_38413256" class="fil2" d="M-23.64 0.0198425l12.8967 -10.2501 -0.105827 -12.4932 10.8709 0 0 3.84472 11.8318 -8.43591 35.7874 27.3978 -10.525 0c-15.6104,-9.86362 -32.3272,-12.2041 -50.949,-0.064252l-9.80693 0.000944882z"/>
   <g>
    <rect id="_38412464" class="fil4" x="-19.2852" y="26.4856" width="20.015" height="19.9383" rx="6.87496" ry="6.87496"/>
    <polygon id="_38410464" class="fil1" points="-12.1332,29.2838 -12.1332,33.5367 -16.4173,33.5367 -16.4173,39.2976 -12.0954,39.2976 -12.0954,43.628 -6.38268,43.628 -6.38268,39.2976 -2.13732,39.2976 -2.13732,33.4989 -6.42142,33.4989 -6.46583,29.2819 "/>
   </g>
   <polygon id="_38409280" class="fil2" points="-4.44567,4.14614 10.6564,4.14614 10.6564,11.9754 -4.44661,11.9754 "/>
  </g>
 </g>
 <g id="Layer_x0020_4">
  <metadata id="CorelCorpID_3Corel-Layer"/>
  <g id="_61649280">
   <path id="_61776776" class="fil5" d="M-1777.94 469.969l-43.6101 31.0063 0 -13.6564 -39.1465 0 0 41.4964 -42.6699 30.3496 15.3496 27.9439c0,-0.00661417 17.9197,-12.7502 17.9197,-12.7502l0 41.1997c4.11685,-2.69008 10.3833,-4.98236 15.2532,-5.85638l0.000944882 -46.1962 76.903 -54.6869 76.9068 54.6935 0 99.1994 -22.6337 0 0 -57.8268 -43.4702 0 0 57.8268 -44.5928 0c-2.31024,5.27339 -5.6674,10.4107 -9.56031,15.2542l135.514 -0.000944882 0 -103.603 17.9159 12.7398 15.3534 -27.9373 -125.433 -89.1959z"/>
   <path id="_61648496" class="fil5" d="M-1848.42 623.459c-8.24409,0 -15.5339,4.02331 -20.0542,10.2066 -4.52315,-6.18331 -11.8035,-10.2066 -20.0532,-10.2066 -13.7197,0 -24.8494,11.1241 -24.8494,24.8504 0,24.5698 44.9027,52.3531 44.9027,52.3531 0.000944882,0 44.914,-29.1335 44.914,-52.3531 0,-13.7272 -11.1307,-24.8504 -24.8598,-24.8504z"/>
   <polygon id="_62207600" class="fil5" points="-1790.94,573.899 -1829.66,573.899 -1829.66,612.632 -1790.94,612.632 "/>
  </g>
  <polygon class="fil3 str1" points="-949.447,-954.963 -471.115,-954.963 -471.115,-476.626 -949.447,-476.626 "/>
  <polygon class="fil3 str1" points="-471.115,-954.963 7.21795,-954.963 7.21795,-476.626 -471.115,-476.626 "/>
  <polygon class="fil3 str1" points="7.21795,-954.963 485.547,-954.963 485.547,-476.626 7.21795,-476.626 "/>
  <polygon class="fil3 str1" points="485.547,-954.963 963.884,-954.963 963.884,-476.626 485.547,-476.626 "/>
  <path class="fil5" d="M246.241 -716.648c33.0992,0 59.9329,-26.8271 59.9329,-59.9329 0.000944882,-33.0973 -26.8337,-59.9235 -59.9339,-59.9235 -33.0954,0 -59.9329,26.8261 -59.9329,59.9235 0.000944882,33.1058 26.8365,59.9339 59.9339,59.9329z"/>
  <path class="fil5" d="M-168.715 -811.745c0,18.3865 -14.9065,33.292 -33.2939,33.292 -18.3827,-0.000944882 -33.2891,-14.9055 -33.2891,-33.291 0,-18.3865 14.9065,-33.291 33.2891,-33.291 18.3874,-0.000944882 33.2939,14.9055 33.2939,33.2901z"/>
  <path class="fil5" d="M841.461 -775.123c-75.9364,-34.1197 -202.791,-44.2129 -232.263,9.93354 -4.44283,8.16567 -6.40724,22.0318 6.59244,39.0907 1.42488,1.86614 3.95055,1.71685 5.5937,-0.40252 28.1206,-36.2476 63.4932,-47.9424 218.504,-42.2523 3.99307,0.145512 4.58929,-5.0126 1.57323,-6.36945z"/>
  <path class="fil5" d="M819.304 -718.737c-44.4236,58.1187 -115.694,23.245 -139.117,13.9474 -23.4302,-9.29953 -35.1402,13.1754 -35.1402,13.1754 13.2463,-6.87213 21.8967,-5.09669 30.8031,1.08 -14.4661,8.17039 -20.6636,26.3386 -20.6636,26.3386 24.0378,-18.7049 40.5506,-12.8296 40.5506,-12.8296 -16.1594,8.03528 -21.1039,33.548 -21.1039,33.548 27.8069,-24.3666 45.497,-23.6041 45.497,-23.6041 -16.1357,13.3209 -12.4866,44.965 -12.4866,44.965 14.7335,-33.6416 42.4904,-40.0337 42.4904,-40.0337 -7.79339,17.3339 3.15591,43.0772 3.15591,43.0772 0.507402,-25.0346 18.7134,-45.171 27.6501,-53.572 0,0 -2.06646,14.8894 12.6501,31.2728 -5.38299,-23.7392 6.45638,-42.9024 14.2139,-54.0331 12.6369,-15.8872 11.4992,-23.332 11.5002,-23.332z"/>
  <path class="fil5" d="M655.511 -634.704c-5.52945,-13.0422 -13.6469,-13.7046 -20.3443,-27.9638 -3.5622,-7.59496 -2.74299,-15.2702 -2.74299,-15.2702 0.000944882,0 -22.6734,23.7959 -20.3329,50.6693 0.842835,9.7285 7.6063,18.6425 18.5235,20.5729 23.5805,4.16598 30.1757,-15.5537 24.8967,-28.0082z"/>
  <g id="_39301984">
   <path id="_61642768" class="fil6" d="M12.446 1.71118l-3.89008 2.76567 0 -1.21795 -3.49228 0 0 3.7011 -3.80598 2.70709 1.36913 2.4926c0,0 1.59874,-1.13669 1.59874,-1.13669l0 3.67465c0.367559,-0.24 0.925984,-0.444094 1.36063,-0.52252l0 -4.12063 6.85984 -4.87843 6.86079 4.87937 0 8.84882 -2.01921 0 0 -5.15811 -3.8778 0 0 5.15811 -3.97795 0c-0.205984,0.470551 -0.505512,0.928819 -0.852283,1.36063l12.0879 0 0 -9.24189 1.5978 1.13669 1.37008 -2.4926 -11.1893 -7.95591z"/>
   <path id="_39945152" class="fil6" d="M6.15874 15.4025c-0.735118,0 -1.3852,0.359055 -1.78866,0.910866 -0.403465,-0.551811 -1.0526,-0.910866 -1.78866,-0.910866 -1.22362,0 -2.21669,0.992126 -2.21669,2.21669 0,2.19213 4.00535,4.66961 4.00535,4.66961 0,0 4.0063,-2.59843 4.0063,-4.66961 0,-1.22457 -0.992126,-2.21669 -2.21764,-2.21669z"/>
   <polygon id="_61642648" class="fil6" points="11.2866,10.9814 7.83213,10.9814 7.83213,14.4369 11.2866,14.4369 "/>
  </g>
 </g>
 <g id="Layer_x0020_5" visibility="hidden">
  <metadata id="CorelCorpID_4Corel-Layer"/>
  <g id="_61650480">
   <path id="_39996032" class="fil6" d="M12 12c-3.21449,0 -5.82047,2.60504 -5.82047,5.82047 0,3.21354 2.60598,5.82047 5.82047,5.82047 3.21449,0 5.82047,-2.60693 5.82047,-5.82047 0,-3.21449 -2.60598,-5.82047 -5.82047,-5.82047zm3.49228 6.98457l-2.32819 0 0 2.32819 -2.32819 0 0 -2.32819 -2.32819 0 0 -2.32819 2.32819 0 0 -2.32819 2.32819 0 0 2.32819 2.32819 0 0 2.32819z"/>
   <path id="_37647728" class="fil6" d="M22.9587 11.3178c0,-0.000944882 -0.00188976,-0.00188976 -0.00283465,-0.00283465l-2.79874 -2.79874 0 -4.65638 -2.32819 0 0 2.32819 -5.82898 -5.82898 -10.9587 10.9587c-0.908976,0.909921 -0.909921,2.38394 0,3.29291 0.908976,0.908976 2.38299,0.908976 3.29197,0 0.000944882,-0.000944882 0.00188976,-0.00283465 0.00283465,-0.00377953l7.66394 -7.66299 7.66677 7.66677c0.908976,0.908976 2.38299,0.908976 3.29197,0 0.908976,-0.908976 0.908976,-2.38299 0,-3.29291z"/>
  </g>
 </g>
 <g id="Layer_x0020_6" visibility="hidden">
  <metadata id="CorelCorpID_5Corel-Layer"/>
  <path class="fil6" d="M23.0296 11.2252c0,-0.000944882 -0.00188976,-0.00188976 -0.00283465,-0.00283465l-2.81669 -2.81575 0 -4.68472 -2.34236 0 0 2.34236 -5.86394 -5.86488 -11.0258 11.0258c-0.914646,0.915591 -0.915591,2.39811 0,3.3137 0.914646,0.913701 2.39717,0.913701 3.31181,0 0.00188976,-0.000944882 0.00283465,-0.00283465 0.00377953,-0.00377953l7.71024 -7.71118 7.71402 7.71496c0.914646,0.913701 2.39717,0.913701 3.31181,0 0.914646,-0.915591 0.914646,-2.39906 0,-3.3137z"/>
  <g id="_61781312">
   <path id="_61953392" class="fil6" d="M5.19591 16.1802l2.93008 -1.72724 1.33417 2.26394c0.611339,-0.421417 1.50142,-0.620787 2.08252,-0.610394 0.874016,0.016063 1.83307,0.322205 2.23937,0.39874 0.786142,-0.741732 1.18299,-2.21291 0.468661,-3.40441 -0.987402,-1.64409 -2.79874,-1.55339 -3.79559,-0.979843l-5.67874 3.34677c-1.53638,0.96378 -1.62614,2.69858 -0.980787,3.7937 0.872126,1.48063 2.54362,1.71591 3.89764,0.920315 -0.0311811,-0.330709 -0.0103937,-0.654803 0.0614173,-0.984567 -0.99685,0.687874 -2.32441,0.999685 -3.24472,-0.353386 -0.543307,-0.79748 -0.273071,-2.07591 0.685984,-2.66362z"/>
   <path id="_61807864" class="fil6" d="M19.7093 21.4469c-0.328819,1.6063 -1.79055,1.61764 -2.29417,1.51181l-3.33449 -0.691654 0.789921 -3.80693 3.32976 0.691654c1.04315,0.216378 1.72819,1.22835 1.50898,2.29512zm-1.3389 -3.10488l-6.45732 -1.33984c-1.71307,-0.226772 -2.83748,0.537638 -3.27685,2.15244 -0.395906,1.45606 0.582047,2.86016 2.15055,3.27402l6.45638 1.3389c1.12535,0.130394 2.83748,-0.188031 3.27591,-2.15055 0.386457,-1.73386 -0.947717,-3.01039 -2.14866,-3.27496z"/>
  </g>
 </g>
 <g id="Layer_x0020_7" visibility="hidden">
  <metadata id="CorelCorpID_6Corel-Layer"/>
  <g id="_61831896">
   <polygon id="_40079344" class="fil6" points="12.1597,7.95874 11.1071,9.01228 12.0775,9.98173 11.4302,10.629 10.4608,9.65858 9.40724,10.7112 10.3776,11.6816 9.73134,12.3279 8.76094,11.3575 7.70835,12.4101 8.6778,13.3805 8.0315,14.0277 7.0611,13.0573 6.0085,14.1099 9.88913,17.9906 16.0403,11.8403 "/>
   <path id="_61647360" class="fil6" d="M22.1395 5.41701c0.171969,0.171024 0.404409,0.267402 0.647244,0.267402 0.24189,0 0.475276,-0.096378 0.646299,-0.267402l-4.85008 -4.85008c-0.171969,0.171024 -0.268346,0.403465 -0.268346,0.646299 0,0.242835 0.096378,0.475276 0.268346,0.646299l0.161575 0.16252 -2.05134 2.05039 -2.58709 -2.58709 -0.484724 0.484724c-0.268346,0.267402 -0.268346,0.702992 -0.000944882,0.970394l0.485669 0.484724 -9.74835 9.74835c-0.367559,0.367559 -0.496063,0.910866 -0.331654,1.40409l0.944882 2.8337 -0.865512 0.865512c-0.391181,0.391181 -0.43937,0.994961 -0.145512,1.43906l-3.32598 3.32598c-0.0897638,0.0888189 -0.0897638,0.233386 0,0.32315 0.0444094,0.0444094 0.102992,0.0670866 0.161575,0.0670866 0.0585827,0 0.117165,-0.0226772 0.161575,-0.0670866l3.32598 -3.32504c0.190866,0.125669 0.410079,0.188976 0.630236,0.188976 0.292913,0 0.585827,-0.111496 0.808819,-0.335433l0.865512 -0.865512 2.8337 0.944882c0.493228,0.164409 1.03654,0.0359055 1.40409,-0.331654l9.74835 -9.74835 0.484724 0.484724c0.268346,0.268346 0.702992,0.268346 0.970394,0.000944882l0.484724 -0.485669 -2.58614 -2.58709 2.05039 -2.05039 0.161575 0.161575zm-2.74866 -2.74866l0.810709 0.810709 -2.05134 2.05039 -0.809764 -0.810709 2.05039 -2.05039zm-9.27307 16.3871c-0.122835,0.12378 -0.302362,0.165354 -0.468661,0.110551l-4.81606 -4.81701c-0.0548031,-0.165354 -0.0122835,-0.343937 0.110551,-0.467717l9.80976 -9.80882 5.17417 5.17417 -9.80976 9.80882zm9.16252 -12.3959l-0.805984 -0.806929 2.05039 -2.05039 0.806929 0.805984 -2.05134 2.05134z"/>
  </g>
 </g>
 <g id="Layer_x0020_8" visibility="hidden">
  <metadata id="CorelCorpID_7Corel-Layer"/>
  <path class="fil1" d="M32.9858 -0.501732c-1.64693,-0.606614 -3.02646,1.15748 -3.92976,3.09449l-3.66236 7.15087c-0.294803,-0.0217323 -0.562205,-0.055748 -0.793701,-0.142677 -0.153071,-0.0576378 -0.300472,-0.15685 -0.445984,-0.269291l3.32504 -15.3005c0.274961,-1.27748 -0.507402,-2.52661 -1.74047,-2.83181 -1.23591,-0.302362 -2.50961,0.436535 -2.86961,1.69417l-4.42677 14.7742c-0.224882,-0.00283465 -0.464882,-0.0330709 -0.732283,-0.110551 -0.102047,-0.0292913 -0.20315,-0.0888189 -0.305197,-0.168189l1.60724 -18.6293c0.15685,-1.48913 -0.814488,-2.80252 -2.16567,-2.97732 -1.35118,-0.174803 -2.62677,0.847559 -2.85449,2.32724l-2.6315 18.2334c-0.283465,0.164409 -0.544252,0.28252 -0.779528,0.291969 -0.228661,0.00944882 -0.419528,-0.0907087 -0.575433,-0.244724l-0.0831496 -15.4091c0.0500787,-1.42016 -1.04693,-2.60031 -2.44063,-2.6778 -1.39654,-0.0755906 -2.60598,0.980787 -2.71937,2.39622l-0.87874 16.8869c-0.188031,1.59969 -0.627402,3.95906 -1.60157,4.30016 -1.06961,0.374173 -1.80567,-0.108661 -1.81323,-0.113386l-3.56693 -4.46457c-0.786142,-1.43244 -3.92693,-3.11811 -5.93291,-2.72598l-0.174803 0.0623622c-1.53543,0.844724 -0.630236,2.14583 0.157795,3.5811 0,0 2.85354,4.03465 4.9937,8.23937 2.13921,4.20472 4.48157,8.97921 4.48157,8.97921 0.510236,1.32 1.86614,3.51591 3.18709,4.87843 0.616063,-0.531969 0.651024,-0.744567 0.738898,-1.42866 0.12,-0.922205 -0.048189,-2.61732 -0.048189,-2.61732 -0.0925984,-0.846614 -0.305197,-2.76661 -0.52063,-4.51654 -0.284409,-2.33102 -0.933543,-4.70268 -0.933543,-4.70268 -0.12378,-0.805039 -0.325984,-1.56756 0.535748,-1.70079l0.0925984 0c1.00441,0.157795 2.18646,1.48063 2.31118,2.28472l0.908031 2.69386c0.000944882,0.000944882 0.262677,0.354331 0.828661,0.360945 0.513071,0.00661417 1.11969,-1.02142 1.47969,-1.73669l3.28441 -7.74803c0.292913,-0.64252 1.03843,-0.930709 1.67811,-0.657638 0.63874,0.273071 0.950551,1.01102 0.685984,1.66677l-2.58142 7.2189c0.0462992,0.0992126 0.11811,0.178583 0.226772,0.212598 0.112441,0.0359055 0.253228,0.0245669 0.414803,-0.00377953l4.33134 -8.0778c0.35811,-0.653858 1.12819,-0.914646 1.73102,-0.602835 0.60189,0.310866 0.832441,1.09134 0.505512,1.76031l-3.91937 8.4378c0.0340157,0.0538583 0.0699213,0.0992126 0.113386,0.130394 0.113386,0.0822047 0.220157,0.134173 0.325984,0.173858l4.58079 -6.15307c0.381732,-0.527244 1.10362,-0.655748 1.62992,-0.304252 0.524409,0.352441 0.67748,1.06961 0.331654,1.62047l-4.15654 6.58866c0.0491339,0.0774803 0.101102,0.148346 0.16252,0.202205 0.0925984,0.0793701 0.206929,0.144567 0.335433,0.207874l2.11087 -2.25071c0.697323,-0.802205 1.59969,-1.45606 2.30362,-0.939213 0.703937,0.514961 0.0519685,1.71969 -0.455433,2.41134l-1.8378 2.2526 -1.02803 1.36819c0,0 -0.889134,1.25858 -2.01827,2.68441l-0.171969 0.228661c-0.0633071,0.0859843 -0.133228,0.168189 -0.206929,0.244724 -0.459213,0.565984 -0.942992,1.14047 -1.41638,1.65638 -0.913701,0.99874 -3.67181,4.19906 -6.38929,6.94299l15.4224 0c0,0 0.685984,0.132283 0.386457,-1.00535 -0.391181,-1.48157 -0.92126,-5.06835 1.33039,-12.9468 1.00441,-3.5178 1.91055,-6.43559 2.55969,-8.46142 0.794646,-2.34898 1.70551,-5.04 2.07307,-6.12378 0.701102,-2.06173 2.06268,-5.4463 2.06268,-5.4463 0.595276,-1.61669 1.2189,-4.14425 -0.426142,-4.74992z"/>
 </g>
 <g id="Layer_x0020_9" visibility="hidden">
  <metadata id="CorelCorpID_8Corel-Layer"/>
  <g id="_39819344">
   <path id="_39673664" class="fil1" d="M-10.1083 11.16c0.501732,-0.904252 1.32378,-1.55906 2.31685,-1.84252l21.4224 -6.13606c0.19748,0.15685 0.390236,0.328819 0.572598,0.532913 0.617953,1.75181 -0.494173,1.95307 -3.88063,4.28598 -3.70583,2.55024 -4.3285,4.58079 -3.23433,5.96409 1.09512,1.38331 2.96976,0.790866 4.8274,-0.565039 6.37417,-4.65071 13.2879,-6.93071 16.5269,-7.81701l0.153071 -0.0141732 0 -13.0535c-0.137953,-0.0198425 -0.274016,-0.0406299 -0.417638,-0.0472441 -7.92378,-0.405354 -18.1521,0.265512 -18.1521,0.265512 -1.6148,-0.235276 -3.15118,0.986457 -3.15118,0.986457 0,0 -5.96504,5.71559 -10.1386,8.53512l-9.86929 0.410079c-0.509291,0.0217323 -0.908976,0.455433 -0.887244,0.964724l0.84378 20.2781c0.0217323,0.509291 0.455433,0.908976 0.964724,0.887244l4.77165 -0.198425 -3.00567 -10.4939c-0.284409,-0.993071 -0.164409,-2.03717 0.337323,-2.94236z"/>
   <g>
    <path id="_62275512" class="fil1" d="M32.0693 8.63528l-4.08 0 3.29575 11.5087 -8.35181 2.39244c1.16504,-2.26866 1.51181,-4.96346 0.754016,-7.60724 -0.470551,-1.64598 -1.31811,-3.07843 -2.41512,-4.24441 -1.73386,0.789921 -3.57827,1.74614 -5.42268,2.89039l-0.837165 1.46457 -0.170079 -0.096378c-0.222992,-0.128504 -0.433701,-0.219213 -0.63874,-0.292913 -0.303307,0.208819 -0.606614,0.421417 -0.907087,0.64063 -0.27874,0.204094 -0.554646,0.384567 -0.826772,0.553701 0.039685,0.0311811 0.0699213,0.0651969 0.12,0.0944882 0.152126,0.0935433 0.48378,0.219213 1.21984,0.298583 1.14142,0.130394 1.92378,0.288189 2.39433,0.48189 0.473386,0.195591 0.88252,0.48378 1.21512,0.855118 0.331654,0.369449 0.577323,0.827717 0.729449,1.36157 0.153071,0.530079 0.183307,1.0611 0.0907087,1.57795 -0.0916535,0.517795 -0.27874,0.967559 -0.555591,1.33512 -0.254173,0.339213 -0.653858,0.661417 -1.18961,0.96l0.52252 1.82646 -1.63559 0.468661 -0.508346 -1.7726c-0.55937,0.0765354 -1.0715,0.0614173 -1.52598,-0.0434646 -0.668976,-0.154961 -1.33606,-0.430866 -1.98331,-0.819213l-0.15874 -0.096378 1.08472 -2.01638 0.174803 0.104882c1.0148,0.604724 1.88976,0.809764 2.59559,0.607559 0.342047,-0.0982677 0.593386,-0.294803 0.770079,-0.602835 0.175748,-0.307087 0.216378,-0.608504 0.126614,-0.925039 -0.0774803,-0.269291 -0.218268,-0.47622 -0.428031,-0.631181 -0.222992,-0.16063 -0.619843,-0.285354 -1.17732,-0.371339 -1.23307,-0.191811 -2.06362,-0.376063 -2.53795,-0.564094 -0.482835,-0.190866 -0.88252,-0.452598 -1.19055,-0.778583 -0.102992,-0.110551 -0.181417,-0.23622 -0.264567,-0.359055 -0.564094,0.171969 -1.11118,0.258898 -1.63748,0.258898 -1.37953,0 -2.61071,-0.595276 -3.46772,-1.67622 -0.501732,-0.634961 -0.816378,-1.34173 -0.936378,-2.09102 -1.05449,2.21008 -1.35213,4.78961 -0.625512,7.32756 0.75685,2.64472 2.47937,4.74614 4.66772,6.0548l-7.44094 2.13165 -3.93921 -13.7509 7.30205 -2.09102c-0.0292913,-0.350551 -0.0217323,-0.706772 0.0330709,-1.06866 0.181417,-1.2085 0.829606,-2.39339 1.95024,-3.58016l-13.2463 3.7937c-0.489449,0.139843 -0.775748,0.655748 -0.634961,1.14614l5.58898 19.5109c0.0699213,0.245669 0.233386,0.43937 0.44126,0.554646 0.207874,0.115276 0.459213,0.152126 0.704882,0.0812598l36.1285 -10.3483c0.489449,-0.140787 0.775748,-0.655748 0.635906,-1.14614l-3.8126 -13.3087z"/>
    <path id="_39948432" class="fil1" d="M31.9786 -9.47433c0,0 -1.33228,0.141732 -1.41449,1.24819 -0.0812598,3.41386 0,13.4655 0,14.5994 0,1.37764 1.27087,1.61102 1.27087,1.61102l6.18614 0 0 -17.4586 -6.04252 0z"/>
   </g>
  </g>
 </g>
 <g id="Layer_x0020_10" visibility="hidden">
  <metadata id="CorelCorpID_9Corel-Layer"/>
  <path class="fil6" d="M19.2813 2.60504l-1.40976 0 0 1.40882 1.40976 0 0 15.0321 -1.87937 0c-0.777638,0 -1.40882,0.631181 -1.40882,1.40976l0 1.87843 -11.2743 0 0 -18.3203 1.40976 0 0 -1.40882 -1.40976 0c-0.778583,0 -1.40976,0.630236 -1.40976,1.40882l0 18.3203c0,0.778583 0.631181,1.40976 1.40976,1.40976l11.2743 0 4.69701 -4.69795 0 -15.0321c0,-0.778583 -0.631181,-1.40976 -1.40882,-1.40882z"/>
  <polygon class="fil6" points="16.0828,14.0986 11.9367,14.0986 11.9367,12.9978 16.0828,12.9978 "/>
  <path class="fil6" d="M8.2422 0.256063c-0.389291,0 -0.704882,0.314646 -0.704882,0.703937l0 3.05386 1.40882 0 0 -3.05386c0,-0.389291 -0.314646,-0.703937 -0.703937,-0.703937z"/>
  <path class="fil6" d="M15.7578 0.256063c-0.388346,0 -0.704882,0.314646 -0.704882,0.703937l0.000944882 3.05386 1.40882 0 0 -3.05386c0,-0.389291 -0.315591,-0.703937 -0.704882,-0.703937z"/>
  <polygon class="fil6" points="10.3559,4.01386 13.6441,4.01386 13.6441,2.60504 10.3559,2.60504 "/>
  <polygon class="fil6" points="17.6532,10.217 11.9367,10.217 11.9367,9.11622 17.6532,9.11622 "/>
  <polygon class="fil6" points="5.65039,14.1477 6.46961,13.3654 7.69228,14.5767 10.0365,12.2608 10.9002,13.1131 7.7811,16.2926 "/>
  <polygon class="fil6" points="5.70331,10.1102 6.52252,9.32787 7.7452,10.5392 10.0894,8.22331 10.9531,9.07559 7.83402,12.2551 "/>
 </g>
</svg>
