<?xml version="1.0" encoding="utf-8"?>
<!-- Generator: Adobe Illustrator 16.0.0, SVG Export Plug-In . SVG Version: 6.00 Build 0)  -->
<!DOCTYPE svg PUBLIC "-//W3C//DTD SVG 1.1//EN" "http://www.w3.org/Graphics/SVG/1.1/DTD/svg11.dtd">
<svg version="1.1" id="Layer_1" xmlns="http://www.w3.org/2000/svg" xmlns:xlink="http://www.w3.org/1999/xlink" x="0px" y="0px"
	 width="101px" height="101px" viewBox="0 0 101 101" enable-background="new 0 0 101 101" xml:space="preserve">
<circle fill="#EDECED" cx="50.5" cy="50.5" r="50"/>
<g>
	<circle fill="#4CBD95" cx="43.186" cy="27.995" r="5.626"/>
	<g>
		<circle fill="#4CBD95" cx="43.186" cy="61.753" r="2.813"/>
		<path fill="#4CBD95" d="M73.006,68.504h-2.362c-0.736-6.114-5.404-11.035-11.396-12.143c-0.412-1.347-0.969-2.654-1.681-3.888
			c-0.468-0.807-1.502-1.083-2.307-0.615c-0.809,0.466-1.083,1.499-0.617,2.306c1.339,2.313,2.047,4.938,2.047,7.589
			c0,7.446-6.058,13.503-13.504,13.503c-7.445,0-13.503-6.057-13.503-13.503S35.74,48.25,43.186,48.25h15.191
			c0.932,0,1.688-0.756,1.688-1.688c0-0.932-0.756-1.688-1.688-1.688h-6.778c-0.276-4.411-3.932-7.905-8.413-7.905
			c-4.661,0-8.439,3.778-8.439,8.439v1.743c-5.04,2.919-8.439,8.356-8.439,14.603c0,9.32,7.558,16.879,16.879,16.879
			c9.088,0,16.479-7.189,16.844-16.187c2.996,1.297,5.1,4.279,5.1,7.747c0,0.932,0.756,1.688,1.688,1.688h6.189
			c0.932,0,1.688-0.756,1.688-1.688S73.938,68.504,73.006,68.504z"/>
	</g>
</g>
</svg>
