<?xml version="1.0" encoding="utf-8"?>
<!-- Generator: Adobe Illustrator 16.0.0, SVG Export Plug-In . SVG Version: 6.00 Build 0)  -->
<!DOCTYPE svg PUBLIC "-//W3C//DTD SVG 1.1//EN" "http://www.w3.org/Graphics/SVG/1.1/DTD/svg11.dtd">
<svg version="1.1" id="Layer_1" xmlns="http://www.w3.org/2000/svg" xmlns:xlink="http://www.w3.org/1999/xlink" x="0px" y="0px"
	 width="101px" height="101px" viewBox="0 0 101 101" enable-background="new 0 0 101 101" xml:space="preserve">
<circle fill="#FFFFFF" cx="50.5" cy="50.5" r="50"/>
<g>
	<circle fill="#53BCE8" cx="43.389" cy="28.621" r="5.47"/>
	<g>
		<circle fill="#53BCE8" cx="43.389" cy="61.439" r="2.735"/>
		<path fill="#53BCE8" d="M72.38,68.004h-2.296c-0.716-5.944-5.254-10.729-11.08-11.806c-0.4-1.31-0.942-2.581-1.635-3.779
			c-0.454-0.784-1.459-1.054-2.242-0.599c-0.785,0.453-1.053,1.457-0.6,2.241c1.302,2.25,1.989,4.802,1.989,7.378
			c0,7.239-5.889,13.128-13.127,13.128s-13.128-5.889-13.128-13.128c0-7.238,5.889-13.127,13.128-13.127h14.769
			c0.905,0,1.641-0.735,1.641-1.641c0-0.906-0.735-1.641-1.641-1.641h-6.59c-0.27-4.289-3.823-7.686-8.179-7.686
			c-4.531,0-8.205,3.673-8.205,8.205v1.694c-4.9,2.837-8.205,8.124-8.205,14.196c0,9.062,7.348,16.41,16.41,16.41
			c8.835,0,16.02-6.989,16.375-15.736c2.912,1.26,4.957,4.159,4.957,7.531c0,0.906,0.735,1.641,1.641,1.641h6.018
			c0.905,0,1.641-0.734,1.641-1.641S73.285,68.004,72.38,68.004z"/>
	</g>
</g>
</svg>
