<?xml version="1.0" encoding="utf-8"?>
<!-- Generator: Adobe Illustrator 16.0.0, SVG Export Plug-In . SVG Version: 6.00 Build 0)  -->
<!DOCTYPE svg PUBLIC "-//W3C//DTD SVG 1.1//EN" "http://www.w3.org/Graphics/SVG/1.1/DTD/svg11.dtd">
<svg version="1.1" id="Layer_1" xmlns="http://www.w3.org/2000/svg" xmlns:xlink="http://www.w3.org/1999/xlink" x="0px" y="0px"
	 width="64px" height="64px" viewBox="0 0 64 64" enable-background="new 0 0 64 64" xml:space="preserve">
<circle fill="#26AAE2" cx="32" cy="32" r="31.519"/>
<g>
	<path fill="#FDFDFE" d="M18.993,31.506c0.295-0.533,0.78-0.917,1.364-1.084l12.603-3.61c0.117,0.091,0.231,0.193,0.337,0.313
		c0.363,1.031-0.291,1.149-2.284,2.521c-2.18,1.501-2.546,2.695-1.902,3.509c0.644,0.813,1.747,0.465,2.839-0.333
		c3.752-2.736,7.819-4.078,9.724-4.6l0.09-0.008v-7.68c-0.08-0.012-0.16-0.024-0.244-0.028c-4.663-0.238-10.681,0.157-10.681,0.157
		c-0.95-0.138-1.854,0.58-1.854,0.58s-3.51,3.362-5.964,5.021l-5.807,0.241c-0.299,0.013-0.534,0.268-0.522,0.567l0.497,11.93
		c0.012,0.3,0.268,0.534,0.567,0.522l2.807-0.117l-1.768-6.175C18.627,32.653,18.697,32.039,18.993,31.506z"/>
	<path fill="#FDFDFE" d="M43.808,30.021h-2.4l1.938,6.77l-4.912,1.408c0.686-1.336,0.89-2.92,0.443-4.477
		c-0.277-0.967-0.774-1.81-1.42-2.496c-1.021,0.465-2.105,1.026-3.19,1.701l-0.493,0.86l-0.1-0.057
		c-0.132-0.075-0.255-0.129-0.376-0.172c-0.178,0.124-0.356,0.248-0.535,0.377c-0.164,0.12-0.325,0.226-0.486,0.326
		c0.024,0.018,0.042,0.038,0.072,0.056c0.089,0.055,0.284,0.127,0.717,0.175c0.671,0.076,1.132,0.17,1.409,0.285
		c0.278,0.114,0.52,0.284,0.715,0.502s0.34,0.486,0.43,0.801c0.088,0.312,0.107,0.625,0.054,0.929s-0.164,0.569-0.327,0.785
		c-0.15,0.199-0.386,0.39-0.7,0.564l0.307,1.074l-0.962,0.276l-0.298-1.043c-0.33,0.045-0.631,0.036-0.899-0.025
		c-0.394-0.092-0.786-0.253-1.167-0.481l-0.094-0.057l0.638-1.188l0.104,0.062c0.597,0.356,1.112,0.478,1.527,0.358
		c0.201-0.058,0.351-0.174,0.455-0.355c0.103-0.18,0.127-0.357,0.072-0.543c-0.045-0.159-0.127-0.28-0.25-0.372
		c-0.132-0.095-0.366-0.168-0.693-0.218c-0.727-0.113-1.215-0.223-1.494-0.333c-0.284-0.111-0.519-0.268-0.7-0.458
		c-0.061-0.064-0.107-0.14-0.156-0.21c-0.333,0.102-0.655,0.151-0.964,0.151c-0.811,0-1.535-0.35-2.04-0.985
		c-0.295-0.376-0.48-0.789-0.551-1.231c-0.619,1.3-0.795,2.818-0.368,4.311c0.446,1.555,1.459,2.793,2.747,3.561l-4.378,1.255
		l-2.317-8.09l4.295-1.229c-0.017-0.206-0.013-0.417,0.02-0.63c0.107-0.71,0.488-1.409,1.148-2.105l-7.793,2.231
		c-0.288,0.083-0.457,0.386-0.374,0.675l3.288,11.478c0.042,0.144,0.138,0.258,0.26,0.326c0.122,0.067,0.27,0.089,0.414,0.048
		l21.256-6.087c0.288-0.084,0.456-0.388,0.373-0.675L43.808,30.021z"/>
	<path fill="#FDFDFE" d="M43.755,19.367c0,0-0.785,0.083-0.833,0.734c-0.047,2.008,0,7.922,0,8.589c0,0.81,0.748,0.948,0.748,0.948
		h3.639V19.367H43.755z"/>
</g>
</svg>
