<?xml version="1.0" encoding="utf-8"?>
<!-- Generator: Adobe Illustrator 16.0.0, SVG Export Plug-In . SVG Version: 6.00 Build 0)  -->
<!DOCTYPE svg PUBLIC "-//W3C//DTD SVG 1.1//EN" "http://www.w3.org/Graphics/SVG/1.1/DTD/svg11.dtd">
<svg version="1.1" id="Layer_1" xmlns="http://www.w3.org/2000/svg" xmlns:xlink="http://www.w3.org/1999/xlink" x="0px" y="0px"
	 width="64px" height="64px" viewBox="0 0 64 64" enable-background="new 0 0 64 64" xml:space="preserve">
<circle fill="#25AAE1" cx="32" cy="32" r="31.259"/>
<g display="none">
	<path display="inline" fill="#FFFFFF" d="M47.064,23.79c-9.789-3.978-26.141-5.155-29.94,1.158
		c-0.573,0.952-0.826,2.569,0.85,4.557c0.183,0.218,0.509,0.2,0.721-0.047c3.625-4.226,8.185-5.589,28.167-4.926
		C47.376,24.549,47.453,23.947,47.064,23.79z"/>
	<path display="inline" fill="#FFFFFF" d="M44.208,30.362c-5.727,6.775-14.914,2.71-17.933,1.626
		c-3.021-1.084-4.53,1.536-4.53,1.536c1.708-0.801,2.823-0.595,3.971,0.126c-1.864,0.952-2.664,3.069-2.664,3.069
		c3.099-2.18,5.228-1.495,5.228-1.495c-2.083,0.938-2.721,3.912-2.721,3.912c3.585-2.841,5.865-2.753,5.865-2.753
		c-2.079,1.554-1.609,5.243-1.609,5.243c1.899-3.923,5.478-4.667,5.478-4.667c-1.005,2.021,0.407,5.02,0.407,5.02
		c0.064-2.917,2.412-5.265,3.563-6.243c0,0-0.266,1.735,1.633,3.646c-0.694-2.768,0.832-5.002,1.833-6.299
		C44.354,31.23,44.208,30.362,44.208,30.362z"/>
	<path display="inline" fill="#FFFFFF" d="M23.094,40.158c-0.713-1.521-1.759-1.597-2.623-3.26
		c-0.459-0.885-0.354-1.779-0.354-1.779s-2.922,2.773-2.621,5.906c0.109,1.134,0.98,2.174,2.388,2.398
		C22.924,43.911,23.774,41.611,23.094,40.158z"/>
</g>
<g display="none">
	<g display="inline">
		<path fill="#FCFCFC" d="M48.065,36.492c-0.439-0.255-0.954-0.182-1.2,0.338c-0.832,1.753-1.514,2.804-2.88,4.234
			c-1.159,1.212-2.428,1.873-4.066,2.013c-0.526,0.045-0.585-0.184-0.263-0.404c1.382-0.939,2.276-1.807,3.109-2.897
			c0.468-0.611,0.746-1.211,0.536-1.662c-0.314-0.681-1.364-0.637-2.126,0.154c-0.328,0.339-1.364,1.083-2.096,1.529
			c-0.447,0.271-1.921,1.023-2.429,1.147l-1.269,0.495c-0.816,0.294-1.571,0.67-2.024,1.455c-0.847,1.465-0.392,3.425,1.123,4.185
			c0.873,0.439,1.703,0.531,2.749,0.289c2.059-0.475,3.726-1.008,5.126-1.686c1.166-0.563,2.286-1.509,3.021-2.454
			c0.283-0.365,0.637-0.917,0.901-1.296c0.904-1.291,1.62-2.848,2.062-4.229C48.494,37.221,48.505,36.743,48.065,36.492z"/>
		<path fill="#FCFCFC" d="M15.934,36.491c0.44-0.254,0.954-0.181,1.201,0.339c0.831,1.753,1.512,2.804,2.879,4.233
			c1.158,1.212,2.428,1.873,4.066,2.013c0.524,0.046,0.585-0.184,0.263-0.403c-1.382-0.941-2.277-1.808-3.11-2.897
			c-0.467-0.612-0.745-1.211-0.535-1.663c0.313-0.68,1.364-0.636,2.125,0.155c0.327,0.339,1.364,1.082,2.096,1.528
			c0.447,0.271,1.92,1.024,2.429,1.147l1.269,0.495c0.815,0.295,1.571,0.671,2.024,1.455c0.846,1.464,0.391,3.426-1.123,4.186
			c-0.874,0.439-1.704,0.531-2.75,0.289c-2.058-0.475-3.725-1.008-5.126-1.687c-1.165-0.563-2.284-1.509-3.019-2.453
			c-0.282-0.366-0.637-0.917-0.903-1.296c-0.902-1.291-1.618-2.848-2.06-4.229C15.506,37.221,15.496,36.743,15.934,36.491z"/>
	</g>
	<g display="inline">
		<circle fill="#FCFCFC" cx="32" cy="18.698" r="2.198"/>
		<g>
			<path fill="#FCFCFC" d="M40.088,21.995H23.912c-0.607,0-1.099,0.493-1.099,1.099c0,0.607,0.492,1.099,1.099,1.099h4.675
				c0.863,2.457,0.608,4.921-0.846,7.442l-2.6,4.505c-0.379,0.657-0.154,1.497,0.502,1.876c0.217,0.125,0.453,0.186,0.686,0.186
				c0.474,0,0.936-0.248,1.19-0.688l4.005-6.937c0.099-0.169,0.279-0.275,0.476-0.275s0.378,0.105,0.476,0.275l4.006,6.937
				c0.255,0.44,0.716,0.688,1.19,0.688c0.233,0,0.47-0.061,0.686-0.186c0.657-0.379,0.881-1.219,0.503-1.876l-2.599-4.5
				c-1.457-2.523-1.713-4.99-0.849-7.447h4.675c0.607,0,1.099-0.492,1.099-1.099C41.187,22.488,40.695,21.995,40.088,21.995z
				 M31.997,27.373c-0.811-0.482-2.477-1.728-2.477-2.973c0-0.637,0.518-1.155,1.154-1.155c0.446,0,0.855,0.26,1.043,0.664
				l0.28,0.596l0.282-0.595c0.191-0.403,0.601-0.665,1.046-0.665c0.637,0,1.155,0.519,1.155,1.155
				C34.48,25.774,32.552,27.037,31.997,27.373z"/>
		</g>
	</g>
</g>
<g display="none">
	<path display="inline" fill="#FFFFFF" d="M47.701,38.448c-0.254-1.785-1.419-3.333-2.738-4.557v-0.096h-0.104
		c-1.195-1.088-2.497-1.91-3.354-2.395c-1.421-0.839-3.276-1.439-5.554-2.265l0.012-0.001c-2.488-0.862-1.681-2.406-1.315-2.977
		c0.071-0.062,0.142-0.12,0.207-0.188c2.083-2.131,3.824-10.336-2.853-10.336s-4.938,8.205-2.854,10.336
		c0.065,0.068,0.137,0.127,0.206,0.188c0.365,0.57,1.175,2.114-1.315,2.977l0.012,0.001c-2.276,0.825-4.132,1.426-5.554,2.265
		c-0.857,0.484-2.159,1.307-3.354,2.395h-0.065v0.061c-1.335,1.229-2.521,2.788-2.778,4.592c-0.215,1.507,0.391,5.647,2.659,7.3
		c0.039,0.056,0.078,0.11,0.12,0.16v2.457h25.886V45.86c0.028-0.038,0.055-0.073,0.08-0.11
		C47.312,44.096,47.917,39.955,47.701,38.448z M43.479,39.824c-1.22,0.033-2.204,1.548-2.204,3.414c0,1.868,0.984,3.384,2.204,3.419
		v0.223H20.561v-0.227c1.203-0.067,2.164-1.567,2.164-3.415c0-1.846-0.961-3.346-2.164-3.412v-4.545h22.919V39.824z"/>
	<rect x="23.453" y="43.238" display="inline" fill="#FFFFFF" width="17.135" height="1.448"/>
	<rect x="23.453" y="37.566" display="inline" fill="#FFFFFF" width="7.675" height="3.66"/>
</g>
<path display="none" fill="#FFFFFF" d="M45.976,23.674c-1.097-0.403-2.014,0.771-2.615,2.061l-2.44,4.762
	c-0.195-0.014-0.375-0.037-0.528-0.095c-0.102-0.039-0.199-0.104-0.297-0.179l2.213-10.19c0.186-0.85-0.337-1.682-1.158-1.886
	c-0.822-0.202-1.672,0.291-1.911,1.128l-2.947,9.839c-0.15-0.002-0.31-0.022-0.488-0.074c-0.068-0.019-0.135-0.059-0.204-0.112
	l1.071-12.406c0.104-0.992-0.542-1.867-1.442-1.983s-1.749,0.565-1.901,1.55l-1.752,12.143c-0.189,0.109-0.362,0.188-0.52,0.194
	c-0.152,0.007-0.278-0.06-0.384-0.163l-0.055-10.262c0.033-0.945-0.697-1.731-1.626-1.783c-0.929-0.05-1.735,0.653-1.81,1.596
	l-0.585,11.247c-0.125,1.066-0.418,2.637-1.066,2.864c-0.713,0.249-1.203-0.072-1.208-0.076l-2.375-2.973
	c-0.523-0.954-2.615-2.077-3.951-1.815l-0.117,0.041c-1.022,0.563-0.419,1.429,0.106,2.385c0,0,1.9,2.687,3.325,5.488
	c1.425,2.8,2.985,5.979,2.985,5.979c0.34,0.879,1.243,2.342,2.123,3.25c0.411-0.354,0.433-0.496,0.492-0.952
	c0.079-0.614-0.033-1.743-0.033-1.743c-0.062-0.564-0.203-1.843-0.346-3.008c-0.19-1.553-0.621-3.132-0.621-3.132
	c-0.083-0.536-0.218-1.044,0.356-1.134l0.062,0.001c0.669,0.104,1.456,0.986,1.539,1.521l0.605,1.793
	c0,0.001,0.174,0.237,0.552,0.241c0.342,0.005,0.745-0.68,0.985-1.156l2.187-5.161c0.195-0.428,0.692-0.62,1.118-0.438
	c0.425,0.182,0.634,0.674,0.456,1.11l-1.719,4.809c0.031,0.064,0.078,0.117,0.152,0.141c0.073,0.023,0.168,0.017,0.274-0.003
	l2.885-5.38c0.238-0.435,0.753-0.608,1.153-0.401c0.401,0.208,0.555,0.727,0.338,1.172l-2.611,5.621
	c0.022,0.035,0.047,0.065,0.075,0.087c0.076,0.054,0.147,0.088,0.217,0.115l3.052-4.099c0.254-0.35,0.735-0.436,1.086-0.201
	c0.349,0.234,0.451,0.712,0.221,1.079l-2.769,4.387c0.033,0.053,0.066,0.1,0.108,0.135c0.061,0.054,0.138,0.097,0.223,0.139
	l1.406-1.499c0.464-0.534,1.065-0.969,1.534-0.624c0.469,0.343,0.035,1.145-0.303,1.605l-1.225,1.501l-0.685,0.91
	c0,0-0.593,0.838-1.345,1.788l-0.113,0.151c-0.043,0.058-0.089,0.112-0.139,0.163c-0.306,0.378-0.628,0.76-0.942,1.104
	c-0.609,0.666-2.445,2.797-4.256,4.624h10.271c0,0,0.457,0.088,0.258-0.67c-0.261-0.986-0.613-3.376,0.886-8.622
	c0.669-2.342,1.272-4.286,1.706-5.636c0.528-1.564,1.134-3.356,1.38-4.079c0.466-1.373,1.373-3.627,1.373-3.627
	C46.656,25.761,47.072,24.077,45.976,23.674z"/>
<g display="none">
	<path display="inline" fill="#FCFDFF" d="M18.993,31.506c0.295-0.533,0.78-0.917,1.364-1.084l12.603-3.61
		c0.117,0.091,0.231,0.193,0.337,0.313c0.363,1.031-0.291,1.149-2.284,2.521c-2.18,1.501-2.546,2.695-1.902,3.509
		c0.644,0.813,1.747,0.465,2.839-0.333c3.752-2.736,7.819-4.078,9.724-4.6l0.09-0.008v-7.68c-0.08-0.012-0.16-0.024-0.244-0.028
		c-4.663-0.238-10.681,0.157-10.681,0.157c-0.95-0.138-1.854,0.58-1.854,0.58s-3.51,3.362-5.964,5.021l-5.807,0.241
		c-0.299,0.013-0.534,0.268-0.522,0.567l0.497,11.93c0.012,0.3,0.268,0.534,0.567,0.522l2.807-0.117l-1.768-6.175
		C18.627,32.653,18.697,32.039,18.993,31.506z"/>
	<path display="inline" fill="#FCFDFF" d="M43.808,30.021h-2.4l1.938,6.77l-4.912,1.408c0.686-1.336,0.89-2.92,0.443-4.477
		c-0.277-0.967-0.774-1.81-1.42-2.496c-1.021,0.465-2.105,1.026-3.19,1.701l-0.493,0.86l-0.1-0.057
		c-0.132-0.075-0.255-0.129-0.376-0.172c-0.178,0.124-0.356,0.248-0.535,0.377c-0.164,0.12-0.325,0.226-0.486,0.326
		c0.024,0.018,0.042,0.038,0.072,0.056c0.089,0.055,0.284,0.127,0.717,0.175c0.671,0.076,1.132,0.17,1.409,0.285
		c0.278,0.114,0.52,0.284,0.715,0.502s0.34,0.486,0.43,0.801c0.088,0.312,0.107,0.625,0.054,0.929s-0.164,0.569-0.327,0.785
		c-0.15,0.199-0.386,0.39-0.7,0.564l0.307,1.074l-0.962,0.276l-0.298-1.043c-0.33,0.045-0.631,0.036-0.899-0.025
		c-0.394-0.092-0.786-0.253-1.167-0.481l-0.094-0.057l0.638-1.188l0.104,0.062c0.597,0.356,1.112,0.478,1.527,0.358
		c0.201-0.058,0.351-0.174,0.455-0.355c0.103-0.18,0.127-0.357,0.072-0.543c-0.045-0.159-0.127-0.28-0.25-0.372
		c-0.132-0.095-0.366-0.168-0.693-0.218c-0.727-0.113-1.215-0.223-1.494-0.333c-0.284-0.111-0.519-0.268-0.7-0.458
		c-0.061-0.064-0.107-0.14-0.156-0.21c-0.333,0.102-0.655,0.151-0.964,0.151c-0.811,0-1.535-0.35-2.04-0.985
		c-0.295-0.376-0.48-0.789-0.551-1.231c-0.619,1.3-0.795,2.818-0.368,4.311c0.446,1.555,1.459,2.793,2.747,3.561l-4.378,1.255
		l-2.317-8.09l4.295-1.229c-0.017-0.206-0.013-0.417,0.02-0.63c0.107-0.71,0.488-1.409,1.148-2.105l-7.793,2.231
		c-0.288,0.083-0.457,0.386-0.374,0.675l3.288,11.478c0.042,0.144,0.138,0.258,0.26,0.326c0.122,0.067,0.27,0.089,0.414,0.048
		l21.256-6.087c0.288-0.084,0.456-0.388,0.373-0.675L43.808,30.021z"/>
	<path display="inline" fill="#FCFDFF" d="M43.755,19.367c0,0-0.785,0.083-0.833,0.734c-0.047,2.008,0,7.922,0,8.589
		c0,0.81,0.748,0.948,0.748,0.948h3.639V19.367H43.755z"/>
</g>
<g>
	<path fill="#FFFFFF" d="M42.007,34.573c-3.581,1.108-3.329,1.636-6.761,2.954c-1.852,0.712-3.892,1.181-5.288-0.375
		c-0.43-1.218,0.345-1.358,2.701-2.981c2.578-1.776,3.011-3.188,2.25-4.151c-0.761-0.962-2.066-0.551-3.358,0.394
		c-4.436,3.237-9.248,4.823-11.501,5.439l-0.106,0.013v9.083c0.095,0.014,0.189,0.027,0.29,0.032
		c5.515,0.282,12.633-0.185,12.633-0.185c1.124,0.164,2.192-0.687,2.192-0.687s5.466-5.237,8.241-6.657
		c2.775-1.419,2.602-1.405,2.755-1.923C46.358,34.495,44.205,33.892,42.007,34.573z"/>
	<path fill="#FFFFFF" d="M17.687,34.182h-4.304v12.152h4.205c0,0,0.928-0.1,0.984-0.869c0.056-2.378,0-9.373,0-10.161
		C18.571,34.344,17.687,34.182,17.687,34.182z"/>
	<path fill="#FFFFFF" d="M46.985,17.748c-3.602-0.671-4.654,3.003-4.654,3.003s-1.053-3.674-4.653-3.003
		c-2.349,0.438-3.622,2.255-3.634,4.477c-0.027,5.728,8.287,9.812,8.287,9.812s8.316-4.084,8.286-9.812
		C50.606,20.003,49.333,18.186,46.985,17.748z"/>
</g>
</svg>
