<?xml version="1.0" encoding="utf-8"?>
<!-- Generator: Adobe Illustrator 16.0.0, SVG Export Plug-In . SVG Version: 6.00 Build 0)  -->
<!DOCTYPE svg PUBLIC "-//W3C//DTD SVG 1.1//EN" "http://www.w3.org/Graphics/SVG/1.1/DTD/svg11.dtd">
<svg version="1.1" id="Layer_1" xmlns="http://www.w3.org/2000/svg" xmlns:xlink="http://www.w3.org/1999/xlink" x="0px" y="0px"
	 width="64px" height="64px" viewBox="0 0 64 64" enable-background="new 0 0 64 64" xml:space="preserve">
<circle fill="#26AAE2" cx="32" cy="32" r="31.52"/>
<g display="none">
	<path display="inline" fill="#FDFDFE" d="M18.993,31.506c0.295-0.533,0.78-0.917,1.364-1.084l12.603-3.61
		c0.117,0.091,0.231,0.193,0.337,0.313c0.363,1.031-0.291,1.149-2.284,2.521c-2.18,1.501-2.546,2.695-1.902,3.509
		c0.644,0.813,1.747,0.465,2.839-0.333c3.752-2.736,7.819-4.078,9.724-4.6l0.09-0.008v-7.68c-0.08-0.012-0.16-0.024-0.244-0.028
		c-4.663-0.238-10.681,0.157-10.681,0.157c-0.95-0.138-1.854,0.58-1.854,0.58s-3.51,3.362-5.964,5.021l-5.807,0.241
		c-0.299,0.013-0.534,0.268-0.522,0.567l0.497,11.93c0.012,0.3,0.268,0.534,0.567,0.522l2.807-0.117l-1.768-6.175
		C18.627,32.653,18.697,32.039,18.993,31.506z"/>
	<path display="inline" fill="#FDFDFE" d="M43.808,30.021h-2.4l1.938,6.77l-4.912,1.408c0.686-1.336,0.89-2.92,0.443-4.477
		c-0.277-0.967-0.774-1.81-1.42-2.496c-1.021,0.465-2.105,1.026-3.19,1.701l-0.493,0.86l-0.1-0.057
		c-0.132-0.075-0.255-0.129-0.376-0.172c-0.178,0.124-0.356,0.248-0.535,0.377c-0.164,0.12-0.325,0.226-0.486,0.326
		c0.024,0.018,0.042,0.038,0.072,0.056c0.089,0.055,0.284,0.127,0.717,0.175c0.671,0.076,1.132,0.17,1.409,0.285
		c0.278,0.114,0.52,0.284,0.715,0.502s0.34,0.486,0.43,0.801c0.088,0.312,0.107,0.625,0.054,0.929s-0.164,0.569-0.327,0.785
		c-0.15,0.199-0.386,0.39-0.7,0.564l0.307,1.074l-0.962,0.276l-0.298-1.043c-0.33,0.045-0.631,0.036-0.899-0.025
		c-0.394-0.092-0.786-0.253-1.167-0.481l-0.094-0.057l0.638-1.188l0.104,0.062c0.597,0.356,1.112,0.478,1.527,0.358
		c0.201-0.058,0.351-0.174,0.455-0.355c0.103-0.18,0.127-0.357,0.072-0.543c-0.045-0.159-0.127-0.28-0.25-0.372
		c-0.132-0.095-0.366-0.168-0.693-0.218c-0.727-0.113-1.215-0.223-1.494-0.333c-0.284-0.111-0.519-0.268-0.7-0.458
		c-0.061-0.064-0.107-0.14-0.156-0.21c-0.333,0.102-0.655,0.151-0.964,0.151c-0.811,0-1.535-0.35-2.04-0.985
		c-0.295-0.376-0.48-0.789-0.551-1.231c-0.619,1.3-0.795,2.818-0.368,4.311c0.446,1.555,1.459,2.793,2.747,3.561l-4.378,1.255
		l-2.317-8.09l4.295-1.229c-0.017-0.206-0.013-0.417,0.02-0.63c0.107-0.71,0.488-1.409,1.148-2.105l-7.793,2.231
		c-0.288,0.083-0.457,0.386-0.374,0.675l3.288,11.478c0.042,0.144,0.138,0.258,0.26,0.326c0.122,0.067,0.27,0.089,0.414,0.048
		l21.256-6.087c0.288-0.084,0.456-0.388,0.373-0.675L43.808,30.021z"/>
	<path display="inline" fill="#FDFDFE" d="M43.755,19.367c0,0-0.785,0.083-0.833,0.734c-0.047,2.008,0,7.922,0,8.589
		c0,0.81,0.748,0.948,0.748,0.948h3.639V19.367H43.755z"/>
</g>
<path display="none" fill="#FFFFFF" d="M45.976,23.674c-1.097-0.403-2.014,0.771-2.615,2.061l-2.44,4.762
	c-0.195-0.014-0.375-0.037-0.528-0.095c-0.102-0.039-0.199-0.104-0.297-0.179l2.213-10.19c0.186-0.85-0.337-1.682-1.158-1.886
	c-0.822-0.202-1.672,0.291-1.911,1.128l-2.947,9.839c-0.15-0.002-0.31-0.022-0.488-0.074c-0.068-0.019-0.135-0.059-0.204-0.112
	l1.071-12.406c0.104-0.992-0.542-1.867-1.442-1.983s-1.749,0.565-1.901,1.55l-1.751,12.143c-0.19,0.109-0.363,0.188-0.52,0.194
	c-0.153,0.007-0.279-0.06-0.384-0.163l-0.055-10.262c0.033-0.945-0.697-1.731-1.626-1.783c-0.929-0.05-1.735,0.653-1.81,1.596
	l-0.585,11.247c-0.125,1.066-0.418,2.637-1.066,2.864c-0.713,0.249-1.203-0.072-1.208-0.076l-2.375-2.973
	c-0.523-0.954-2.615-2.077-3.951-1.815l-0.117,0.041c-1.022,0.563-0.419,1.429,0.106,2.385c0,0,1.9,2.687,3.325,5.488
	c1.425,2.8,2.985,5.979,2.985,5.979c0.34,0.879,1.243,2.342,2.123,3.25c0.411-0.354,0.433-0.496,0.492-0.952
	c0.079-0.614-0.033-1.743-0.033-1.743c-0.062-0.564-0.203-1.843-0.346-3.008c-0.19-1.553-0.621-3.132-0.621-3.132
	c-0.083-0.536-0.218-1.044,0.356-1.134l0.062,0.001c0.669,0.104,1.456,0.986,1.539,1.521l0.605,1.793
	c0,0.001,0.174,0.237,0.552,0.241c0.341,0.005,0.745-0.68,0.985-1.156l2.187-5.161c0.195-0.428,0.692-0.62,1.118-0.438
	c0.425,0.182,0.634,0.674,0.456,1.11l-1.719,4.809c0.031,0.064,0.079,0.117,0.152,0.141c0.074,0.023,0.168,0.017,0.275-0.003
	l2.885-5.38c0.238-0.435,0.753-0.608,1.153-0.401c0.401,0.208,0.555,0.727,0.338,1.172l-2.611,5.621
	c0.022,0.035,0.047,0.065,0.075,0.087c0.076,0.054,0.147,0.088,0.217,0.115l3.052-4.099c0.254-0.35,0.735-0.436,1.086-0.201
	c0.349,0.234,0.451,0.712,0.221,1.079l-2.769,4.387c0.033,0.053,0.066,0.1,0.108,0.135c0.061,0.054,0.138,0.097,0.223,0.139
	l1.406-1.499c0.464-0.534,1.065-0.969,1.534-0.624c0.469,0.343,0.035,1.145-0.303,1.605l-1.225,1.501l-0.685,0.91
	c0,0-0.593,0.838-1.345,1.788l-0.113,0.151c-0.043,0.058-0.089,0.112-0.139,0.163c-0.306,0.378-0.628,0.76-0.942,1.104
	c-0.609,0.666-2.446,2.797-4.255,4.624h10.27c0,0,0.457,0.088,0.258-0.67c-0.261-0.986-0.613-3.376,0.886-8.622
	c0.669-2.342,1.272-4.286,1.706-5.636c0.528-1.564,1.134-3.356,1.38-4.079c0.466-1.373,1.373-3.627,1.373-3.627
	C46.656,25.761,47.072,24.077,45.976,23.674z"/>
<g>
	<path fill="#FFFFFF" d="M47.701,38.448c-0.254-1.785-1.419-3.333-2.738-4.557v-0.096h-0.104c-1.195-1.088-2.497-1.91-3.354-2.395
		c-1.421-0.839-3.276-1.439-5.554-2.265l0.012-0.001c-2.488-0.862-1.681-2.406-1.315-2.977c0.071-0.062,0.142-0.12,0.207-0.188
		c2.083-2.131,3.824-10.336-2.853-10.336s-4.938,8.205-2.854,10.336c0.065,0.068,0.137,0.127,0.206,0.188
		c0.365,0.57,1.175,2.114-1.315,2.977l0.012,0.001c-2.276,0.825-4.132,1.426-5.554,2.265c-0.857,0.484-2.159,1.307-3.354,2.395
		h-0.065v0.061c-1.335,1.229-2.521,2.788-2.778,4.592c-0.215,1.507,0.391,5.647,2.659,7.3c0.039,0.056,0.078,0.11,0.12,0.16v2.457
		h25.886V45.86c0.028-0.038,0.055-0.073,0.08-0.11C47.312,44.096,47.917,39.955,47.701,38.448z M43.479,39.824
		c-1.22,0.033-2.204,1.548-2.204,3.414c0,1.868,0.984,3.384,2.204,3.419v0.223H20.561v-0.227c1.203-0.067,2.164-1.567,2.164-3.415
		c0-1.846-0.961-3.346-2.164-3.412v-4.545h22.919V39.824z"/>
	<rect x="23.453" y="43.238" fill="#FFFFFF" width="17.135" height="1.448"/>
	<rect x="23.453" y="37.566" fill="#FFFFFF" width="7.675" height="3.66"/>
</g>
</svg>
