<?xml version="1.0" encoding="utf-8"?>
<!-- Generator: Adobe Illustrator 16.0.0, SVG Export Plug-In . SVG Version: 6.00 Build 0)  -->
<!DOCTYPE svg PUBLIC "-//W3C//DTD SVG 1.1//EN" "http://www.w3.org/Graphics/SVG/1.1/DTD/svg11.dtd">
<svg version="1.1" id="Layer_1" xmlns="http://www.w3.org/2000/svg" xmlns:xlink="http://www.w3.org/1999/xlink" x="0px" y="0px"
	 width="24px" height="28px" viewBox="0 0 24 28" enable-background="new 0 0 24 28" xml:space="preserve">
<path fill="#424242" d="M23.265,11.201l-0.095-0.033c-1.081-0.212-2.775,0.698-3.199,1.47l-1.925,2.409
	c-0.003,0.002-0.399,0.263-0.977,0.061c-0.525-0.184-0.763-1.456-0.864-2.319L15.73,3.679c-0.06-0.763-0.713-1.333-1.466-1.292
	c-0.752,0.042-1.343,0.679-1.316,1.444l-0.045,8.311c-0.085,0.083-0.187,0.138-0.311,0.133c-0.127-0.005-0.267-0.07-0.42-0.158
	l-1.42-9.834c-0.123-0.798-0.81-1.35-1.539-1.255C8.485,1.122,7.96,1.83,8.045,2.633l0.867,10.048
	c-0.055,0.043-0.109,0.075-0.165,0.091c-0.145,0.042-0.274,0.058-0.395,0.059L5.965,4.863C5.771,4.185,5.084,3.786,4.417,3.949
	C3.752,4.114,3.33,4.788,3.479,5.477l1.793,8.253c-0.078,0.061-0.158,0.114-0.241,0.145c-0.143,0.055-0.309,0.077-0.491,0.095
	l-1.558-3.041C2.495,9.883,1.751,8.932,0.863,9.259c-0.888,0.326-0.569,1.777-0.248,2.649l1.24,2.897l0.51,1.528
	c0.444,1.485,1.37,4.478,2.18,6.438c1.068,2.581,2.213,3.842,4.533,4.136c2.453,0.312,5.077-0.358,6.547-1.284
	c0.223-0.105,0.467-0.305,0.714-0.56c0.028-0.028,0.056-0.056,0.081-0.085c0.689-0.739,1.383-1.868,1.648-2.558
	c0,0,1.264-2.574,2.417-4.842c1.154-2.269,2.693-4.445,2.693-4.445C23.604,12.359,24.093,11.657,23.265,11.201z M10.573,23.926
	c0,0-4.69-2.303-4.673-5.534c0.007-1.252,0.724-2.276,2.048-2.524c2.031-0.378,2.625,1.693,2.625,1.693s0.594-2.071,2.625-1.693
	c1.324,0.248,2.042,1.272,2.049,2.524C15.262,21.623,10.573,23.926,10.573,23.926z"/>
</svg>
