<?xml version="1.0" encoding="utf-8"?>
<!-- Generator: Adobe Illustrator 16.0.0, SVG Export Plug-In . SVG Version: 6.00 Build 0)  -->
<!DOCTYPE svg PUBLIC "-//W3C//DTD SVG 1.1//EN" "http://www.w3.org/Graphics/SVG/1.1/DTD/svg11.dtd">
<svg version="1.1" id="Layer_1" xmlns="http://www.w3.org/2000/svg" xmlns:xlink="http://www.w3.org/1999/xlink" x="0px" y="0px"
	 width="23px" height="25px" viewBox="0 0 23 25" enable-background="new 0 0 23 25" xml:space="preserve">
<g>
	<path fill="#474747" d="M1.213,4.166c0,0-1.417,1.417-0.449,4.148s5.023,10.679,14.103,14.781c0,0,3.688,1.891,6.13-1.06
		s1.485-3.006,0.829-3.779c-0.745-0.878-4.01-2.995-4.01-2.995s-1.014-0.691-1.705,0.139c-0.691,0.829-1.428,2.58-1.428,2.58
		s-0.681,1.133-1.936,0.093c0,0-4.748-3.088-6.776-6.867c0,0-0.967-1.29,0.369-1.798c1.336-0.507,3.595-1.429,2.581-3.134
		C7.908,4.569,5.742,2.08,5.742,2.08S3.921-0.109,1.213,4.166z"/>
	<path fill="#474747" d="M16.465,1.309c-3.34,0-6.047,2.707-6.047,6.047c0,3.339,2.707,6.046,6.047,6.046
		c3.339,0,6.047-2.707,6.047-6.046C22.512,4.016,19.804,1.309,16.465,1.309z M20.094,8.564h-2.42v2.419h-2.419V8.564h-2.419V6.146
		h2.419V3.728h2.419v2.419h2.42V8.564z"/>
</g>
</svg>
