<?xml version="1.0" encoding="utf-8"?>
<!-- Generator: Adobe Illustrator 16.0.0, SVG Export Plug-In . SVG Version: 6.00 Build 0)  -->
<!DOCTYPE svg PUBLIC "-//W3C//DTD SVG 1.1//EN" "http://www.w3.org/Graphics/SVG/1.1/DTD/svg11.dtd">
<svg version="1.1" id="Layer_1" xmlns="http://www.w3.org/2000/svg" xmlns:xlink="http://www.w3.org/1999/xlink" x="0px" y="0px"
	 width="26px" height="22px" viewBox="0 0 26 22" enable-background="new 0 0 26 22" xml:space="preserve">
<g>
	<path fill="#424242" d="M2.135,10.588c0.246-0.445,0.651-0.766,1.138-0.905l10.528-3.016c0.096,0.077,0.192,0.162,0.282,0.262
		c0.304,0.861-0.243,0.959-1.907,2.106c-1.821,1.253-2.127,2.251-1.589,2.932c0.538,0.679,1.459,0.387,2.372-0.278
		c3.132-2.285,6.529-3.406,8.121-3.841l0.075-0.007V1.425c-0.067-0.01-0.135-0.02-0.204-0.024c-3.895-0.199-8.92,0.131-8.92,0.131
		c-0.794-0.116-1.549,0.485-1.549,0.485S7.55,4.826,5.5,6.21l-4.85,0.203c-0.25,0.01-0.447,0.224-0.437,0.474l0.415,9.964
		c0.011,0.251,0.224,0.448,0.474,0.437l2.345-0.098l-1.478-5.157C1.83,11.545,1.888,11.032,2.135,10.588z"/>
	<path fill="#424242" d="M22.863,9.347h-2.006l1.619,5.655l-4.104,1.175c0.573-1.114,0.743-2.438,0.37-3.737
		c-0.231-0.809-0.646-1.512-1.186-2.085c-0.853,0.388-1.759,0.858-2.665,1.42l-0.412,0.72l-0.083-0.048
		c-0.109-0.063-0.214-0.107-0.313-0.143c-0.148,0.102-0.298,0.206-0.446,0.314c-0.137,0.1-0.272,0.188-0.406,0.271
		c0.02,0.017,0.035,0.032,0.059,0.047c0.075,0.045,0.238,0.107,0.599,0.146c0.562,0.064,0.945,0.143,1.177,0.238
		c0.233,0.097,0.434,0.237,0.598,0.42c0.162,0.182,0.282,0.406,0.358,0.669c0.074,0.261,0.09,0.521,0.044,0.776
		c-0.045,0.254-0.137,0.475-0.272,0.655c-0.126,0.166-0.321,0.324-0.586,0.472l0.258,0.898l-0.804,0.229l-0.25-0.872
		c-0.274,0.038-0.526,0.031-0.75-0.021c-0.329-0.076-0.657-0.211-0.975-0.403l-0.078-0.046l0.533-0.991l0.086,0.051
		c0.499,0.298,0.929,0.398,1.275,0.299c0.169-0.048,0.292-0.145,0.379-0.297c0.087-0.15,0.107-0.299,0.062-0.453
		c-0.037-0.134-0.107-0.234-0.21-0.311c-0.109-0.079-0.305-0.141-0.578-0.183c-0.606-0.095-1.014-0.186-1.247-0.277
		c-0.238-0.094-0.434-0.223-0.585-0.384c-0.051-0.053-0.089-0.115-0.13-0.176c-0.277,0.085-0.546,0.128-0.804,0.128
		c-0.678,0-1.284-0.293-1.704-0.824c-0.247-0.313-0.401-0.659-0.461-1.027c-0.517,1.086-0.664,2.354-0.307,3.601
		c0.373,1.3,1.218,2.334,2.294,2.976l-3.658,1.047L5.618,12.52l3.588-1.028c-0.014-0.172-0.01-0.347,0.016-0.524
		c0.09-0.595,0.408-1.177,0.959-1.761l-6.51,1.865c-0.24,0.069-0.381,0.322-0.312,0.563l2.746,9.589
		c0.035,0.119,0.115,0.216,0.217,0.272s0.226,0.073,0.346,0.04l17.754-5.086c0.241-0.069,0.382-0.322,0.313-0.563L22.863,9.347z"/>
	<path fill="#424242" d="M22.817,0.447c0,0-0.654,0.069-0.694,0.613c-0.04,1.678,0,6.618,0,7.175c0,0.677,0.624,0.792,0.624,0.792
		h3.04v-8.58H22.817z"/>
</g>
</svg>
