<?xml version="1.0" encoding="utf-8"?>
<!-- Generator: Adobe Illustrator 16.0.0, SVG Export Plug-In . SVG Version: 6.00 Build 0)  -->
<!DOCTYPE svg PUBLIC "-//W3C//DTD SVG 1.1//EN" "http://www.w3.org/Graphics/SVG/1.1/DTD/svg11.dtd">
<svg version="1.1" id="Layer_1" xmlns="http://www.w3.org/2000/svg" xmlns:xlink="http://www.w3.org/1999/xlink" x="0px" y="0px"
	 width="204px" height="155px" viewBox="0 0 204 155" enable-background="new 0 0 204 155" xml:space="preserve">
<g>
	<path fill="#19A9E1" d="M203.574,24.934V0.132h-24.801l10.209,10.209l-59.516,59.521c-1.848-1.09-3.967-1.756-6.262-1.756
		c-2.301,0-4.42,0.666-6.268,1.75l-14.283-14.284c1.089-1.847,1.755-3.966,1.755-6.261c0-6.848-5.552-12.401-12.4-12.401
		s-12.401,5.553-12.401,12.401c0,2.295,0.666,4.414,1.756,6.261l-14.29,14.284c-1.841-1.084-3.966-1.75-6.261-1.75
		c-6.848,0-12.401,5.552-12.401,12.401s5.553,12.4,12.401,12.4s12.401-5.552,12.401-12.4c0-2.295-0.666-4.42-1.756-6.261
		l14.29-14.29c1.841,1.09,3.966,1.756,6.261,1.756s4.42-0.666,6.261-1.756l14.284,14.29c-1.084,1.841-1.75,3.966-1.75,6.261
		c0,6.849,5.553,12.4,12.4,12.4c6.842,0,12.395-5.552,12.395-12.4c0-2.295-0.666-4.42-1.75-6.261l59.516-59.521L203.574,24.934z"/>
	<path fill="#474747" d="M175.752,137.109l-12.486-16.052V57.982l-9.301,9.3v44.475H23.757V9.438h130.208v22.767l9.301-9.301V0.138
		H14.454v120.92L1.962,137.109C0.69,138.744,0,140.755,0,142.819v12.328h177.713v-12.328
		C177.713,140.755,177.023,138.744,175.752,137.109z"/>
</g>
</svg>
