<?xml version="1.0" encoding="utf-8"?>
<!-- Generator: Adobe Illustrator 16.0.0, SVG Export Plug-In . SVG Version: 6.00 Build 0)  -->
<!DOCTYPE svg PUBLIC "-//W3C//DTD SVG 1.1//EN" "http://www.w3.org/Graphics/SVG/1.1/DTD/svg11.dtd">
<svg version="1.1" id="Layer_1" xmlns="http://www.w3.org/2000/svg" xmlns:xlink="http://www.w3.org/1999/xlink" x="0px" y="0px"
	 width="172px" height="156px" viewBox="0 0 172 156" enable-background="new 0 0 172 156" xml:space="preserve">
<g>
	<g>
		<path fill="#474747" d="M171.128,81.404c0-10.133-8.209-18.342-18.341-18.342s-18.341,8.209-18.341,18.342
			c0,10.131,8.209,18.34,18.341,18.34S171.128,91.535,171.128,81.404z"/>
		<path fill="#474747" d="M0.873,81.404c0-10.133,8.209-18.342,18.34-18.342c10.13,0,18.339,8.209,18.339,18.342
			c0,10.131-8.209,18.34-18.339,18.34C9.082,99.744,0.873,91.535,0.873,81.404z"/>
		<path fill="#474747" d="M152.787,105.863c-8.441,0-15.283,6.842-15.283,15.284v11.868c0,3.379-2.74,6.119-6.119,6.119h-18.687
			c-1.689,0-3.057-1.368-3.057-3.058s1.367-3.056,3.057-3.056h14.871c0.926,0,1.803-0.425,2.382-1.146
			c0.586-0.722,0.801-1.671,0.604-2.579l-8.334-43.862c-0.621-2.794-3.099-4.782-5.965-4.782H55.737
			c-2.859,0-5.343,1.988-5.964,4.782l-8.329,43.862c-0.203,0.908,0.018,1.857,0.597,2.579s1.457,1.146,2.388,1.146H59.2
			c1.689,0,3.056,1.366,3.056,3.056s-1.367,3.058-3.056,3.058H40.609c-3.379,0-6.113-2.74-6.113-6.113v-11.874
			c0-8.442-6.842-15.284-15.283-15.284c-8.442,0-15.284,6.842-15.284,15.284v17.987c0,8.442,6.842,15.283,15.284,15.283h133.574
			c8.442,0,15.283-6.841,15.283-15.283v-17.987C168.07,112.705,161.229,105.863,152.787,105.863z"/>
	</g>
	<g>
		<g>
			<path fill="#19A9E1" d="M109.726,47.605l-12.395-3.23l-8.985,6.532l2.424,12.74l0,0L86,68.417l-4.777-4.77l2.424-12.74
				l-8.985-6.532l-12.393,3.23c-6.728,1.755-11.427,7.833-11.427,14.789v9.08h70.315v-9.08
				C121.157,55.438,116.453,49.361,109.726,47.605z"/>
		</g>
		<circle fill="#19A9E1" cx="86" cy="19.922" r="18.341"/>
	</g>
</g>
</svg>
