<?xml version="1.0" encoding="utf-8"?>
<!-- Generator: Adobe Illustrator 16.0.0, SVG Export Plug-In . SVG Version: 6.00 Build 0)  -->
<!DOCTYPE svg PUBLIC "-//W3C//DTD SVG 1.1//EN" "http://www.w3.org/Graphics/SVG/1.1/DTD/svg11.dtd">
<svg version="1.1" id="Layer_1" xmlns="http://www.w3.org/2000/svg" xmlns:xlink="http://www.w3.org/1999/xlink" x="0px" y="0px"
	 width="115px" height="101px" viewBox="0 0 115 101" enable-background="new 0 0 115 101" xml:space="preserve">
<ellipse fill="#FFFFFF" cx="50" cy="50.5" rx="49" ry="50"/>
<g display="none">
	<circle display="inline" fill="#21A6DF" cx="43.336" cy="41.156" r="5.625"/>
	<g display="inline">
		<path fill="#21A6DF" d="M53.925,29.96c-0.151-0.145-0.313-0.271-0.468-0.408c-1.091,1.131-2.184,2.265-3.273,3.396
			c0.128,0.118,0.281,0.2,0.411,0.324c5.104,4.925,5.373,12.914,0.794,18.221c0.966,0.928,2.253,2.172,3.548,3.42
			c0.132-0.121,0.267-0.244,0.397-0.365C61.288,47.295,60.796,36.588,53.925,29.96z"/>
		<path fill="#21A6DF" d="M70.047,40.646c-0.461-6.534-3.223-12.93-8.313-17.839c-0.229-0.219-0.477-0.406-0.711-0.616
			c-1.652,1.714-2.187,2.285-3.838,3.997c0.197,0.182,0.99,0.78,1.19,0.961c5.102,4.676,7.031,12.035,6.078,18.86
			c-0.574,4.112-2.192,8.028-4.799,11.05c1.484,1.433,1.712,1.719,3.707,3.644C68.346,54.984,70.55,47.73,70.047,40.646z"/>
		<polygon fill="#21A6DF" points="56.988,78.811 51.029,78.811 42.984,50.647 48.942,50.647 		"/>
		<polygon fill="#21A6DF" points="43.277,50.647 37.321,50.647 29.275,78.811 35.231,78.811 		"/>
		<rect x="37.185" y="50.647" fill="#21A6DF" width="11.601" height="5.097"/>
		<rect x="37.439" y="60.438" fill="#21A6DF" width="11.601" height="5.099"/>
		<rect x="35.427" y="70.859" fill="#21A6DF" width="17.927" height="5.1"/>
		<rect x="40.699" y="45.55" fill="#21A6DF" width="4.922" height="6.151"/>
		<circle fill="#FFFFFF" cx="43.61" cy="39.518" r="2.197"/>
	</g>
</g>
<g display="none">
	<g display="inline">
		<path fill="#20A7E0" d="M35.562,68.738c-0.583-0.135-2.31-0.616-2.31-0.616c-0.907-0.171-1.569-0.627-1.569-1.581v-0.073
			c0-0.261,0-0.516,0.013-0.76c0.489-0.697,0.839-1.604,1.208-2.571c0.853-0.529,1.379-1.238,1.379-2.019
			c0-0.39-0.131-0.759-0.368-1.101V58.42c0-2.625-2.142-4.753-4.786-4.753s-4.786,2.128-4.786,4.753v1.598
			c-0.235,0.342-0.368,0.709-0.368,1.101c0,0.78,0.525,1.487,1.38,2.019c0.368,0.969,0.719,1.872,1.207,2.571
			c0.013,0.244,0.014,0.499,0.014,0.76v0.073c0,0.954-0.661,1.41-1.568,1.581c0,0-1.729,0.481-2.312,0.616
			c-1.801,0.408-3.139,2.166-3.139,4.072h19.144C38.701,70.904,37.363,69.146,35.562,68.738z M67.468,68.738
			c-0.583-0.135-2.31-0.616-2.31-0.616c-0.908-0.171-1.57-0.627-1.57-1.581v-0.073c0-0.261,0-0.516,0.014-0.76
			c0.489-0.697,0.84-1.604,1.209-2.571c0.853-0.529,1.379-1.238,1.379-2.019c0-0.39-0.131-0.759-0.369-1.101V58.42
			c0-2.625-2.143-4.753-4.784-4.753c-2.646,0-4.786,2.128-4.786,4.753v1.598c-0.235,0.342-0.368,0.709-0.368,1.101
			c0,0.78,0.525,1.487,1.38,2.019c0.367,0.969,0.719,1.872,1.206,2.571c0.015,0.244,0.015,0.499,0.015,0.76v0.073
			c0,0.954-0.662,1.41-1.567,1.581c0,0-1.729,0.481-2.312,0.616c-1.801,0.408-3.14,2.166-3.14,4.072h19.145
			C70.605,70.904,69.268,69.146,67.468,68.738z"/>
		<path fill="#20A7E0" d="M56.19,33.122c-1.07-4.673-5.367-8.169-10.51-8.169c-5.552,0-10.122,4.075-10.704,9.309
			c-0.219-0.016-0.44-0.027-0.663-0.027c-4.625,0-8.375,3.635-8.375,8.121c0,4.484,3.75,8.12,8.375,8.12h9.173V63.24h-6.381v3.189
			h15.953V63.24h-6.381V50.476h8.575c4.957,0,8.975-3.895,8.975-8.7C64.227,37.277,60.704,33.576,56.19,33.122z M35.51,47.287
			c0-1.908,1.338-3.664,3.14-4.073c0.583-0.132,2.311-0.617,2.311-0.617c0.907-0.17,1.568-0.627,1.568-1.581v-0.072
			c0-0.262-0.001-0.515-0.014-0.76c-0.489-0.698-0.839-1.603-1.207-2.571c-0.855-0.53-1.38-1.238-1.38-2.019
			c0-0.389,0.133-0.757,0.368-1.099v-1.597c0-2.625,2.142-4.753,4.786-4.753s4.786,2.128,4.786,4.753v1.598
			c0.237,0.341,0.368,0.71,0.368,1.099c0,0.781-0.526,1.489-1.379,2.019c-0.368,0.969-0.719,1.875-1.208,2.571
			c-0.013,0.246-0.013,0.499-0.013,0.76v0.072c0,0.954,0.661,1.411,1.569,1.581c0,0,1.727,0.485,2.31,0.617
			c1.801,0.409,3.14,2.166,3.14,4.073L35.51,47.287L35.51,47.287z"/>
	</g>
</g>
<g display="none">
	<g display="inline">
		<path fill="#20A7E0" d="M71.883,67.998h-3.758c0.016-0.109,0.035-0.219,0.035-0.332v-8.637v-2.475c1.463,0,2.65-1.188,2.65-2.652
			V41.439c0-1.464-1.188-2.651-2.65-2.651v-0.003h-3.199l-1.836,3.177l-1.834-3.177h-3.198v0.003c-1.465,0-2.651,1.187-2.651,2.651
			v11.978c0,1.464,1.187,2.649,2.651,2.649v0.488v2.475v8.637c0,0.113,0.021,0.223,0.033,0.332h-5.141V49.022h-9.793v18.976h-3.786
			v-7.706h-9.794v7.706h-3.571c-1.058,0-1.916,0.857-1.916,1.916s0.858,1.916,1.916,1.916h45.841c1.06,0,1.916-0.857,1.916-1.916
			C73.799,68.855,72.941,67.998,71.883,67.998z"/>
		<circle fill="#20A7E0" cx="63.125" cy="33.355" r="4.184"/>
		<path fill="#20A7E0" d="M26.109,52.751c3.07,0.026,12.747-3.777,14.638-10.776h3.641c0.769,0,1.032-0.512,0.584-1.137
			l-6.104-8.528c-0.447-0.625-1.18-0.625-1.627,0l-6.104,8.528c-0.447,0.625-0.185,1.137,0.584,1.137h3.761
			c-1.105,4.233-4.867,8.619-9.52,9.78C25.027,51.988,25.275,52.744,26.109,52.751z"/>
	</g>
</g>
<ellipse display="none" fill="#FFFFFF" cx="50.205" cy="50.5" rx="48.828" ry="50"/>
<ellipse fill="#F2F2F2" stroke="#FFFFFF" stroke-width="3" stroke-miterlimit="10" cx="96.826" cy="45.334" rx="16.797" ry="17.968"/>
<polygon fill="#20A7E0" points="91.039,41.581 87.248,45.36 94.818,53.167 106.406,41.449 103.021,37.499 94.949,45.615 "/>
<g>
	<g>
		<g>
			<path fill="#20A7E0" d="M76.118,55.783c0.127-0.909,0.196-1.836,0.196-2.78c0-0.942-0.069-1.869-0.196-2.778l-5.015-1.132
				c-0.356-1.35-0.886-2.626-1.572-3.802l2.74-4.347c-1.119-1.483-2.442-2.809-3.926-3.93l-4.348,2.746
				c-1.178-0.689-2.452-1.218-3.803-1.573l-1.133-5.015c-0.91-0.127-1.836-0.197-2.778-0.197c-0.943,0-1.87,0.069-2.779,0.197
				l-1.132,5.015c-1.35,0.355-2.625,0.884-3.803,1.573l-4.346-2.746c-1.485,1.121-2.809,2.446-3.931,3.93l2.746,4.347
				c-0.687,1.177-1.218,2.452-1.573,3.802l-5.017,1.132c-0.125,0.909-0.194,1.835-0.194,2.778c0,0.944,0.069,1.871,0.194,2.78
				l5.018,1.132c0.354,1.351,0.886,2.626,1.572,3.801l-2.746,4.351c1.122,1.484,2.445,2.808,3.931,3.929l4.346-2.744
				c1.178,0.687,2.454,1.218,3.803,1.572l1.132,5.016c0.909,0.126,1.836,0.196,2.779,0.196c0.942,0,1.868-0.07,2.778-0.196
				l1.133-5.016c1.351-0.354,2.625-0.886,3.803-1.572l4.348,2.744c1.482-1.121,2.807-2.443,3.926-3.929l-2.74-4.351
				c0.688-1.175,1.216-2.45,1.572-3.801L76.118,55.783z M56.285,61.652c-4.778,0-8.652-3.871-8.652-8.649
				c0-4.776,3.874-8.651,8.652-8.651c4.777,0,8.65,3.875,8.65,8.651C64.936,57.781,61.063,61.652,56.285,61.652z"/>
		</g>
		<g>
			<path fill="#20A7E0" d="M40.076,44.073l-2.474-2.009c0.17-0.827,0.228-1.682,0.17-2.545l2.72-1.66
				c-0.107-0.559-0.249-1.117-0.438-1.671c-0.187-0.555-0.413-1.084-0.666-1.593l-3.169,0.331c-0.477-0.721-1.042-1.366-1.679-1.922
				l0.749-3.096c-0.953-0.648-1.992-1.166-3.089-1.528l-2.006,2.474c-0.828-0.169-1.681-0.228-2.545-0.169l-1.661-2.72
				c-0.558,0.107-1.117,0.25-1.669,0.438c-0.554,0.188-1.084,0.412-1.594,0.664l0.332,3.171c-0.724,0.476-1.367,1.041-1.921,1.678
				l-3.097-0.75c-0.65,0.954-1.165,1.994-1.528,3.089l2.473,2.007c-0.168,0.827-0.227,1.682-0.168,2.545l-2.721,1.66
				c0.107,0.559,0.25,1.115,0.438,1.67c0.188,0.556,0.413,1.086,0.666,1.594l3.169-0.331c0.478,0.722,1.042,1.366,1.681,1.921
				l-0.75,3.097c0.952,0.648,1.992,1.163,3.086,1.527l2.008-2.475c0.829,0.171,1.682,0.229,2.544,0.17l1.661,2.719
				c0.559-0.104,1.118-0.25,1.671-0.437c0.554-0.188,1.084-0.414,1.592-0.666l-0.33-3.171c0.721-0.477,1.366-1.041,1.92-1.677
				l3.099,0.751C39.198,46.206,39.711,45.166,40.076,44.073z M29.915,44.965c-2.651,0.896-5.527-0.527-6.423-3.179
				c-0.897-2.652,0.525-5.529,3.178-6.425c2.653-0.896,5.529,0.527,6.425,3.18C33.99,41.19,32.567,44.068,29.915,44.965z"/>
		</g>
	</g>
</g>
<g display="none">
	<path display="inline" fill="#28A8E0" d="M56.842,52.156l-0.005-1.252c-0.059-1.003-0.892-1.908-2.224-2.57v2.732
		c0,0-0.535,0.592-3.022,1.242c0,0.965,0,1.656,0,2.805c-1.867,0.447-2.866,0.447-4.73,0c0-1.147,0-1.84,0-2.805
		c-1.769-0.25-3.021-1.242-3.021-1.242v-2.732c-1.333,0.662-2.166,1.566-2.225,2.57l-0.012,1.214
		c-3.151,0.832-7.718,2.252-8.4,3.638c-1.474,2.984-2.473,9.327-3.149,13.485h17.811V65.51H44.32v-2.602h3.544v-3.031h2.679v3.031
		h3.588v2.602h-3.587v3.731h17.854c-0.683-4.218-1.707-10.583-3.252-13.485C64.434,54.408,59.977,52.999,56.842,52.156z"/>
	<path display="inline" fill="#28A8E0" d="M58.266,38.396c0-4.706-4.048-9.022-9.04-9.022c-4.99,0-9.038,4.316-9.038,9.022
		c0,2.077,0.79,3.979,2.101,5.457c-0.127-0.688-0.197-1.385-0.197-2.07c0-0.911,0.155-1.767,0.428-2.554
		c0.545-1.021,1.744-2.215,4.317-1.581c0,0,5.095,2.583,8.702,0.535c0.558,1.047,0.875,2.267,0.875,3.6
		c0,0.657-0.063,1.326-0.177,1.988C57.505,42.304,58.266,40.435,58.266,38.396z"/>
</g>
</svg>
