<?xml version="1.0" encoding="utf-8"?>
<!-- Generator: Adobe Illustrator 16.0.0, SVG Export Plug-In . SVG Version: 6.00 Build 0)  -->
<!DOCTYPE svg PUBLIC "-//W3C//DTD SVG 1.1//EN" "http://www.w3.org/Graphics/SVG/1.1/DTD/svg11.dtd">
<svg version="1.1" id="Layer_1" xmlns="http://www.w3.org/2000/svg" xmlns:xlink="http://www.w3.org/1999/xlink" x="0px" y="0px"
	 width="115px" height="101px" viewBox="0 0 115 101" enable-background="new 0 0 115 101" xml:space="preserve">
<g>
	<ellipse fill="#F2F2F2" cx="50.805" cy="50.5" rx="48.828" ry="50"/>
	
		<ellipse fill="#F2F2F2" stroke="#FFFFFF" stroke-width="3" stroke-miterlimit="10" cx="96.227" cy="45.563" rx="16.797" ry="17.968"/>
	<polygon fill="#20A7E0" points="90.439,41.811 86.648,45.59 94.218,53.396 105.807,41.679 102.421,37.729 94.349,45.845 	"/>
	<g>
		<circle fill="#21A6DF" cx="43.336" cy="41.156" r="5.625"/>
		<g>
			<path fill="#21A6DF" d="M53.925,29.96c-0.151-0.145-0.313-0.271-0.468-0.408c-1.091,1.131-2.184,2.265-3.273,3.396
				c0.128,0.118,0.281,0.2,0.411,0.324c5.104,4.925,5.373,12.914,0.794,18.221c0.966,0.928,2.253,2.172,3.548,3.42
				c0.132-0.121,0.267-0.244,0.397-0.365C61.288,47.295,60.796,36.588,53.925,29.96z"/>
			<path fill="#21A6DF" d="M70.047,40.646c-0.461-6.534-3.223-12.93-8.312-17.839c-0.229-0.219-0.477-0.406-0.711-0.616
				c-1.653,1.714-2.187,2.285-3.839,3.997c0.197,0.182,0.99,0.78,1.19,0.961c5.101,4.676,7.031,12.035,6.078,18.86
				c-0.574,4.112-2.192,8.028-4.798,11.05c1.483,1.432,1.711,1.719,3.706,3.643C68.345,54.984,70.55,47.73,70.047,40.646z"/>
			<polygon fill="#21A6DF" points="56.988,78.811 51.029,78.811 42.984,50.647 48.942,50.647 			"/>
			<polygon fill="#21A6DF" points="43.277,50.647 37.321,50.647 29.275,78.811 35.231,78.811 			"/>
			<rect x="37.185" y="50.647" fill="#21A6DF" width="11.601" height="5.097"/>
			<rect x="37.439" y="60.438" fill="#21A6DF" width="11.601" height="5.098"/>
			<rect x="35.427" y="70.859" fill="#21A6DF" width="17.927" height="5.1"/>
			<rect x="40.699" y="45.55" fill="#21A6DF" width="4.922" height="6.151"/>
			<circle fill="#FFFFFF" cx="43.61" cy="39.518" r="2.197"/>
		</g>
	</g>
</g>
</svg>
