<?xml version="1.0" encoding="utf-8"?>
<!-- Generator: Adobe Illustrator 16.0.0, SVG Export Plug-In . SVG Version: 6.00 Build 0)  -->
<!DOCTYPE svg PUBLIC "-//W3C//DTD SVG 1.1//EN" "http://www.w3.org/Graphics/SVG/1.1/DTD/svg11.dtd">
<svg version="1.1" id="Layer_1" xmlns="http://www.w3.org/2000/svg" xmlns:xlink="http://www.w3.org/1999/xlink" x="0px" y="0px"
	 width="102px" height="102px" viewBox="0 0 102 102" enable-background="new 0 0 102 102" xml:space="preserve">
<circle fill="#FFFFFF" cx="51" cy="51" r="50.129"/>
<path display="none" fill="#424242" d="M76.183,31.16c-3.44-5.472-9.542-8.972-12.272-8.417c-1.751-0.014-3.769,0.284-4.913,0.656
	c0,0-5.244,1.206-9.913,2.208s-9.659,1.335-9.659,1.335c-1.631,0.298-3.229,0.417-2.913,2.162l0.061,0.178
	c0.972,1.826,4.3,3.216,5.928,2.921l5.77-0.047l-0.009,0.005l-0.007,0.002c0,0,1.042-0.078,1.436,1.006
	c0.039,0.107,0.046,0.232,0.039,0.365c-0.003,0.043-0.015,0.091-0.021,0.136c-0.015,0.097-0.037,0.198-0.071,0.304
	c-0.018,0.056-0.038,0.113-0.06,0.17c-0.042,0.109-0.092,0.222-0.148,0.338c-0.028,0.057-0.053,0.113-0.084,0.171
	c-0.078,0.147-0.166,0.297-0.261,0.45c-0.018,0.029-0.032,0.057-0.05,0.085c-0.119,0.187-0.249,0.377-0.385,0.568
	c-0.032,0.044-0.066,0.089-0.099,0.133c-0.109,0.148-0.22,0.297-0.335,0.445c-0.041,0.053-0.083,0.104-0.124,0.157
	c-0.116,0.146-0.233,0.291-0.351,0.431c-0.033,0.039-0.065,0.079-0.099,0.117c-0.147,0.176-0.295,0.348-0.438,0.51l-1.435,1.532h0
	l-6.846,7.307l-1.162,1.186l-0.01,0.01l-0.027,0.025l-0.032,0.033l-0.202,0.205l-0.018-0.511l-0.002-0.031l-0.001-0.031
	c-0.034-0.618-0.45-6.077-4.714-7.519l-0.037-0.012l-0.039-0.012l-0.147-0.046l-0.247-0.076l-0.255-0.036
	c-0.257-0.035-0.511-0.053-0.757-0.053c-1.231,0-2.353,0.461-3.16,1.299c-1.281,1.331-1.379,3.14-1.334,4.401
	c0.007,0.611,0.1,9.966-1.07,15.155l-0.011,0.043l-0.009,0.043c-0.167,0.854-0.527,1.638-0.845,2.329
	c-0.478,1.039-0.973,2.114-0.69,3.434l0-0.001c0.471,2.157,3.932,8.343,8.88,11.204c1.955,1.132,3.643,1.887,5.521,1.887
	c1.363,0,2.509-0.396,3.544-0.825c4.609-1.908,12.649-8.755,13.708-9.672l0.002,0.001l2.04-1.727l0.07-0.061l0.067-0.063
	l5.675-5.406c2.57-2.332,3.047-4.322,2.861-5.76l0.424-0.546l0.001,0.001c0,0,6.994-8.061,9.406-13.339
	C78.447,37.343,78.512,34.862,76.183,31.16z M61.506,59.238l-5.704,5.432l-2.039,1.728c-0.076,0.071-8.568,7.378-12.875,9.162
	c-0.888,0.367-1.591,0.583-2.331,0.583c-1.038,0-2.146-0.426-3.933-1.46c-4.346-2.515-7.222-8.207-7.367-9.123
	c-0.135-0.629,1.103-2.227,1.546-4.485c1.304-5.778,1.147-15.933,1.147-15.933c-0.054-1.437,0.181-2.45,1.324-2.45
	c0.1,0,0.206,0.008,0.32,0.023l0.147,0.045c2.351,0.795,2.563,4.686,2.563,4.686l0.163,4.717c0.01,0.18,0.097,0.835,0.865,1.077
	c0.06,0.019,0.125,0.027,0.194,0.027c0.794,0,2.176-1.167,3.187-2.135l1.243-1.269l0.007-0.008l-0.001,0.004L50.327,39.28
	c0.424-0.484,1.015-0.732,1.608-0.732c0.477,0,0.954,0.161,1.347,0.485c0.876,0.732,1.02,2.042,0.292,2.953L43.399,53.428
	c0.042,0.095,0.103,0.175,0.195,0.237c0.174,0.119,0.441,0.163,0.75,0.189l12.751-12.636c0.524-0.519,1.187-0.783,1.809-0.783
	c0.5,0,0.975,0.171,1.333,0.517c0.801,0.774,0.739,2.17-0.162,3.146L47.656,57.532c0.022,0.052,0.046,0.099,0.074,0.137
	c0.137,0.184,0.281,0.32,0.429,0.429l11.61-10.458c0.363-0.276,0.788-0.411,1.208-0.411c0.565,0,1.121,0.241,1.502,0.702
	c0.659,0.802,0.564,2.005-0.24,2.709L51.061,62.067c0.03,0.081,0.061,0.158,0.104,0.224c0.065,0.105,0.149,0.202,0.238,0.299
	l7.802-6.143c0.934-0.718,1.987-1.307,2.849-1.307c0.414,0,0.783,0.137,1.073,0.456C64.02,56.589,62.552,58.294,61.506,59.238z"/>
<g display="none">
	<path display="inline" fill="#424242" d="M44.774,38.312c0.14,0.3,0.447,0.512,0.793,0.512h10.857c0.462,0,0.854-0.377,0.875-0.838
		l0.14-3.264c0.014-0.346-0.185-0.644-0.479-0.772c-0.099-0.042-0.208-0.066-0.323-0.066h-1.892
		c-0.881-0.318-1.755-0.876-1.318-1.799c1.401-3.021,0.093-5.385-2.423-5.385c-2.515,0-3.825,2.364-2.411,5.385
		c0.438,0.923-0.438,1.481-1.322,1.799h-1.899c-0.163,0-0.304,0.059-0.43,0.14c-0.109,0.07-0.197,0.163-0.261,0.276
		c-0.063,0.111-0.103,0.233-0.106,0.369c0,0.019-0.009,0.035-0.008,0.053l0.129,3.264C44.7,38.102,44.729,38.211,44.774,38.312z
		 M51,28.66c0.61,0,1.104,0.494,1.104,1.104c0,0.61-0.494,1.104-1.104,1.104s-1.105-0.495-1.105-1.104
		C49.895,29.154,50.391,28.66,51,28.66z"/>
	<path display="inline" fill="#424242" d="M65.001,33.886h-5.313c0.08,0.305,0.13,0.619,0.117,0.938l-0.136,3.174h4.246v32.11
		H38.083v-32.11h4.244l-0.126-3.181c-0.013-0.317,0.038-0.627,0.118-0.931h-5.321c-1.864,0-3.39,1.525-3.39,3.39V71.91
		c0,1.863,1.525,3.389,3.39,3.389h28.003c1.865,0,3.391-1.525,3.391-3.389V37.275C68.392,35.411,66.866,33.886,65.001,33.886z"/>
	<path display="inline" fill="#424242" d="M41.728,46.029c0,0.795,0.644,1.439,1.439,1.439h15.772c0.795,0,1.438-0.645,1.438-1.439
		c0-0.795-0.644-1.44-1.438-1.44H43.167C42.372,44.589,41.728,45.234,41.728,46.029z"/>
	<path display="inline" fill="#424242" d="M60.378,52.539c0-0.795-0.644-1.441-1.438-1.441H43.167c-0.795,0-1.439,0.646-1.439,1.441
		c0,0.795,0.644,1.439,1.439,1.439h15.772C59.734,53.979,60.378,53.334,60.378,52.539z"/>
	<path display="inline" fill="#424242" d="M43.167,57.609c-0.795,0-1.439,0.645-1.439,1.439s0.644,1.439,1.439,1.439h7.129
		c0.796,0,1.44-0.645,1.44-1.439s-0.644-1.439-1.44-1.439H43.167z"/>
</g>
<g display="none">
	<g display="inline">
		<path fill="#474747" d="M39.762,24.869h-2.614v5.227h2.614c1.443,0,2.612-1.17,2.612-2.613S41.205,24.869,39.762,24.869z"/>
		<path fill="#474747" d="M57.53,24.869h2.613v5.227H57.53c-1.443,0-2.613-1.17-2.613-2.613S56.087,24.869,57.53,24.869z"/>
	</g>
	<path display="inline" fill="#474747" d="M64.853,66.679c-2.322,0-4.269,1.525-4.949,3.621c-5.406-0.382-9.689-4.892-9.689-10.393
		v-3.921h3.136c6.629,0,12.021-5.392,12.021-12.02v-17.53c0-0.866-0.702-1.567-1.568-1.567h-1.567v19.098
		c0,4.899-3.985,8.884-8.885,8.884h-9.408c-4.898,0-8.885-3.984-8.885-8.884V24.869h-1.567c-0.867,0-1.568,0.701-1.568,1.567v17.53
		c0,6.628,5.393,12.02,12.021,12.02h3.137v3.921c0,7.222,5.677,13.127,12.803,13.527c0.657,2.134,2.62,3.696,4.972,3.696
		c2.886,0,5.227-2.341,5.227-5.227C70.079,69.02,67.738,66.679,64.853,66.679z M64.853,75.04c-1.729,0-3.136-1.405-3.136-3.136
		c0-1.729,1.406-3.135,3.136-3.135s3.137,1.405,3.137,3.135C67.989,73.635,66.582,75.04,64.853,75.04z"/>
</g>
<g>
	<path fill-rule="evenodd" clip-rule="evenodd" fill="#474647" d="M48.472,26.986h25.115c1.596,0,2.904,1.304,2.904,2.903v25
		c0,1.594-1.309,2.899-2.904,2.899H48.472c-1.599,0-2.904-1.306-2.904-2.899v-25C45.568,28.29,46.873,26.986,48.472,26.986z"/>
	<polygon fill-rule="evenodd" clip-rule="evenodd" fill="#FFFFFF" points="57.461,33.433 57.461,38.745 52.114,38.745 
		52.114,45.939 57.508,45.939 57.508,51.346 64.646,51.346 64.646,45.939 69.946,45.939 69.946,38.697 64.596,38.697 64.54,33.429 	
		"/>
	<path fill-rule="evenodd" clip-rule="evenodd" fill="#474647" d="M41.739,58.781c3.797,3.796,8.189,7.428,9.927,5.686
		c2.489-2.485,4.022-4.65,9.507-0.247c5.483,4.412,1.271,7.346-1.139,9.756c-2.784,2.783-13.147,0.15-23.39-10.098
		C26.397,53.635,23.763,43.268,26.547,40.49c2.409-2.413,5.344-6.622,9.752-1.138c4.408,5.48,2.241,7.017-0.248,9.502
		C34.314,50.594,37.944,54.986,41.739,58.781z"/>
</g>
</svg>
