<?xml version="1.0" encoding="utf-8"?>
<!-- Generator: Adobe Illustrator 16.0.0, SVG Export Plug-In . SVG Version: 6.00 Build 0)  -->
<!DOCTYPE svg PUBLIC "-//W3C//DTD SVG 1.1//EN" "http://www.w3.org/Graphics/SVG/1.1/DTD/svg11.dtd">
<svg version="1.1" id="Layer_1" xmlns="http://www.w3.org/2000/svg" xmlns:xlink="http://www.w3.org/1999/xlink" x="0px" y="0px"
	 width="107px" height="111px" viewBox="0 0 107 111" enable-background="new 0 0 107 111" xml:space="preserve">
<g>
	<g>
		<path fill="#E4E4E4" d="M20.477,50.915c0,0,2.846-13.087,13.942-20.484c0,0-2.276-5.689-1.707-9.673
			c0,0-16.502,8.535-22.477,30.158C10.235,50.915,15.641,48.354,20.477,50.915z"/>
		<path fill="#E4E4E4" d="M32.712,88.186c0,0,18.089,14.379,44.668,0c0,0,3.414,4.837,6.828,5.121c0,0-25.51,24.684-59.179,1.454
			C25.029,94.761,29.013,95.298,32.712,88.186z"/>
		<path fill="#E4E4E4" d="M75.389,30.715c0,0,11.948,8.535,13.37,20.2c0,0,4.84-2.276,9.957,0c0,0-2.842-18.776-21.904-30.158
			C76.812,20.757,78.233,25.878,75.389,30.715z"/>
	</g>
	<g>
		<circle fill="#50BE97" cx="50.801" cy="9.907" r="3.627"/>
		<g>
			<circle fill="#50BE97" cx="50.801" cy="31.672" r="1.814"/>
			<path fill="#50BE97" d="M70.027,36.025h-1.522c-0.476-3.941-3.484-7.114-7.348-7.829c-0.266-0.869-0.625-1.711-1.085-2.507
				c-0.301-0.52-0.968-0.698-1.487-0.396c-0.521,0.3-0.696,0.966-0.397,1.486c0.864,1.492,1.319,3.185,1.319,4.894
				c0,4.801-3.904,8.707-8.706,8.707c-4.8,0-8.706-3.905-8.706-8.707s3.905-8.706,8.706-8.706h9.795
				c0.601,0,1.089-0.488,1.089-1.088c0-0.601-0.488-1.088-1.089-1.088h-4.37c-0.179-2.844-2.535-5.097-5.425-5.097
				c-3.005,0-5.44,2.436-5.44,5.441v1.124c-3.25,1.881-5.442,5.387-5.442,9.415c0,6.01,4.873,10.883,10.882,10.883
				c5.86,0,10.625-4.635,10.861-10.437c1.931,0.837,3.286,2.76,3.286,4.996c0,0.601,0.488,1.088,1.089,1.088h3.99
				c0.601,0,1.089-0.487,1.089-1.088S70.628,36.025,70.027,36.025z"/>
		</g>
	</g>
	<g>
		<path fill="#66C8C7" d="M78.502,69.204c0.285-0.518,0.756-0.891,1.322-1.052l12.222-3.502c0.113,0.089,0.223,0.188,0.328,0.304
			c0.352,1.001-0.282,1.114-2.215,2.446c-2.114,1.455-2.47,2.612-1.846,3.404c0.625,0.786,1.694,0.449,2.756-0.324
			c3.636-2.652,7.581-3.953,9.429-4.46l0.086-0.008v-7.449c-0.077-0.012-0.154-0.023-0.237-0.025
			c-4.521-0.232-10.356,0.149-10.356,0.149c-0.921-0.132-1.798,0.563-1.798,0.563s-3.404,3.263-5.785,4.871l-5.632,0.234
			c-0.29,0.011-0.518,0.258-0.507,0.551l0.483,11.569c0.013,0.292,0.259,0.519,0.55,0.507l2.723-0.114l-1.716-5.987
			C78.148,70.315,78.214,69.719,78.502,69.204z"/>
		<path fill="#66C8C7" d="M102.567,67.762h-2.327l1.879,6.566l-4.764,1.367c0.664-1.296,0.86-2.833,0.429-4.342
			c-0.269-0.939-0.751-1.757-1.378-2.42c-0.989,0.448-2.04,0.994-3.094,1.647l-0.479,0.837l-0.096-0.057
			c-0.127-0.074-0.248-0.125-0.364-0.168c-0.174,0.121-0.347,0.241-0.52,0.367c-0.157,0.117-0.314,0.219-0.471,0.315
			c0.023,0.018,0.04,0.037,0.069,0.054c0.085,0.053,0.275,0.124,0.696,0.171c0.649,0.074,1.096,0.163,1.366,0.275
			c0.27,0.111,0.502,0.275,0.694,0.487c0.188,0.21,0.326,0.472,0.414,0.776c0.087,0.304,0.104,0.606,0.052,0.899
			c-0.052,0.297-0.158,0.554-0.316,0.764c-0.146,0.192-0.373,0.377-0.68,0.548l0.299,1.042l-0.933,0.267l-0.29-1.012
			c-0.32,0.044-0.612,0.036-0.872-0.023c-0.381-0.089-0.762-0.246-1.132-0.47l-0.092-0.054l0.62-1.15l0.101,0.059
			c0.579,0.347,1.078,0.464,1.48,0.349c0.195-0.057,0.34-0.169,0.439-0.346c0.101-0.173,0.124-0.347,0.073-0.526
			c-0.045-0.154-0.125-0.272-0.245-0.361c-0.126-0.092-0.354-0.161-0.672-0.211c-0.703-0.108-1.177-0.214-1.447-0.322
			c-0.275-0.109-0.504-0.258-0.679-0.445c-0.06-0.062-0.105-0.134-0.15-0.202c-0.324,0.096-0.636,0.146-0.937,0.146
			c-0.786,0-1.489-0.34-1.979-0.956c-0.285-0.363-0.465-0.766-0.533-1.193c-0.603,1.262-0.771,2.733-0.357,4.181
			c0.433,1.509,1.415,2.709,2.663,3.454l-4.246,1.217l-2.246-7.845l4.166-1.194c-0.018-0.199-0.013-0.401,0.018-0.609
			c0.104-0.688,0.475-1.365,1.114-2.044l-7.559,2.165c-0.279,0.08-0.442,0.374-0.362,0.655l3.188,11.133
			c0.04,0.139,0.134,0.249,0.253,0.314c0.117,0.067,0.261,0.087,0.4,0.048l20.616-5.904c0.278-0.082,0.442-0.376,0.361-0.653
			L102.567,67.762z"/>
		<path fill="#66C8C7" d="M102.516,57.43c0,0-0.76,0.08-0.807,0.713c-0.047,1.946,0,7.683,0,8.329c0,0.785,0.725,0.92,0.725,0.92
			h3.529V57.43H102.516z"/>
	</g>
	<path fill="#067C59" d="M28.118,62.689c-1.035-0.382-1.905,0.729-2.471,1.948l-2.307,4.499c-0.186-0.012-0.354-0.034-0.499-0.088
		c-0.096-0.037-0.189-0.099-0.281-0.171l2.092-9.629c0.174-0.805-0.319-1.591-1.094-1.782c-0.779-0.192-1.58,0.274-1.807,1.065
		l-2.786,9.3c-0.141-0.002-0.292-0.021-0.46-0.069c-0.064-0.02-0.128-0.057-0.193-0.106l1.012-11.725
		c0.099-0.938-0.513-1.764-1.363-1.874c-0.852-0.111-1.654,0.534-1.797,1.464l-1.657,11.477c-0.179,0.102-0.342,0.178-0.49,0.184
		c-0.145,0.005-0.265-0.057-0.363-0.155l-0.052-9.697c0.031-0.895-0.66-1.637-1.537-1.685c-0.878-0.047-1.64,0.617-1.71,1.507
		l-0.554,10.63c-0.119,1.007-0.396,2.49-1.008,2.704c-0.673,0.236-1.138-0.066-1.142-0.07l-2.245-2.81
		c-0.495-0.901-2.472-1.962-3.734-1.716l-0.11,0.039c-0.967,0.531-0.396,1.351,0.099,2.254c0,0,1.795,2.539,3.144,5.186
		c1.347,2.647,2.82,5.653,2.82,5.653c0.322,0.83,1.174,2.213,2.007,3.07c0.387-0.336,0.409-0.469,0.464-0.901
		c0.075-0.578-0.03-1.646-0.03-1.646c-0.059-0.531-0.192-1.741-0.328-2.843c-0.18-1.467-0.587-2.959-0.587-2.959
		c-0.079-0.507-0.206-0.987,0.336-1.071h0.058c0.633,0.101,1.376,0.933,1.455,1.438l0.571,1.695c0.001,0,0.166,0.223,0.522,0.227
		c0.323,0.005,0.704-0.642,0.932-1.092l2.065-4.876c0.185-0.405,0.655-0.589,1.058-0.416s0.599,0.638,0.431,1.052l-1.625,4.542
		c0.03,0.062,0.075,0.112,0.144,0.133c0.07,0.022,0.159,0.017,0.259-0.002l2.728-5.084c0.225-0.411,0.71-0.574,1.09-0.379
		c0.377,0.195,0.524,0.686,0.318,1.107l-2.467,5.313c0.021,0.032,0.044,0.06,0.071,0.081c0.071,0.052,0.14,0.083,0.206,0.109
		l2.882-3.874c0.241-0.33,0.695-0.411,1.027-0.19c0.331,0.223,0.427,0.673,0.208,1.021l-2.617,4.145
		c0.032,0.049,0.064,0.095,0.104,0.129c0.059,0.049,0.13,0.09,0.21,0.13l1.329-1.417c0.439-0.506,1.007-0.916,1.451-0.591
		s0.032,1.084-0.288,1.519l-1.157,1.416l-0.647,0.861c0,0-0.561,0.793-1.271,1.691l-0.107,0.144
		c-0.039,0.053-0.083,0.106-0.13,0.152c-0.289,0.358-0.593,0.719-0.892,1.043c-0.576,0.629-2.311,2.645-4.021,4.371h9.707
		c0,0,0.432,0.084,0.243-0.633c-0.246-0.934-0.58-3.19,0.838-8.149c0.632-2.213,1.202-4.051,1.611-5.325
		c0.5-1.479,1.073-3.172,1.305-3.855c0.441-1.297,1.298-3.428,1.298-3.428C28.762,64.662,29.155,63.069,28.118,62.689z"/>
</g>
</svg>
