<?xml version="1.0" encoding="utf-8"?>
<!-- Generator: Adobe Illustrator 16.0.0, SVG Export Plug-In . SVG Version: 6.00 Build 0)  -->
<!DOCTYPE svg PUBLIC "-//W3C//DTD SVG 1.1//EN" "http://www.w3.org/Graphics/SVG/1.1/DTD/svg11.dtd">
<svg version="1.1" id="Layer_1" xmlns="http://www.w3.org/2000/svg" xmlns:xlink="http://www.w3.org/1999/xlink" x="0px" y="0px"
	 width="70px" height="67px" viewBox="0 0 70 67" enable-background="new 0 0 70 67" xml:space="preserve">
<ellipse fill="#FFFFFF" cx="35" cy="33.499" rx="34.326" ry="32.855"/>
<path fill="none" stroke="#21A3DD" stroke-width="2" stroke-miterlimit="10" d="M22.888,48.465c0,0-5.685-7.768-6.2-10.85
	c-0.442-2.651,1.033-5.425,4.392-9.816c0,0,8.546-10.136,23.142-2.454c0,0,5.441,2.52,7.34,12.012
	c0.507,2.532-8.19,11.969-8.19,11.969s0.506-7.25-0.593-10.161c-1.542-4.086-8.761-4.563-8.761-4.563s-7.613-0.534-9.321,4.822
	C23.039,44.621,22.888,48.465,22.888,48.465z"/>
<path fill="#FFFFFF" stroke="#21A3DD" stroke-width="2" stroke-miterlimit="10" d="M23.814,22.183v10.2c0,0,0.431,1.722,1.636,2.067
	c1.205,0.344,17.049,0,17.049,0s1.723-1.55,1.723-2.067s0-10.055,0-10.055S35.309,14.367,23.814,22.183z"/>
<rect x="32.726" y="22.183" fill="#21A3DD" width="2.583" height="8.783"/>
<rect x="29.626" y="25.283" fill="#21A3DD" width="8.783" height="2.583"/>
</svg>
