<?xml version="1.0" encoding="utf-8"?>
<!-- Generator: Adobe Illustrator 16.0.0, SVG Export Plug-In . SVG Version: 6.00 Build 0)  -->
<!DOCTYPE svg PUBLIC "-//W3C//DTD SVG 1.1//EN" "http://www.w3.org/Graphics/SVG/1.1/DTD/svg11.dtd">
<svg version="1.1" id="Layer_1" xmlns="http://www.w3.org/2000/svg" xmlns:xlink="http://www.w3.org/1999/xlink" x="0px" y="0px"
	 width="110px" height="110px" viewBox="0 0 110 110" enable-background="new 0 0 110 110" xml:space="preserve">
<circle fill="#F2F2F2" cx="55" cy="55" r="54.5"/>
<path fill="none" stroke="#21A2DC" stroke-width="2.5" stroke-miterlimit="10" d="M86.034,69.85c0,2.211-1.794,4.003-4.005,4.003
	H27.97c-2.211,0-4.004-1.792-4.004-4.003V32.141c0-2.211,1.793-4.003,4.004-4.003h54.06c2.211,0,4.005,1.792,4.005,4.003V69.85z"/>
<path fill="#23A1DB" d="M78.191,43.323c0,0.922-0.748,1.668-1.67,1.668H33.474c-0.921,0-1.668-0.746-1.668-1.668l0,0
	c0-0.922,0.747-1.67,1.668-1.67h43.047C77.443,41.653,78.191,42.401,78.191,43.323L78.191,43.323z"/>
<path fill="#23A1DB" d="M78.191,51.077c0,0.787-0.635,1.423-1.42,1.423H55.584c-0.784,0-1.419-0.637-1.419-1.423l0,0
	c0-0.783,0.636-1.417,1.419-1.417h21.187C77.557,49.659,78.191,50.294,78.191,51.077L78.191,51.077z"/>
<path fill="#23A1DB" d="M78.191,59.34c0,0.735-0.599,1.333-1.332,1.333H64.508c-0.735,0-1.333-0.598-1.333-1.333l0,0
	c0-0.737,0.598-1.335,1.333-1.335h12.352C77.593,58.005,78.191,58.603,78.191,59.34L78.191,59.34z"/>
<polyline fill="#F2F2F2" stroke="#23A1DB" stroke-width="2.5" stroke-miterlimit="10" points="47.06,64.484 47.06,67.02 
	47.06,81.862 41.061,75.93 35.195,81.862 35.195,67.02 35.063,64.484 "/>
<circle fill="none" stroke="#21A3DD" stroke-width="2.5" stroke-miterlimit="10" cx="41.061" cy="58.646" r="8.373"/>
</svg>
