<?xml version="1.0" encoding="utf-8"?>
<!-- Generator: Adobe Illustrator 16.0.0, SVG Export Plug-In . SVG Version: 6.00 Build 0)  -->
<!DOCTYPE svg PUBLIC "-//W3C//DTD SVG 1.1//EN" "http://www.w3.org/Graphics/SVG/1.1/DTD/svg11.dtd">
<svg version="1.1" id="Layer_1" xmlns="http://www.w3.org/2000/svg" xmlns:xlink="http://www.w3.org/1999/xlink" x="0px" y="0px"
	 width="183px" height="155px" viewBox="0 0 183 155" enable-background="new 0 0 183 155" xml:space="preserve">
<g>
	<g>
		<path fill="#19A9E1" d="M125.067,48.385c0.015-0.879,0.039-1.749,0.039-2.649c0-33.612-33.606-32.61-33.606-32.61
			s-33.609-1.002-33.609,32.61c0,0.9,0.024,1.77,0.039,2.649c-4.956,1.14-7.923,7.731-6.645,14.973
			c1.128,6.417,5.22,11.22,9.648,11.802c0.102,0.438,0.201,0.912,0.309,1.332c1.935,7.868,12.507,26.744,30.258,26.744
			c17.754,0,28.323-18.876,30.268-26.744c0.099-0.42,0.194-0.894,0.3-1.332c4.428-0.582,8.52-5.385,9.648-11.802
			C132.993,56.116,130.026,49.525,125.067,48.385z"/>
		<path fill="#474747" d="M135.337,110.214l-22.902-5.976l-16.603,12.072l4.485,23.526h0.003l-8.82,8.819l-8.82-8.819l4.485-23.526
			l-16.599-12.072l-22.902,5.976c-12.429,3.24-21.105,14.467-21.105,27.318v16.771h129.883v-16.771
			C156.441,124.681,147.766,113.454,135.337,110.214z"/>
	</g>
	<g>
		<path fill="#474747" d="M131.238,44.566c5.295,3.81,8.007,11.469,6.528,19.86c-1.102,6.252-4.419,11.508-8.77,14.438
			c13.5-2.07,21.547-16.658,23.115-23.012c0.09-0.366,0.174-0.78,0.259-1.164c3.854-0.504,7.419-4.686,8.402-10.269
			c1.11-6.303-1.47-12.042-5.787-13.035c0.01-0.768,0.033-1.521,0.033-2.304c0-29.256-29.25-28.38-29.25-28.38
			s-12.99-0.378-21.66,8.028C117.051,12.382,130.773,22.414,131.238,44.566z"/>
		<g>
			<path fill="#474747" d="M163.921,85.2l-19.933-5.196L129.54,90.51l2.376,12.463l4.972,1.296
				c10.362,2.706,18.579,9.972,22.734,19.308h22.674v-14.592C182.296,97.8,174.742,88.026,163.921,85.2z"/>
		</g>
	</g>
	<g>
		<path fill="#474747" d="M30.629,54.688c0.084,0.384,0.168,0.798,0.264,1.164c1.566,6.354,9.612,20.942,23.109,23.012
			c-4.35-2.93-7.668-8.186-8.769-14.444c-1.479-8.385,1.23-16.044,6.525-19.851c0.465-22.155,14.19-32.188,27.132-35.842
			C70.224,0.322,57.23,0.7,57.23,0.7S27.98-0.176,27.98,29.08c0,0.783,0.021,1.536,0.033,2.304
			c-4.317,0.993-6.897,6.732-5.787,13.035C23.21,50.002,26.774,54.184,30.629,54.688z"/>
		<g>
			<path fill="#474747" d="M46.113,104.269l4.971-1.296l2.373-12.463L39.012,80.004L19.079,85.2
				C8.258,88.026,0.704,97.8,0.704,108.984v14.592h22.674C27.533,114.24,35.75,106.975,46.113,104.269z"/>
		</g>
	</g>
</g>
</svg>
