<?xml version="1.0" encoding="utf-8"?>
<!-- Generator: Adobe Illustrator 16.0.0, SVG Export Plug-In . SVG Version: 6.00 Build 0)  -->
<!DOCTYPE svg PUBLIC "-//W3C//DTD SVG 1.1//EN" "http://www.w3.org/Graphics/SVG/1.1/DTD/svg11.dtd">
<svg version="1.1" id="Layer_1" xmlns="http://www.w3.org/2000/svg" xmlns:xlink="http://www.w3.org/1999/xlink" x="0px" y="0px"
	 width="102px" height="102px" viewBox="0 0 102 102" enable-background="new 0 0 102 102" xml:space="preserve">
<circle fill="#FFFFFF" cx="51" cy="51" r="50.5"/>
<g>
	<path fill-rule="evenodd" clip-rule="evenodd" fill="#434343" d="M51.774,26.747l-8.934,6.35V30.3h-8.016v8.498l-8.74,6.217
		l3.138,5.723l3.673-2.61v8.441c0.845-0.55,2.13-1.022,3.126-1.202v-9.462l15.752-11.206l15.753,11.206v20.32h-4.637V54.382h-8.903
		v11.843h-9.133c-0.474,1.081-1.162,2.134-1.962,3.128h27.763V48.127l3.668,2.61l3.145-5.723L51.774,26.747z"/>
	<path fill-rule="evenodd" clip-rule="evenodd" fill="#434343" d="M37.837,59.437c-1.688,0-3.181,0.823-4.111,2.094
		c-0.922-1.271-2.414-2.094-4.102-2.094c-2.811,0-5.092,2.284-5.092,5.092c0,5.036,9.194,10.725,9.194,10.725
		s9.207-5.966,9.207-10.725C42.933,61.721,40.651,59.437,37.837,59.437z"/>
	<rect x="41.683" y="49.289" fill-rule="evenodd" clip-rule="evenodd" fill="#434343" width="7.928" height="7.931"/>
</g>
</svg>
