<?xml version="1.0" encoding="UTF-8"?>
<!DOCTYPE svg PUBLIC "-//W3C//DTD SVG 1.1//EN" "http://www.w3.org/Graphics/SVG/1.1/DTD/svg11.dtd">
<!-- Creator: CorelDRAW -->
<svg xmlns="http://www.w3.org/2000/svg" xml:space="preserve" width="67px" height="55px" style="shape-rendering:geometricPrecision; text-rendering:geometricPrecision; image-rendering:optimizeQuality; fill-rule:evenodd; clip-rule:evenodd"
viewBox="0 0 67 54.9999"
 xmlns:xlink="http://www.w3.org/1999/xlink">
 <defs>
  <style type="text/css">
   <![CDATA[
    .str0 {stroke:#333333;stroke-width:1.24962}
    .str1 {stroke:#C4C8CD;stroke-width:8.33278}
    .fil3 {fill:none}
    .fil5 {fill:#161614}
    .fil2 {fill:#333333}
    .fil0 {fill:#393939}
    .fil4 {fill:#999999}
    .fil1 {fill:white}
   ]]>
  </style>
 </defs>
 <g id="teleconsulting" visibility="hidden">
  <metadata id="CorelCorpID_0Corel-Layer"/>
  <rect class="fil0" x="30.5246" y="13.9895" width="17.3136" height="17.2473" rx="8.5938" ry="8.5938"/>
  <polygon class="fil1" points="37.1839,17.5986 37.1839,20.5727 34.1886,20.5727 34.1886,24.6015 37.2111,24.6015 37.2111,27.6287 41.2056,27.6287 41.2056,24.6015 44.1737,24.6015 44.1737,20.5467 41.1784,20.5467 41.1477,17.5975 "/>
  <path class="fil0" d="M28.2511 31.9232c2.12483,2.12601 4.58627,4.15753 5.55833,3.18429 1.39372,-1.39254 2.25121,-2.60554 5.32211,-0.138191 3.06972,2.46853 0.712213,4.11383 -0.637803,5.46266 -1.55671,1.55671 -7.35954,0.0826781 -13.0962,-5.654 -5.73668,-5.73668 -7.2119,-11.5407 -5.654,-13.0974 1.34883,-1.35002 2.99413,-3.70634 5.46148,-0.636622 2.46735,3.06854 1.25553,3.92839 -0.138191,5.32093 -0.972059,0.97324 1.05946,3.4335 3.18429,5.55833z"/>
 </g>
 <g id="Layer_x0020_2" visibility="hidden">
  <metadata id="CorelCorpID_1Corel-Layer"/>
  <polygon class="fil2" points="36.4953,41.4099 36.4953,63.974 56.67,63.974 56.67,41.4135 "/>
 </g>
 <g id="Layer_x0020_3" visibility="hidden">
  <metadata id="CorelCorpID_2Corel-Layer"/>
  <g id="_38409184">
   <polygon id="_38414560" class="fil3 str0" points="0.674417,10.1222 1.19529,64.1039 65.4374,64.1039 65.4374,7.29457 33.5827,-7.83671 "/>
   <path id="_38413256" class="fil2" d="M-11.0505 12.5246l16.1211 -12.8127 -0.132285 -15.6167 13.5887 0 0 4.80596 14.7899 -10.545 44.7348 34.2476 -13.1565 0c-19.5132,-12.3297 -40.4095,-15.2553 -63.687,-0.0803159l-12.2588 0.00118112z"/>
   <g>
    <rect id="_38412464" class="fil4" x="-5.60697" y="45.6072" width="25.0191" height="24.9232" rx="8.5938" ry="8.5938"/>
    <polygon id="_38410464" class="fil1" points="3.33311,49.1049 3.33311,54.4211 -2.02207,54.4211 -2.02207,61.6224 3.38035,61.6224 3.38035,67.0354 10.5214,67.0354 10.5214,61.6224 15.8281,61.6224 15.8281,54.3739 10.473,54.3739 10.4174,49.1025 "/>
   </g>
   <polygon id="_38409280" class="fil2" points="12.9427,17.6825 31.8205,17.6825 31.8205,27.4692 12.9415,27.4692 "/>
  </g>
 </g>
 <g id="Layer_x0020_4" visibility="hidden">
  <metadata id="CorelCorpID_3Corel-Layer"/>
  <g id="_61649280">
   <path id="_61776776" class="fil5" d="M-2203.95 599.968l-54.5132 38.7583 0 -17.0707 -48.9336 0 0 51.8711 -53.338 37.9375 19.1872 34.9303c0,-0.00826781 22.3999,-15.938 22.3999,-15.938l0 51.5002c5.14612,-3.36264 12.9793,-6.22803 19.0668,-7.32056l0.00118112 -57.746 96.1299 -68.3595 96.1346 68.3677 0 124.001 -28.2925 0 0 -72.2843 -54.3384 0 0 72.2843 -55.7416 0c-2.88783,6.59181 -7.08434,13.0135 -11.9505,19.0679l169.395 -0.00118112 0 -129.505 22.3951 15.925 19.192 -34.9221 -156.793 -111.496z"/>
   <path id="_61648496" class="fil5" d="M-2292.05 791.832c-10.3052,0 -19.4176,5.02919 -25.068,12.7584 -5.654,-7.72922 -14.7545,-12.7584 -25.0668,-12.7584 -17.1498,0 -31.0622,13.9053 -31.0622,31.0634 0,30.7126 56.129,65.4421 56.129,65.4421 0.00118112,0 56.1432,-36.4174 56.1432,-65.4421 0,-17.1593 -13.9135,-31.0634 -31.0752,-31.0634z"/>
   <polygon id="_62207600" class="fil5" points="-2220.2,729.881 -2268.61,729.881 -2268.61,778.299 -2220.2,778.299 "/>
  </g>
  <polygon class="fil3 str1" points="-1168.32,-1181.22 -570.401,-1181.22 -570.401,-583.29 -1168.32,-583.29 "/>
  <polygon class="fil3 str1" points="-570.401,-1181.22 27.5224,-1181.22 27.5224,-583.29 -570.401,-583.29 "/>
  <polygon class="fil3 str1" points="27.5224,-1181.22 625.441,-1181.22 625.441,-583.29 27.5224,-583.29 "/>
  <polygon class="fil3 str1" points="625.441,-1181.22 1223.37,-1181.22 1223.37,-583.29 625.441,-583.29 "/>
  <path class="fil5" d="M326.305 -883.32c41.3745,0 74.917,-33.5343 74.917,-74.917 0.00118112,-41.3721 -33.5425,-74.9052 -74.9182,-74.9052 -41.3698,0 -74.917,33.5331 -74.917,74.9052 0.00118112,41.3828 33.5461,74.9182 74.9182,74.917z"/>
  <path class="fil5" d="M-192.397 -1002.19c0,22.9833 -18.6333,41.6154 -41.6178,41.6154 -22.9786,-0.00118112 -41.6119,-18.6321 -41.6119,-41.6143 0,-22.9833 18.6333,-41.6143 41.6119,-41.6143 22.9845,-0.00118112 41.6178,18.6321 41.6178,41.6131z"/>
  <path class="fil5" d="M1070.34 -956.415c-94.9216,-42.6501 -253.491,-55.2668 -290.333,12.4171 -5.55361,10.2072 -8.00915,27.5401 8.24065,48.864 1.78112,2.3327 4.93825,2.14609 6.99221,-0.503156 35.1512,-45.31 79.3675,-59.9287 273.133,-52.816 4.9914,0.181892 5.73668,-6.26582 1.96656,-7.9619z"/>
  <path class="fil5" d="M1042.64 -885.932c-55.5302,72.6493 -144.619,29.0566 -173.898,17.4345 -29.2881,-11.6245 -43.9257,16.4695 -43.9257,16.4695 16.5581,-8.59026 27.3712,-6.37094 38.5044,1.35002 -18.0829,10.2131 -25.8298,32.9236 -25.8298,32.9236 30.0476,-23.3814 50.6888,-16.0372 50.6888,-16.0372 -20.1995,10.0442 -26.3802,41.9355 -26.3802,41.9355 34.7591,-30.4586 56.8719,-29.5055 56.8719,-29.5055 -20.1699,16.6514 -15.6085,56.207 -15.6085,56.207 18.4171,-42.0525 53.1136,-50.0427 53.1136,-50.0427 -9.74185,21.6676 3.94493,53.8471 3.94493,53.8471 0.634259,-31.2937 23.392,-56.4644 34.563,-66.9657 0,0 -2.5831,18.612 15.8128,39.0914 -6.72882,-29.6744 8.07057,-53.6286 17.7675,-67.5421 15.7962,-19.8593 14.3742,-29.1653 14.3754,-29.1653z"/>
  <path class="fil5" d="M837.898 -780.889c-6.91189,-16.3029 -17.0589,-17.1309 -25.4306,-34.9551 -4.45281,-9.49381 -3.42878,-19.088 -3.42878,-19.088 0.00118112,0 -28.3421,29.7452 -25.4164,63.3374 1.05356,12.1608 9.50799,23.3034 23.1546,25.7164 29.4759,5.20754 37.7201,-19.4424 31.1212,-35.0106z"/>
  <g id="_39301984">
   <path id="_61642768" class="fil0" d="M34.0575 14.6388l-4.86266 3.45713 0 -1.52246 -4.36541 0 0 4.62643 -4.75754 3.3839 1.71144 3.11578c0,0 1.99845,-1.42088 1.99845,-1.42088l0 4.59336c0.459454,-0.300004 1.15749,-0.555125 1.70081,-0.653157l0 -5.15085 8.5749 -6.0981 8.57609 6.09928 0 11.0612 -2.52405 0 0 -6.44771 -4.8473 0 0 6.44771 -4.9725 0c-0.257483,0.588196 -0.631897,1.16104 -1.06537,1.70081l15.11 0 0 -11.5525 1.99727 1.42088 1.71262 -3.11578 -13.9868 -9.945z"/>
   <path id="_39945152" class="fil0" d="M26.1983 31.7531c-0.918908,0 -1.73152,0.448824 -2.23585,1.1386 -0.504337,-0.689772 -1.31576,-1.1386 -2.23585,-1.1386 -1.52955,0 -2.7709,1.24017 -2.7709,2.7709 0,2.74019 5.00675,5.83708 5.00675,5.83708 0,0 5.00793,-3.24807 5.00793,-5.83708 0,-1.53073 -1.24017,-2.7709 -2.77208,-2.7709z"/>
   <polygon id="_61642648" class="fil0" points="32.6083,26.2267 28.2901,26.2267 28.2901,30.546 32.6083,30.546 "/>
  </g>
 </g>
 <g id="Layer_x0020_5" visibility="hidden">
  <metadata id="CorelCorpID_4Corel-Layer"/>
  <g id="_61650480">
   <path id="_39996032" class="fil0" d="M33.5 27.4999c-4.01816,0 -7.27568,3.25634 -7.27568,7.27568 0,4.01698 3.25752,7.27568 7.27568,7.27568 4.01816,0 7.27568,-3.2587 7.27568,-7.27568 0,-4.01816 -3.25752,-7.27568 -7.27568,-7.27568zm4.36541 8.73081l-2.91027 0 0 2.91027 -2.91027 0 0 -2.91027 -2.91027 0 0 -2.91027 2.91027 0 0 -2.91027 2.91027 0 0 2.91027 2.91027 0 0 2.91027z"/>
   <path id="_37647728" class="fil0" d="M47.1986 26.6472c0,-0.00118112 -0.00236223,-0.00236223 -0.00354335,-0.00354335l-3.49847 -3.49847 0 -5.82054 -2.91027 0 0 2.91027 -7.28631 -7.28631 -13.6986 13.6986c-1.13623,1.13741 -1.13741,2.97996 0,4.11619 1.13623,1.13623 2.97878,1.13623 4.11501,0 0.00118112,-0.00118112 0.00236223,-0.00354335 0.00354335,-0.00472446l9.58003 -9.57885 9.58358 9.58358c1.13623,1.13623 2.97878,1.13623 4.11501,0 1.13623,-1.13623 1.13623,-2.97878 0,-4.11619z"/>
  </g>
 </g>
 <g id="Layer_x0020_6" visibility="hidden">
  <metadata id="CorelCorpID_5Corel-Layer"/>
  <path class="fil0" d="M47.2872 26.5314c0,-0.00118112 -0.00236223,-0.00236223 -0.00354335,-0.00354335l-3.52091 -3.51973 0 -5.85597 -2.92799 0 0 2.92799 -7.33001 -7.33119 -13.7824 13.7824c-1.14332,1.1445 -1.1445,2.99767 0,4.14217 1.14332,1.14214 2.99649,1.14214 4.13981,0 0.00236223,-0.00118112 0.00354335,-0.00354335 0.00472446,-0.00472446l9.63791 -9.63909 9.64263 9.64381c1.14332,1.14214 2.99649,1.14214 4.13981,0 1.14332,-1.1445 1.14332,-2.99885 0,-4.14217z"/>
  <g id="_61781312">
   <path id="_61953392" class="fil0" d="M24.9948 32.7252l3.66264 -2.15908 1.66774 2.82995c0.764182,-0.526778 1.87679,-0.775993 2.60318,-0.763001 1.09253,0.020079 2.29137,0.402761 2.79925,0.498431 0.982689,-0.927176 1.47876,-2.76617 0.585834,-4.25556 -1.23427,-2.05514 -3.49847,-1.94176 -4.74454,-1.22482l-7.09851 4.18351c-1.9205,1.20474 -2.0327,3.37327 -1.226,4.74218 1.09017,1.85081 3.17956,2.14491 4.8721,1.15041 -0.0389768,-0.413391 -0.0129923,-0.818514 0.0767726,-1.23072 -1.24608,0.859853 -2.90555,1.24962 -4.05595,-0.441737 -0.679142,-0.996862 -0.341343,-2.59491 0.85749,-3.32957z"/>
   <path id="_61807864" class="fil0" d="M43.1367 39.3087c-0.411028,2.0079 -2.23822,2.02207 -2.86775,1.88979l-4.16816 -0.864577 0.987413 -4.75872 4.16225 0.864577c1.30395,0.270476 2.16026,1.53545 1.88624,2.86893zm-1.67364 -3.88115l-8.07175 -1.67482c-2.14136,-0.283468 -3.54689,0.672055 -4.09611,2.69058 -0.494888,1.8201 0.727568,3.57524 2.68822,4.09257l8.07057 1.67364c1.40671,0.162994 3.54689,-0.235042 4.09493,-2.68822 0.483077,-2.16735 -1.18466,-3.76304 -2.68586,-4.09375z"/>
  </g>
 </g>
 <g id="Layer_x0020_7" visibility="hidden">
  <metadata id="CorelCorpID_6Corel-Layer"/>
  <g id="_61831896">
   <polygon id="_40079344" class="fil0" points="33.6996,22.4483 32.3838,23.7652 33.5969,24.9771 32.7878,25.7861 31.576,24.5731 30.259,25.8889 31.472,27.1019 30.6641,27.9098 29.4511,26.6968 28.1354,28.0125 29.3472,29.2255 28.5393,30.0346 27.3263,28.8216 26.0105,30.1374 30.8614,34.9882 38.5505,27.3003 "/>
   <path id="_61647360" class="fil0" d="M46.1746 19.2711c0.214963,0.213782 0.505518,0.334256 0.809065,0.334256 0.302366,0 0.594101,-0.120474 0.807884,-0.334256l-6.06267 -6.06267c-0.214963,0.213782 -0.335437,0.504337 -0.335437,0.807884 0,0.303547 0.120474,0.594101 0.335437,0.807884l0.201971 0.203152 -2.5642 2.56302 -3.2339 -3.2339 -0.605913 0.605913c-0.335437,0.334256 -0.335437,0.87875 -0.00118112,1.21301l0.607094 0.605913 -12.1856 12.1856c-0.459454,0.459454 -0.620086,1.1386 -0.414572,1.75514l1.18112 3.54217 -1.0819 1.0819c-0.488982,0.488982 -0.549219,1.24372 -0.181892,1.79884l-4.15753 4.15753c-0.112206,0.111025 -0.112206,0.291736 0,0.403942 0.0555125,0.0555125 0.128742,0.0838593 0.201971,0.0838593 0.0732292,0 0.146458,-0.0283468 0.201971,-0.0838593l4.15753 -4.15635c0.238585,0.157088 0.512604,0.236223 0.787805,0.236223 0.366146,0 0.732292,-0.139372 1.01104,-0.419296l1.0819 -1.0819 3.54217 1.18112c0.616543,0.205514 1.29568,0.0448824 1.75514,-0.414572l12.1856 -12.1856 0.605913 0.605913c0.335437,0.335437 0.87875,0.335437 1.21301,0.00118112l0.605913 -0.607094 -3.23272 -3.2339 2.56302 -2.56302 0.201971 0.201971zm-3.43587 -3.43587l1.0134 1.0134 -2.5642 2.56302 -1.01222 -1.0134 2.56302 -2.56302zm-11.5915 20.4841c-0.153545,0.154726 -0.377957,0.206695 -0.585834,0.138191l-6.02015 -6.02133c-0.0685047,-0.206695 -0.0153545,-0.429926 0.138191,-0.584653l12.2623 -12.2612 6.46779 6.46779 -12.2623 12.2612zm11.4533 -15.4951l-1.00749 -1.00867 2.56302 -2.56302 1.00867 1.00749 -2.5642 2.5642z"/>
  </g>
 </g>
 <g id="Layer_x0020_8" visibility="hidden">
  <metadata id="CorelCorpID_7Corel-Layer"/>
  <path class="fil1" d="M59.7326 11.8726c-2.05869,-0.758277 -3.78312,1.44687 -4.91226,3.86816l-4.57801 8.93869c-0.368508,-0.0271657 -0.702764,-0.0696859 -0.992138,-0.178349 -0.191341,-0.0720481 -0.375595,-0.196065 -0.557487,-0.336618l4.15635 -19.1258c0.343705,-1.59687 -0.634259,-3.1583 -2.17562,-3.53981 -1.5449,-0.377957 -3.13704,0.545676 -3.58705,2.11774l-5.53353 18.4679c-0.281106,-0.00354335 -0.581109,-0.0413391 -0.915365,-0.138191 -0.127561,-0.0366146 -0.25394,-0.111025 -0.381501,-0.210239l2.00908 -23.2869c0.196065,-1.86144 -1.01812,-3.50319 -2.70712,-3.7217 -1.689,-0.218507 -3.2835,1.05946 -3.56815,2.90909l-3.28941 22.792c-0.354335,0.205514 -0.680323,0.353154 -0.974421,0.364965 -0.28583,0.0118112 -0.524416,-0.113387 -0.7193,-0.305909l-0.103938 -19.2616c0.0625992,-1.77522 -1.30868,-3.25043 -3.05082,-3.34728 -1.74569,-0.0944893 -3.25752,1.226 -3.39925,2.99531l-1.09844 21.1089c-0.235042,1.99963 -0.784261,4.94888 -2.00199,5.37526 -1.33702,0.467722 -2.25711,-0.135828 -2.26656,-0.141734l-4.45871 -5.58077c-0.982689,-1.79057 -4.90872,-3.89768 -7.41623,-3.40752l-0.218507 0.0779537c-1.91931,1.05592 -0.787805,2.68231 0.197246,4.47643 0,0 3.56697,5.04337 6.2422,10.2993 2.67405,5.25597 5.60203,11.2241 5.60203,11.2241 0.637803,1.65002 2.3327,4.39493 3.98391,6.0981 0.770088,-0.664968 0.813789,-0.93072 0.923633,-1.78585 0.150002,-1.15277 -0.0602369,-3.27169 -0.0602369,-3.27169 -0.115749,-1.05828 -0.381501,-3.45831 -0.650795,-5.64574 -0.355516,-2.91381 -1.16694,-5.87842 -1.16694,-5.87842 -0.154726,-1.00631 -0.407485,-1.95947 0.669693,-2.12601l0.115749 0c1.25553,0.197246 2.7331,1.85081 2.88901,2.85594l1.13505 3.36736c0.00118112,0.00118112 0.32835,0.442919 1.03584,0.451186 0.641346,0.00826781 1.39962,-1.27679 1.84963,-2.17089l4.10556 -9.68515c0.366146,-0.803159 1.29805,-1.1634 2.09766,-0.822057 0.798435,0.341343 1.1882,1.26379 0.85749,2.08349l-3.22681 9.02373c0.0578747,0.124017 0.14764,0.223231 0.283468,0.265751 0.140553,0.0448824 0.316539,0.030709 0.51851,-0.00472446l5.41424 -10.0974c0.447643,-0.817332 1.41025,-1.14332 2.1638,-0.753552 0.752371,0.388587 1.04056,1.36419 0.631897,2.20042l-4.89927 10.5474c0.0425202,0.0673236 0.0874026,0.124017 0.141734,0.162994 0.141734,0.102757 0.2752,0.167719 0.407485,0.217325l5.72605 -7.69143c0.477171,-0.659063 1.37954,-0.819695 2.03743,-0.380319 0.65552,0.440556 0.84686,1.33702 0.414572,2.02561l-5.19573 8.23592c0.061418,0.0968515 0.126379,0.185435 0.203152,0.252759 0.115749,0.0992138 0.258664,0.180711 0.419296,0.259846l2.63861 -2.81342c0.871664,-1.00277 1.99963,-1.8201 2.87956,-1.17403 0.879932,0.643708 0.0649614,2.14963 -0.569298,3.01421l-2.29727 2.81578 -1.28505 1.71026c0,0 -1.11143,1.57325 -2.52286,3.35555l-0.214963 0.28583c-0.0791348,0.107482 -0.166537,0.210239 -0.258664,0.305909 -0.574022,0.707489 -1.17875,1.42561 -1.77049,2.0705 -1.14214,1.24844 -4.58982,5.24888 -7.98671,8.67884l19.2782 0c0,0 0.85749,0.165356 0.483077,-1.25671 -0.488982,-1.85199 -1.15159,-6.33551 1.66301,-16.1837 1.25553,-4.3973 2.38822,-8.04458 3.19964,-10.5769 0.993319,-2.93625 2.13191,-6.30007 2.59137,-7.65481 0.876388,-2.5772 2.57838,-6.80795 2.57838,-6.80795 0.744103,-2.02089 1.52364,-5.18038 -0.532683,-5.93747z"/>
 </g>
 <g id="Layer_x0020_9">
  <metadata id="CorelCorpID_8Corel-Layer"/>
  <g id="_39819344">
   <path id="_39673664" class="fil1" d="M5.86424 26.4499c0.627173,-1.13033 1.65474,-1.94884 2.8961,-2.30318l26.7783 -7.67017c0.246853,0.196065 0.487801,0.411028 0.715756,0.66615 0.77245,2.18979 -0.617724,2.44137 -4.85084,5.35754 -4.63234,3.18783 -5.41069,5.72605 -4.04296,7.45521 1.36891,1.72915 3.71225,0.988594 6.03432,-0.706308 7.96781,-5.81345 16.61,-8.66349 20.6589,-9.77137l0.191341 -0.0177167 0 -16.3171c-0.172443,-0.0248034 -0.342524,-0.050788 -0.522053,-0.0590558 -9.90484,-0.506699 -22.6904,0.331894 -22.6904,0.331894 -2.01853,-0.294098 -3.93902,1.23309 -3.93902,1.23309 0,0 -7.45639,7.14457 -12.6734,10.669l-12.3368 0.512604c-0.636622,0.0271657 -1.13623,0.569298 -1.10907,1.20592l1.05474 25.3479c0.0271657,0.636622 0.569298,1.13623 1.20592,1.10907l5.96464 -0.248034 -3.75713 -13.1175c-0.355516,-1.24135 -0.205514,-2.54649 0.421658,-3.678z"/>
   <g>
    <path id="_62275512" class="fil1" d="M58.5869 23.294l-5.10006 0 4.11973 14.386 -10.4399 2.99059c1.45632,-2.83586 1.88979,-6.2044 0.942531,-9.50917 -0.588196,-2.0575 -1.64766,-3.84808 -3.01893,-5.30557 -2.16735,0.987413 -4.47289,2.1827 -6.77843,3.61303l-1.04647 1.83073 -0.212601 -0.120474c-0.278743,-0.160632 -0.542132,-0.274019 -0.798435,-0.366146 -0.379138,0.261027 -0.758277,0.526778 -1.13387,0.800797 -0.348429,0.255121 -0.693315,0.480714 -1.03348,0.692134 0.0496069,0.0389768 0.0874026,0.081497 0.150002,0.118112 0.19016,0.116931 0.604732,0.274019 1.52482,0.373233 1.42679,0.162994 2.40475,0.36024 2.99295,0.602369 0.591739,0.244491 1.10316,0.604732 1.51892,1.06891 0.414572,0.461816 0.721662,1.03466 0.911822,1.70199 0.191341,0.662606 0.229137,1.32639 0.113387,1.97246 -0.114568,0.647252 -0.348429,1.20946 -0.694496,1.66892 -0.31772,0.424021 -0.817332,0.826781 -1.48703,1.20001l0.653157 2.2831 -2.04451 0.585834 -0.635441 -2.21577c-0.699221,0.0956704 -1.33939,0.0767726 -1.9075,-0.0543313 -0.83623,-0.193703 -1.6701,-0.538589 -2.47916,-1.02403l-0.198428 -0.120474 1.35592 -2.5205 0.218507 0.131104c1.26852,0.755914 2.36223,1.01222 3.24453,0.759458 0.427564,-0.122836 0.741741,-0.368508 0.96261,-0.753552 0.219688,-0.383863 0.270476,-0.760639 0.15827,-1.15631 -0.0968515,-0.336618 -0.272838,-0.595283 -0.535046,-0.788986 -0.278743,-0.20079 -0.774812,-0.356697 -1.47167,-0.464179 -1.54136,-0.239767 -2.57956,-0.470084 -3.17248,-0.705126 -0.60355,-0.238585 -1.10316,-0.565755 -1.48821,-0.97324 -0.128742,-0.138191 -0.226774,-0.295279 -0.330713,-0.448824 -0.705126,0.214963 -1.38899,0.323626 -2.04687,0.323626 -1.72443,0 -3.26342,-0.744103 -4.3347,-2.0953 -0.627173,-0.79371 -1.02048,-1.67719 -1.17049,-2.61381 -1.31813,2.76263 -1.69018,5.98708 -0.781899,9.15956 0.946074,3.30594 3.09925,5.93275 5.83471,7.56859l-9.30129 2.6646 -4.92407 -17.1888 9.12767 -2.61381c-0.0366146,-0.438194 -0.0271657,-0.883475 0.0413391,-1.33584 0.226774,-1.51065 1.03702,-2.99177 2.43782,-4.47525l-16.5581 4.74218c-0.611818,0.174805 -0.969696,0.819695 -0.79371,1.43269l6.9863 24.3889c0.0874026,0.30709 0.291736,0.549219 0.551581,0.693315 0.259846,0.144096 0.574022,0.19016 0.881113,0.101576l45.1612 -12.9356c0.611818,-0.175986 0.969696,-0.819695 0.794891,-1.43269l-4.7658 -16.636z"/>
    <path id="_39948432" class="fil1" d="M58.4735 0.656701c0,0 -1.66537,0.177167 -1.76813,1.56025 -0.101576,4.26737 0,16.8321 0,18.2494 0,1.72207 1.5886,2.0138 1.5886,2.0138l7.73277 0 0 -21.8235 -7.55324 0z"/>
   </g>
  </g>
 </g>
</svg>
