<?xml version="1.0" encoding="utf-8"?>
<!-- Generator: Adobe Illustrator 16.0.0, SVG Export Plug-In . SVG Version: 6.00 Build 0)  -->
<!DOCTYPE svg PUBLIC "-//W3C//DTD SVG 1.1//EN" "http://www.w3.org/Graphics/SVG/1.1/DTD/svg11.dtd">
<svg version="1.1" id="Layer_1" xmlns="http://www.w3.org/2000/svg" xmlns:xlink="http://www.w3.org/1999/xlink" x="0px" y="0px"
	 width="101px" height="101px" viewBox="0 0 101 101" enable-background="new 0 0 101 101" xml:space="preserve">
<circle fill="#F2F2F2" cx="50.384" cy="50.5" r="50"/>
<g display="none">
	<circle display="inline" fill="#4CBD95" cx="43.186" cy="27.995" r="5.626"/>
	<g display="inline">
		<circle fill="#4CBD95" cx="43.186" cy="61.753" r="2.813"/>
		<path fill="#4CBD95" d="M73.006,68.504h-2.362c-0.736-6.114-5.404-11.035-11.396-12.143c-0.412-1.347-0.969-2.654-1.681-3.888
			c-0.468-0.807-1.502-1.083-2.307-0.615c-0.809,0.466-1.083,1.499-0.617,2.306c1.339,2.313,2.047,4.938,2.047,7.589
			c0,7.446-6.058,13.503-13.504,13.503c-7.445,0-13.503-6.057-13.503-13.503S35.74,48.25,43.186,48.25h15.191
			c0.932,0,1.688-0.756,1.688-1.688c0-0.932-0.756-1.688-1.688-1.688h-6.778c-0.276-4.411-3.932-7.905-8.413-7.905
			c-4.661,0-8.439,3.778-8.439,8.439v1.743c-5.04,2.919-8.439,8.356-8.439,14.603c0,9.32,7.558,16.879,16.879,16.879
			c9.088,0,16.479-7.189,16.844-16.187c2.996,1.297,5.1,4.279,5.1,7.747c0,0.932,0.756,1.688,1.688,1.688h6.189
			c0.932,0,1.688-0.756,1.688-1.688S73.938,68.504,73.006,68.504z"/>
	</g>
</g>
<path fill="#4CBD95" d="M73.619,36.658c-1.822-0.671-3.351,1.282-4.35,3.426l-4.056,7.918c-0.327-0.023-0.622-0.062-0.879-0.158
	c-0.169-0.064-0.332-0.173-0.494-0.298l3.682-16.941c0.305-1.414-0.562-2.797-1.927-3.135c-1.369-0.335-2.779,0.483-3.177,1.875
	l-4.902,16.358c-0.248-0.003-0.515-0.036-0.811-0.122c-0.113-0.033-0.225-0.099-0.338-0.187l1.779-20.626
	c0.174-1.649-0.902-3.103-2.397-3.297c-1.497-0.193-2.909,0.939-3.161,2.578l-2.914,20.188c-0.315,0.182-0.603,0.313-0.862,0.323
	c-0.254,0.011-0.465-0.1-0.639-0.271l-0.091-17.061c0.055-1.572-1.16-2.879-2.704-2.964c-1.545-0.084-2.885,1.085-3.009,2.652
	l-0.973,18.699c-0.208,1.772-0.695,4.384-1.773,4.761c-1.186,0.414-2-0.121-2.008-0.125l-3.95-4.943
	c-0.87-1.586-4.348-3.453-6.569-3.019l-0.194,0.069c-1.7,0.935-0.698,2.376,0.174,3.965c0,0,3.16,4.467,5.529,9.124
	c2.369,4.655,4.962,9.941,4.962,9.941c0.566,1.462,2.066,3.893,3.529,5.402c0.683-0.59,0.72-0.824,0.818-1.583
	c0.131-1.021-0.054-2.897-0.054-2.897c-0.103-0.938-0.338-3.063-0.576-5.001c-0.316-2.58-1.033-5.207-1.033-5.207
	c-0.138-0.892-0.362-1.735,0.592-1.883h0.103c1.112,0.175,2.42,1.639,2.559,2.529l1.005,2.982c0.001,0.002,0.291,0.393,0.917,0.4
	c0.568,0.008,1.239-1.131,1.639-1.924l3.636-8.579c0.324-0.711,1.15-1.03,1.858-0.729c0.708,0.303,1.054,1.121,0.76,1.847
	l-2.858,7.993c0.052,0.109,0.131,0.197,0.252,0.235c0.124,0.04,0.28,0.027,0.458-0.005l4.797-8.943
	c0.396-0.724,1.249-1.013,1.916-0.667c0.666,0.345,0.923,1.208,0.561,1.949l-4.341,9.344c0.038,0.06,0.079,0.109,0.127,0.145
	c0.124,0.09,0.243,0.147,0.36,0.191l5.072-6.813c0.423-0.583,1.221-0.727,1.805-0.336c0.58,0.39,0.75,1.184,0.367,1.793
	l-4.604,7.296c0.055,0.085,0.112,0.164,0.182,0.223c0.102,0.089,0.229,0.16,0.371,0.23l2.337-2.492
	c0.772-0.888,1.771-1.611,2.551-1.04s0.058,1.905-0.504,2.671l-2.035,2.494l-1.139,1.515c0,0-0.984,1.394-2.235,2.973l-0.189,0.253
	c-0.07,0.095-0.146,0.186-0.229,0.27c-0.508,0.629-1.044,1.264-1.568,1.835c-1.012,1.107-4.065,4.649-7.073,7.688h17.074
	c0,0,0.761,0.146,0.429-1.113c-0.434-1.642-1.02-5.612,1.473-14.336c1.113-3.894,2.116-7.125,2.835-9.369
	c0.88-2.601,1.888-5.58,2.296-6.78c0.774-2.282,2.283-6.03,2.283-6.03C74.751,40.127,75.441,37.328,73.619,36.658z"/>
</svg>
