<?xml version="1.0" encoding="UTF-8"?>
<!DOCTYPE svg PUBLIC "-//W3C//DTD SVG 1.1//EN" "http://www.w3.org/Graphics/SVG/1.1/DTD/svg11.dtd">
<!-- Creator: CorelDRAW -->
<svg xmlns="http://www.w3.org/2000/svg" xml:space="preserve" width="57px" height="67px" style="shape-rendering:geometricPrecision; text-rendering:geometricPrecision; image-rendering:optimizeQuality; fill-rule:evenodd; clip-rule:evenodd"
viewBox="0 0 57 66.9992"
 xmlns:xlink="http://www.w3.org/1999/xlink">
 <defs>
  <style type="text/css">
   <![CDATA[
    .str0 {stroke:#333333;stroke-width:1.24961}
    .str1 {stroke:#C4C8CD;stroke-width:8.33268}
    .fil3 {fill:none}
    .fil5 {fill:#161614}
    .fil6 {fill:#3B3B3E}
    .fil2 {fill:#333333}
    .fil0 {fill:#393939}
    .fil4 {fill:#999999}
    .fil1 {fill:white}
   ]]>
  </style>
 </defs>
 <g id="teleconsulting" visibility="hidden">
  <metadata id="CorelCorpID_0Corel-Layer"/>
  <rect class="fil0" x="25.5247" y="19.9894" width="17.3134" height="17.2471" rx="8.5937" ry="8.5937"/>
  <polygon class="fil1" points="32.1839,23.5984 32.1839,26.5724 29.1886,26.5724 29.1886,30.6012 32.211,30.6012 32.211,33.6283 36.2055,33.6283 36.2055,30.6012 39.1736,30.6012 39.1736,26.5465 36.1783,26.5465 36.1476,23.5972 "/>
  <path class="fil0" d="M23.2512 37.9228c2.1248,2.12598 4.58622,4.15748 5.55827,3.18425 1.3937,-1.39252 2.25118,-2.60551 5.32205,-0.138189 3.06969,2.4685 0.712205,4.11378 -0.637795,5.4626 -1.55669,1.55669 -7.35945,0.0826772 -13.0961,-5.65394 -5.73661,-5.73661 -7.21181,-11.5406 -5.65394,-13.0972 1.34882,-1.35 2.99409,-3.7063 5.46142,-0.636614 2.46732,3.0685 1.25551,3.92835 -0.138189,5.32087 -0.972047,0.973228 1.05945,3.43346 3.18425,5.55827z"/>
 </g>
 <g id="Layer_x0020_2" visibility="hidden">
  <metadata id="CorelCorpID_1Corel-Layer"/>
  <polygon class="fil2" points="31.4953,47.4094 31.4953,69.9732 51.6697,69.9732 51.6697,47.413 "/>
 </g>
 <g id="Layer_x0020_3" visibility="hidden">
  <metadata id="CorelCorpID_2Corel-Layer"/>
  <g id="_38409184">
   <polygon id="_38414560" class="fil3 str0" points="-4.3252,16.122 -3.80433,70.1031 60.437,70.1031 60.437,13.2945 28.5827,-1.83661 "/>
   <path id="_38413256" class="fil2" d="M-16.05 18.5244l16.1209 -12.8126 -0.132283 -15.6165 13.5886 0 0 4.80591 14.7898 -10.5449 44.7343 34.2472 -13.1563 0c-19.513,-12.3295 -40.4091,-15.2551 -63.6862,-0.080315l-12.2587 0.0011811z"/>
   <g>
    <rect id="_38412464" class="fil4" x="-10.6065" y="51.6066" width="25.0188" height="24.9229" rx="8.5937" ry="8.5937"/>
    <polygon id="_38410464" class="fil1" points="-1.66654,55.1043 -1.66654,60.4205 -7.02165,60.4205 -7.02165,67.6217 -1.61929,67.6217 -1.61929,73.0346 5.52165,73.0346 5.52165,67.6217 10.8283,67.6217 10.8283,60.3732 5.47323,60.3732 5.41772,55.102 "/>
   </g>
   <polygon id="_38409280" class="fil2" points="7.94291,23.6823 26.8205,23.6823 26.8205,33.4689 7.94173,33.4689 "/>
  </g>
 </g>
 <g id="Layer_x0020_4" visibility="hidden">
  <metadata id="CorelCorpID_3Corel-Layer"/>
  <g id="_61649280">
   <path id="_61776776" class="fil5" d="M-2208.92 605.961l-54.5126 38.7579 0 -17.0705 -48.9331 0 0 51.8705 -53.3374 37.937 19.187 34.9299c0,-0.00826772 22.3996,-15.9378 22.3996,-15.9378l0 51.4996c5.14606,-3.3626 12.9791,-6.22795 19.0665,-7.32047l0.0011811 -57.7453 96.1287 -68.3587 96.1335 68.3669 0 123.999 -28.2921 0 0 -72.2835 -54.3378 0 0 72.2835 -55.7409 0c-2.8878,6.59173 -7.08425,13.0134 -11.9504,19.0677l169.393 -0.0011811 0 -129.503 22.3949 15.9248 19.1917 -34.9217 -156.791 -111.495z"/>
   <path id="_61648496" class="fil5" d="M-2297.02 797.823c-10.3051,0 -19.4173,5.02913 -25.0677,12.7583 -5.65394,-7.72913 -14.7543,-12.7583 -25.0665,-12.7583 -17.1496,0 -31.0618,13.9051 -31.0618,31.063 0,30.7122 56.1283,65.4413 56.1283,65.4413 0.0011811,0 56.1425,-36.4169 56.1425,-65.4413 0,-17.1591 -13.9134,-31.063 -31.0748,-31.063z"/>
   <polygon id="_62207600" class="fil5" points="-2225.17,735.873 -2273.58,735.873 -2273.58,784.29 -2225.17,784.29 "/>
  </g>
  <polygon class="fil3 str1" points="-1173.31,-1175.2 -575.394,-1175.2 -575.394,-577.283 -1173.31,-577.283 "/>
  <polygon class="fil3 str1" points="-575.394,-1175.2 22.5224,-1175.2 22.5224,-577.283 -575.394,-577.283 "/>
  <polygon class="fil3 str1" points="22.5224,-1175.2 620.434,-1175.2 620.434,-577.283 22.5224,-577.283 "/>
  <polygon class="fil3 str1" points="620.434,-1175.2 1218.36,-1175.2 1218.36,-577.283 620.434,-577.283 "/>
  <path class="fil5" d="M321.301 -877.31c41.374,0 74.9161,-33.5339 74.9161,-74.9161 0.0011811,-41.3717 -33.5421,-74.9043 -74.9173,-74.9043 -41.3693,0 -74.9161,33.5327 -74.9161,74.9043 0.0011811,41.3823 33.5457,74.9173 74.9173,74.9161z"/>
  <path class="fil5" d="M-197.394 -996.182c0,22.9831 -18.6331,41.615 -41.6173,41.615 -22.9783,-0.0011811 -41.6114,-18.6319 -41.6114,-41.6138 0,-22.9831 18.6331,-41.6138 41.6114,-41.6138 22.9843,-0.0011811 41.6173,18.6319 41.6173,41.6126z"/>
  <path class="fil5" d="M1065.33 -950.404c-94.9205,-42.6496 -253.488,-55.2661 -290.329,12.4169 -5.55354,10.2071 -8.00906,27.5398 8.24055,48.8634 1.7811,2.33268 4.93819,2.14606 6.99213,-0.50315 35.1508,-45.3094 79.3665,-59.928 273.13,-52.8154 4.99134,0.18189 5.73661,-6.26575 1.96654,-7.96181z"/>
  <path class="fil5" d="M1037.63 -879.921c-55.5295,72.6484 -144.618,29.0563 -173.896,17.4343 -29.2878,-11.6244 -43.9252,16.4693 -43.9252,16.4693 16.5579,-8.59016 27.3709,-6.37087 38.5039,1.35 -18.0827,10.213 -25.8295,32.9232 -25.8295,32.9232 30.0472,-23.3811 50.6882,-16.037 50.6882,-16.037 -20.1992,10.0441 -26.3799,41.935 -26.3799,41.935 34.7587,-30.4583 56.8713,-29.5051 56.8713,-29.5051 -20.1697,16.6512 -15.6083,56.2063 -15.6083,56.2063 18.4169,-42.052 53.113,-50.0421 53.113,-50.0421 -9.74173,21.6673 3.94488,53.8465 3.94488,53.8465 0.634252,-31.2933 23.3917,-56.4638 34.5626,-66.965 0,0 -2.58307,18.6118 15.8126,39.0909 -6.72874,-29.674 8.07047,-53.628 17.7673,-67.5413 15.7961,-19.8591 14.374,-29.165 14.3752,-29.165z"/>
  <path class="fil5" d="M832.889 -774.88c-6.91181,-16.3028 -17.0587,-17.1307 -25.4303,-34.9547 -4.45276,-9.4937 -3.42874,-19.0878 -3.42874,-19.0878 0.0011811,0 -28.3417,29.7449 -25.4161,63.3366 1.05354,12.1606 9.50787,23.3031 23.1543,25.7161 29.4756,5.20748 37.7197,-19.4421 31.1209,-35.0102z"/>
  <g id="_39301984">
   <path id="_61642768" class="fil0" d="M29.0575 20.6386l-4.8626 3.45709 0 -1.52244 -4.36535 0 0 4.62638 -4.75748 3.38386 1.71142 3.11575c0,0 1.99843,-1.42087 1.99843,-1.42087l0 4.59331c0.459449,-0.3 1.15748,-0.555118 1.70079,-0.65315l0 -5.15079 8.5748 -6.09803 8.57598 6.09921 0 11.061 -2.52402 0 0 -6.44764 -4.84724 0 0 6.44764 -4.97244 0c-0.25748,0.588189 -0.63189,1.16102 -1.06535,1.70079l15.1098 0 0 -11.5524 1.99724 1.42087 1.7126 -3.11575 -13.9866 -9.94488z"/>
   <path id="_39945152" class="fil0" d="M21.1984 37.7528c-0.918898,0 -1.7315,0.448819 -2.23583,1.13858 -0.504331,-0.689764 -1.31575,-1.13858 -2.23583,-1.13858 -1.52953,0 -2.77087,1.24016 -2.77087,2.77087 0,2.74016 5.00669,5.83701 5.00669,5.83701 0,0 5.00787,-3.24803 5.00787,-5.83701 0,-1.53071 -1.24016,-2.77087 -2.77205,-2.77087z"/>
   <polygon id="_61642648" class="fil0" points="27.6083,32.2264 23.2902,32.2264 23.2902,36.5457 27.6083,36.5457 "/>
  </g>
 </g>
 <g id="Layer_x0020_5" visibility="hidden">
  <metadata id="CorelCorpID_4Corel-Layer"/>
  <g id="_61650480">
   <path id="_39996032" class="fil0" d="M28.5 33.4996c-4.01811,0 -7.27559,3.2563 -7.27559,7.27559 0,4.01693 3.25748,7.27559 7.27559,7.27559 4.01811,0 7.27559,-3.25866 7.27559,-7.27559 0,-4.01811 -3.25748,-7.27559 -7.27559,-7.27559zm4.36535 8.73071l-2.91024 0 0 2.91024 -2.91024 0 0 -2.91024 -2.91024 0 0 -2.91024 2.91024 0 0 -2.91024 2.91024 0 0 2.91024 2.91024 0 0 2.91024z"/>
   <path id="_37647728" class="fil0" d="M42.1984 32.6469c0,-0.0011811 -0.0023622,-0.0023622 -0.00354331,-0.00354331l-3.49843 -3.49843 0 -5.82047 -2.91024 0 0 2.91024 -7.28622 -7.28622 -13.6984 13.6984c-1.13622,1.1374 -1.1374,2.97992 0,4.11614 1.13622,1.13622 2.97874,1.13622 4.11496,0 0.0011811,-0.0011811 0.0023622,-0.00354331 0.00354331,-0.00472441l9.57992 -9.57874 9.58346 9.58346c1.13622,1.13622 2.97874,1.13622 4.11496,0 1.13622,-1.13622 1.13622,-2.97874 0,-4.11614z"/>
  </g>
 </g>
 <g id="Layer_x0020_6" visibility="hidden">
  <metadata id="CorelCorpID_5Corel-Layer"/>
  <path class="fil0" d="M42.287 32.5311c0,-0.0011811 -0.0023622,-0.0023622 -0.00354331,-0.00354331l-3.52087 -3.51969 0 -5.85591 -2.92795 0 0 2.92795 -7.32992 -7.3311 -13.7823 13.7823c-1.14331,1.14449 -1.14449,2.99764 0,4.14213 1.14331,1.14213 2.99646,1.14213 4.13976,0 0.0023622,-0.0011811 0.00354331,-0.00354331 0.00472441,-0.00472441l9.6378 -9.63898 9.64252 9.6437c1.14331,1.14213 2.99646,1.14213 4.13976,0 1.14331,-1.14449 1.14331,-2.99882 0,-4.14213z"/>
  <g id="_61781312">
   <path id="_61953392" class="fil0" d="M19.9949 38.7248l3.6626 -2.15906 1.66772 2.82992c0.764173,-0.526772 1.87677,-0.775984 2.60315,-0.762992 1.09252,0.0200787 2.29134,0.402756 2.79921,0.498425 0.982677,-0.927165 1.47874,-2.76614 0.585827,-4.25551 -1.23425,-2.05512 -3.49843,-1.94173 -4.74449,-1.2248l-7.09843 4.18346c-1.92047,1.20472 -2.03268,3.37323 -1.22598,4.74213 1.09016,1.85079 3.17953,2.14488 4.87205,1.15039 -0.0389764,-0.413386 -0.0129921,-0.818504 0.0767717,-1.23071 -1.24606,0.859843 -2.90551,1.24961 -4.05591,-0.441732 -0.679134,-0.99685 -0.341339,-2.59488 0.85748,-3.32953z"/>
   <path id="_61807864" class="fil0" d="M38.1366 45.3083c-0.411024,2.00787 -2.23819,2.02205 -2.86772,1.88976l-4.16811 -0.864567 0.987402 -4.75866 4.1622 0.864567c1.30394,0.270472 2.16024,1.53543 1.88622,2.8689zm-1.67362 -3.8811l-8.07165 -1.6748c-2.14134,-0.283465 -3.54685,0.672047 -4.09606,2.69055 -0.494882,1.82008 0.727559,3.5752 2.68819,4.09252l8.07047 1.67362c1.40669,0.162992 3.54685,-0.235039 4.09488,-2.68819 0.483071,-2.16732 -1.18465,-3.76299 -2.68583,-4.0937z"/>
  </g>
 </g>
 <g id="Layer_x0020_7" visibility="hidden">
  <metadata id="CorelCorpID_6Corel-Layer"/>
  <g id="_61831896">
   <polygon id="_40079344" class="fil0" points="28.6996,28.448 27.3839,29.765 28.5969,30.9768 27.7878,31.7858 26.576,30.5728 25.2591,31.8886 26.472,33.1016 25.6642,33.9094 24.4512,32.6965 23.1354,34.0122 24.3472,35.2252 23.5394,36.0343 22.3264,34.8213 21.0106,36.137 25.8614,40.9878 33.5504,33.3 "/>
   <path id="_61647360" class="fil0" d="M41.1744 25.2709c0.214961,0.21378 0.505512,0.334252 0.809055,0.334252 0.302362,0 0.594094,-0.120472 0.807874,-0.334252l-6.0626 -6.0626c-0.214961,0.21378 -0.335433,0.504331 -0.335433,0.807874 0,0.303543 0.120472,0.594094 0.335433,0.807874l0.201969 0.20315 -2.56417 2.56299 -3.23386 -3.23386 -0.605906 0.605906c-0.335433,0.334252 -0.335433,0.87874 -0.0011811,1.21299l0.607087 0.605906 -12.1854 12.1854c-0.459449,0.459449 -0.620079,1.13858 -0.414567,1.75512l1.1811 3.54213 -1.08189 1.08189c-0.488976,0.488976 -0.549213,1.2437 -0.18189,1.79882l-4.15748 4.15748c-0.112205,0.111024 -0.112205,0.291732 0,0.403937 0.0555118,0.0555118 0.12874,0.0838583 0.201969,0.0838583 0.0732283,0 0.146457,-0.0283465 0.201969,-0.0838583l4.15748 -4.1563c0.238583,0.157087 0.512598,0.23622 0.787795,0.23622 0.366142,0 0.732283,-0.13937 1.01102,-0.419291l1.08189 -1.08189 3.54213 1.1811c0.616535,0.205512 1.29567,0.0448819 1.75512,-0.414567l12.1854 -12.1854 0.605906 0.605906c0.335433,0.335433 0.87874,0.335433 1.21299,0.0011811l0.605906 -0.607087 -3.23268 -3.23386 2.56299 -2.56299 0.201969 0.201969zm-3.43583 -3.43583l1.01339 1.01339 -2.56417 2.56299 -1.0122 -1.01339 2.56299 -2.56299zm-11.5913 20.4839c-0.153543,0.154724 -0.377953,0.206693 -0.585827,0.138189l-6.02008 -6.02126c-0.0685039,-0.206693 -0.0153543,-0.429921 0.138189,-0.584646l12.2622 -12.261 6.46772 6.46772 -12.2622 12.261zm11.4531 -15.4949l-1.00748 -1.00866 2.56299 -2.56299 1.00866 1.00748 -2.56417 2.56417z"/>
  </g>
 </g>
 <g id="Layer_x0020_8">
  <metadata id="CorelCorpID_7Corel-Layer"/>
  <path class="fil1" d="M54.7323 17.8724c-2.05866,-0.758268 -3.78307,1.44685 -4.9122,3.86811l-4.57795 8.93858c-0.368504,-0.0271654 -0.702756,-0.069685 -0.992126,-0.178346 -0.191339,-0.0720472 -0.375591,-0.196063 -0.55748,-0.336614l4.1563 -19.1256c0.343701,-1.59685 -0.634252,-3.15827 -2.17559,-3.53976 -1.54488,-0.377953 -3.13701,0.545669 -3.58701,2.11772l-5.53346 18.4677c-0.281102,-0.00354331 -0.581102,-0.0413386 -0.915354,-0.138189 -0.127559,-0.0366142 -0.253937,-0.111024 -0.381496,-0.210236l2.00906 -23.2866c0.196063,-1.86142 -1.01811,-3.50315 -2.70709,-3.72165 -1.68898,-0.218504 -3.28346,1.05945 -3.56811,2.90906l-3.28937 22.7917c-0.354331,0.205512 -0.680315,0.35315 -0.974409,0.364961 -0.285827,0.011811 -0.524409,-0.113386 -0.719291,-0.305906l-0.103937 -19.2614c0.0625984,-1.7752 -1.30866,-3.25039 -3.05079,-3.34724 -1.74567,-0.0944882 -3.25748,1.22598 -3.39921,2.99528l-1.09843 21.1087c-0.235039,1.99961 -0.784252,4.94882 -2.00197,5.3752 -1.33701,0.467717 -2.25709,-0.135827 -2.26654,-0.141732l-4.45866 -5.58071c-0.982677,-1.79055 -4.90866,-3.89764 -7.41614,-3.40748l-0.218504 0.0779528c-1.91929,1.05591 -0.787795,2.68228 0.197244,4.47638 0,0 3.56693,5.04331 6.24213,10.2992 2.67402,5.25591 5.60197,11.224 5.60197,11.224 0.637795,1.65 2.33268,4.39488 3.98386,6.09803 0.770079,-0.664961 0.81378,-0.930709 0.923622,-1.78583 0.15,-1.15276 -0.0602362,-3.27165 -0.0602362,-3.27165 -0.115748,-1.05827 -0.381496,-3.45827 -0.650787,-5.64567 -0.355512,-2.91378 -1.16693,-5.87835 -1.16693,-5.87835 -0.154724,-1.0063 -0.40748,-1.95945 0.669685,-2.12598l0.115748 0c1.25551,0.197244 2.73307,1.85079 2.88898,2.85591l1.13504 3.36732c0.0011811,0.0011811 0.328346,0.442913 1.03583,0.451181 0.641339,0.00826772 1.39961,-1.27677 1.84961,-2.17087l4.10551 -9.68504c0.366142,-0.80315 1.29803,-1.16339 2.09764,-0.822047 0.798425,0.341339 1.18819,1.26378 0.85748,2.08346l-3.22677 9.02362c0.057874,0.124016 0.147638,0.223228 0.283465,0.265748 0.140551,0.0448819 0.316535,0.0307087 0.518504,-0.00472441l5.41417 -10.0972c0.447638,-0.817323 1.41024,-1.14331 2.16378,-0.753543 0.752362,0.388583 1.04055,1.36417 0.63189,2.20039l-4.89921 10.5472c0.0425197,0.0673228 0.0874016,0.124016 0.141732,0.162992 0.141732,0.102756 0.275197,0.167717 0.40748,0.217323l5.72598 -7.69134c0.477165,-0.659055 1.37953,-0.819685 2.0374,-0.380315 0.655512,0.440551 0.84685,1.33701 0.414567,2.02559l-5.19567 8.23583c0.0614173,0.0968504 0.126378,0.185433 0.20315,0.252756 0.115748,0.0992126 0.258661,0.180709 0.419291,0.259843l2.63858 -2.81339c0.871654,-1.00276 1.99961,-1.82008 2.87953,-1.17402 0.879921,0.643701 0.0649606,2.14961 -0.569291,3.01417l-2.29724 2.81575 -1.28504 1.71024c0,0 -1.11142,1.57323 -2.52283,3.35551l-0.214961 0.285827c-0.0791339,0.10748 -0.166535,0.210236 -0.258661,0.305906 -0.574016,0.70748 -1.17874,1.42559 -1.77047,2.07047 -1.14213,1.24843 -4.58976,5.24882 -7.98661,8.67874l19.278 0c0,0 0.85748,0.165354 0.483071,-1.25669 -0.488976,-1.85197 -1.15157,-6.33543 1.66299,-16.1835 1.25551,-4.39724 2.38819,-8.04449 3.19961,-10.5768 0.993307,-2.93622 2.13189,-6.3 2.59134,-7.65472 0.876378,-2.57717 2.57835,-6.80787 2.57835,-6.80787 0.744094,-2.02087 1.52362,-5.18031 -0.532677,-5.9374z"/>
 </g>
 <g id="Layer_x0020_9" visibility="hidden">
  <metadata id="CorelCorpID_8Corel-Layer"/>
  <g id="_39819344">
   <path id="_39673664" class="fil6" d="M-0.901181 33.9732c0.637795,-1.15039 1.68425,-1.98307 2.94803,-2.34449l27.2551 -7.80709c0.250394,0.200787 0.496063,0.419291 0.72874,0.677953 0.785433,2.22992 -0.629528,2.48622 -4.93701,5.45433 -4.71614,3.24449 -5.50748,5.82756 -4.11496,7.5874 1.39252,1.75984 3.77835,1.0063 6.14055,-0.719291 8.11063,-5.91614 16.9063,-8.81693 21.0272,-9.94488l0.194882 -0.0177165 0 -16.6087c-0.174803,-0.0248031 -0.348425,-0.0507874 -0.531496,-0.0602362 -10.0807,-0.514961 -23.0941,0.338976 -23.0941,0.338976 -2.05512,-0.298819 -4.00984,1.25433 -4.00984,1.25433 0,0 -7.58858,7.27205 -12.8988,10.8591l-12.5563 0.522047c-0.648425,0.0271654 -1.1563,0.579921 -1.12913,1.22717l1.07362 25.8c0.0271654,0.647244 0.57874,1.15512 1.22717,1.12795l6.07087 -0.252756 -3.82323 -13.3512c-0.362598,-1.2626 -0.210236,-2.59134 0.42874,-3.74291z"/>
   <g>
    <path id="_62275512" class="fil6" d="M52.761 30.7618l-5.19094 0 4.19291 14.6421 -10.6264 3.0437c1.48228,-2.8878 1.92402,-6.31535 0.960236,-9.67913 -0.6,-2.09291 -1.67717,-3.91654 -3.07323,-5.39882 -2.2063,1.00394 -4.55315,2.22047 -6.89882,3.67677l-1.06654 1.86378 -0.216142 -0.124016c-0.282283,-0.162992 -0.551575,-0.277559 -0.811417,-0.372047 -0.38622,0.265748 -0.772441,0.53622 -1.15512,0.814961 -0.354331,0.259843 -0.705118,0.488976 -1.05118,0.703937 0.0507874,0.0401575 0.0885827,0.0838583 0.152362,0.120472 0.193701,0.119291 0.615354,0.27874 1.55197,0.380315 1.45276,0.165354 2.44843,0.366142 3.04724,0.614173 0.602362,0.248031 1.12205,0.614173 1.54488,1.08661 0.422835,0.470079 0.734646,1.05236 0.928346,1.7315 0.194882,0.675591 0.233858,1.35118 0.115748,2.00906 -0.116929,0.659055 -0.354331,1.23071 -0.706299,1.69843 -0.324803,0.431102 -0.832677,0.840945 -1.51417,1.22008l0.66378 2.32441 -2.07992 0.596457 -0.647244 -2.25472c-0.711024,0.0968504 -1.36299,0.0779528 -1.94055,-0.0555118 -0.851575,-0.197244 -1.70079,-0.548031 -2.52402,-1.04291l-0.201969 -0.121654 1.38071 -2.56535 0.220866 0.132283c1.29213,0.770079 2.40591,1.0311 3.30236,0.773622 0.435827,-0.125197 0.755906,-0.375591 0.981496,-0.766535 0.223228,-0.390945 0.275197,-0.774803 0.16063,-1.17638 -0.0980315,-0.343701 -0.277559,-0.605906 -0.545669,-0.804331 -0.282283,-0.204331 -0.787795,-0.362598 -1.49764,-0.472441 -1.5685,-0.243307 -2.62441,-0.478346 -3.22913,-0.716929 -0.612992,-0.243307 -1.12323,-0.576378 -1.51417,-0.990945 -0.129921,-0.140551 -0.230315,-0.3 -0.336614,-0.455906 -0.71811,0.217323 -1.41378,0.328346 -2.08346,0.328346 -1.75512,0 -3.32126,-0.758268 -4.41142,-2.13307 -0.638976,-0.807874 -1.03937,-1.70669 -1.19173,-2.65866 -1.34055,2.81102 -1.72087,6.09213 -0.796063,9.32244 0.96378,3.36378 3.15472,6.0378 5.93976,7.70197l-9.4689 2.71299 -5.01024 -17.4945 9.29055 -2.6622c-0.0377953,-0.444094 -0.0283465,-0.897638 0.0413386,-1.35827 0.231496,-1.5378 1.05472,-3.04606 2.48031,-4.55551l-16.852 4.82717c-0.622441,0.178346 -0.98622,0.835039 -0.807874,1.45748l7.11024 24.8244c0.0897638,0.311811 0.297638,0.558661 0.562205,0.705118 0.263386,0.146457 0.583465,0.19252 0.896457,0.103937l45.965 -13.1669c0.623622,-0.178346 0.987402,-0.833858 0.809055,-1.45866l-4.84961 -16.9311z"/>
    <path id="_39948432" class="fil6" d="M52.6453 7.72087c0,0 -1.69606,0.179528 -1.8,1.58858 -0.102756,4.34291 0,17.1307 0,18.574 0,1.75276 1.61693,2.04921 1.61693,2.04921l7.86969 0 0 -22.2118 -7.68661 0z"/>
   </g>
  </g>
 </g>
</svg>
