<?xml version="1.0" encoding="utf-8"?>
<!-- Generator: Adobe Illustrator 16.0.0, SVG Export Plug-In . SVG Version: 6.00 Build 0)  -->
<!DOCTYPE svg PUBLIC "-//W3C//DTD SVG 1.1//EN" "http://www.w3.org/Graphics/SVG/1.1/DTD/svg11.dtd">
<svg version="1.1" id="Layer_1" xmlns="http://www.w3.org/2000/svg" xmlns:xlink="http://www.w3.org/1999/xlink" x="0px" y="0px"
	 width="101px" height="101px" viewBox="0 0 101 101" enable-background="new 0 0 101 101" xml:space="preserve">
<circle fill="#FFFFFF" cx="50.5" cy="50.5" r="50.5"/>
<g>
	<path fill="#52C1BF" d="M54.137,63.27V33.318h-7.79v29.792c0,1.675-1.266,3.162-3.138,3.719c-4.316,1.284-6.232,3.602-6.232,4.654
		c0,1.494,5.822,2.389,13.005,2.389c7.181,0,13.003-0.895,13.003-2.389c0-1.019-1.793-3.218-5.813-4.523
		C55.356,66.369,54.137,64.911,54.137,63.27z"/>
	
		<rect x="26.149" y="33.891" transform="matrix(0.8967 0.4426 -0.4426 0.8967 22.486 -7.7221)" fill="#52C1BF" width="3.283" height="20.866"/>
	<path fill="#52C1BF" d="M80.038,53.264c0,0.873-3.396,8.498-11.44,8.498c-8.049,0-11.443-7.625-11.443-8.498
		s5.123-1.392,11.443-1.392C74.917,51.872,80.038,52.391,80.038,53.264z"/>
	<path fill="#52C1BF" d="M43.848,53.264c0,0.873-3.396,8.498-11.443,8.498c-8.047,0-11.442-7.625-11.442-8.498
		s5.123-1.392,11.442-1.392C38.725,51.872,43.848,52.391,43.848,53.264z"/>
	
		<rect x="26.586" y="42.682" transform="matrix(0.4422 0.8969 -0.8969 0.4422 60.4009 -8.48)" fill="#52C1BF" width="20.865" height="3.283"/>
	
		<rect x="62.778" y="42.682" transform="matrix(0.4422 0.8969 -0.8969 0.4422 80.5907 -40.9399)" fill="#52C1BF" width="20.865" height="3.283"/>
	
		<rect x="62.341" y="33.891" transform="matrix(0.8968 0.4424 -0.4424 0.8968 26.2145 -23.7347)" fill="#52C1BF" width="3.284" height="20.866"/>
	<path fill="#52C1BF" d="M48.374,29.573c0,0,0.285-0.187,0.784-0.513c0.389-0.231,0.937-0.595,1.44-0.802
		c0.519-0.25,1.126-0.471,1.792-0.67c1.34-0.387,2.918-0.538,4.461-0.42c1.55,0.107,3.056,0.464,4.439,0.912
		c2.767,0.895,5.149,2.135,6.763,2.728c0.384,0.137,0.741,0.26,0.97,0.311c0.245,0.064,0.375,0.078,0.383,0.1
		c0.02,0.022-0.068,0.084-0.102,0.131c-0.046,0.046-0.048,0.088-0.048,0.088c0.673-0.76,1.834-0.832,2.593-0.16
		c0.761,0.673,0.833,1.834,0.159,2.595c0,0-0.123,0.149-0.399,0.398c-0.262,0.239-0.751,0.536-1.287,0.687
		c-0.546,0.164-1.117,0.21-1.659,0.196c-0.567-0.007-1.086-0.081-1.655-0.165c-2.183-0.364-4.656-1.086-6.981-1.344
		c-1.155-0.137-2.248-0.154-3.143-0.023c-0.904,0.123-1.602,0.372-2.102,0.655c-0.247,0.151-0.462,0.285-0.634,0.434
		c-0.211,0.141-0.203,0.223-0.303,0.286c-0.394,0.384-0.617,0.604-0.617,0.604l-0.01,0.007c-1.535,1.5-3.996,1.472-5.498-0.065
		c-1.499-1.536-1.471-3.998,0.064-5.499C47.965,29.871,48.174,29.706,48.374,29.573z"/>
	<path fill="#52C1BF" d="M47.421,35.601c0,0-0.225-0.22-0.617-0.604c-0.101-0.063-0.091-0.145-0.303-0.286
		c-0.172-0.149-0.387-0.283-0.634-0.434c-0.501-0.283-1.198-0.533-2.102-0.655c-0.896-0.131-1.988-0.114-3.142,0.023
		c-2.326,0.258-4.803,0.98-6.984,1.344c-0.567,0.083-1.09,0.158-1.653,0.165c-0.545,0.014-1.115-0.032-1.66-0.196
		c-0.536-0.151-1.025-0.448-1.287-0.687c-0.275-0.25-0.4-0.398-0.4-0.398c-0.672-0.76-0.602-1.922,0.158-2.595
		c0.761-0.672,1.922-0.601,2.596,0.16c0,0-0.003-0.042-0.05-0.088c-0.032-0.047-0.12-0.109-0.1-0.131
		c0.005-0.022,0.137-0.035,0.384-0.1c0.228-0.051,0.585-0.174,0.967-0.311c1.614-0.593,3.997-1.833,6.763-2.728
		c1.386-0.448,2.891-0.805,4.441-0.912c1.541-0.118,3.121,0.033,4.459,0.42c0.668,0.199,1.275,0.42,1.792,0.67
		c0.506,0.207,1.053,0.571,1.441,0.802c0.498,0.326,0.784,0.513,0.784,0.513c1.797,1.175,2.301,3.584,1.124,5.382
		c-1.174,1.797-3.584,2.301-5.38,1.125c-0.211-0.136-0.401-0.29-0.575-0.457L47.421,35.601z"/>
</g>
</svg>
