<?xml version="1.0" encoding="utf-8"?>
<!-- Generator: Adobe Illustrator 16.0.0, SVG Export Plug-In . SVG Version: 6.00 Build 0)  -->
<!DOCTYPE svg PUBLIC "-//W3C//DTD SVG 1.1//EN" "http://www.w3.org/Graphics/SVG/1.1/DTD/svg11.dtd">
<svg version="1.1" id="Layer_1" xmlns="http://www.w3.org/2000/svg" xmlns:xlink="http://www.w3.org/1999/xlink" x="0px" y="0px"
	 width="100px" height="100px" viewBox="0 0 100 100" enable-background="new 0 0 100 100" xml:space="preserve">
<circle fill="#FFFFFF" cx="50" cy="50" r="49.317"/>
<path fill="#53BCE8" d="M65.321,48.482h-1.999V38.356c0-7.36-5.967-13.326-13.326-13.326s-13.324,5.965-13.324,13.326v10.126h-2
	c-1.465,0-2.665,1.2-2.665,2.667v10.235c0,9.936,8.054,13.992,17.989,13.992c9.937,0,17.99-4.058,17.99-13.992V51.149
	C67.985,49.682,66.787,48.482,65.321,48.482z M42,38.356c0-4.409,3.587-7.996,7.995-7.996c4.408,0,7.995,3.587,7.995,7.996v10.126
	H42V38.356z M52.501,66.86h-2.505h-2.504l1.246-4.928c-0.825-0.448-1.393-1.313-1.393-2.321c0-1.464,1.188-2.649,2.652-2.649
	c1.465,0,2.651,1.186,2.651,2.649c0,1.008-0.567,1.872-1.393,2.321L52.501,66.86z"/>
</svg>
