<?xml version="1.0" encoding="utf-8"?>
<!-- Generator: Adobe Illustrator 16.0.0, SVG Export Plug-In . SVG Version: 6.00 Build 0)  -->
<!DOCTYPE svg PUBLIC "-//W3C//DTD SVG 1.1//EN" "http://www.w3.org/Graphics/SVG/1.1/DTD/svg11.dtd">
<svg version="1.1" id="Layer_1" xmlns="http://www.w3.org/2000/svg" xmlns:xlink="http://www.w3.org/1999/xlink" x="0px" y="0px"
	 width="75px" height="75px" viewBox="0 0 75 75" enable-background="new 0 0 75 75" xml:space="preserve">
<g>
	<path fill="#FFFFFF" d="M35.278,7.892c0,4.085-3.313,7.403-7.401,7.403c-4.089,0-7.402-3.317-7.402-7.403
		c0-4.089,3.313-7.402,7.402-7.402C31.965,0.49,35.278,3.803,35.278,7.892z"/>
	<g>
		<path fill="#FFFFFF" d="M31.578,52.309c0-2.049-1.657-3.701-3.701-3.701s-3.701,1.652-3.701,3.701
			c0,2.043,1.657,3.699,3.701,3.699S31.578,54.352,31.578,52.309z"/>
		<path fill="#FFFFFF" d="M67.109,61.188h-3.106c-0.971-8.045-7.11-14.516-14.995-15.975c-0.543-1.771-1.277-3.494-2.212-5.115
			c-0.614-1.061-1.975-1.426-3.034-0.811c-1.063,0.613-1.425,1.973-0.813,3.037c1.762,3.043,2.692,6.496,2.692,9.984
			c0,9.793-7.969,17.764-17.765,17.764s-17.766-7.971-17.766-17.764c0-9.799,7.97-17.769,17.766-17.769H47.86
			c1.229,0,2.221-0.994,2.221-2.221c0-1.226-0.992-2.22-2.221-2.22h-8.917c-0.364-5.803-5.172-10.401-11.066-10.401
			c-6.133,0-11.104,4.97-11.104,11.103v2.293C10.143,36.934,5.67,44.09,5.67,52.309c0,12.262,9.943,22.203,22.207,22.203
			c11.958,0,21.681-9.457,22.161-21.295c3.94,1.705,6.706,5.631,6.706,10.195c0,1.225,0.994,2.217,2.221,2.217h8.145
			c1.227,0,2.221-0.992,2.221-2.217C69.33,62.18,68.336,61.188,67.109,61.188z"/>
	</g>
</g>
</svg>
