<?xml version="1.0" encoding="utf-8"?>
<!-- Generator: Adobe Illustrator 16.0.0, SVG Export Plug-In . SVG Version: 6.00 Build 0)  -->
<!DOCTYPE svg PUBLIC "-//W3C//DTD SVG 1.1//EN" "http://www.w3.org/Graphics/SVG/1.1/DTD/svg11.dtd">
<svg version="1.1" id="Layer_1" xmlns="http://www.w3.org/2000/svg" xmlns:xlink="http://www.w3.org/1999/xlink" x="0px" y="0px"
	 width="24px" height="30px" viewBox="0 0 24 30" enable-background="new 0 0 24 30" xml:space="preserve">
<g>
	<path fill="#424242" d="M8.25,7.357c0.084,0.181,0.269,0.309,0.478,0.309h6.54c0.276,0,0.516-0.227,0.526-0.505l0.084-1.965
		c0.009-0.208-0.112-0.389-0.29-0.465c-0.058-0.026-0.124-0.04-0.192-0.04h-1.142c-0.529-0.191-1.055-0.527-0.792-1.083
		c0.844-1.82,0.055-3.244-1.46-3.244c-1.515,0-2.304,1.424-1.452,3.244c0.264,0.557-0.264,0.892-0.796,1.083H8.609
		c-0.098,0-0.182,0.036-0.258,0.085c-0.067,0.041-0.12,0.098-0.158,0.166C8.155,5.008,8.132,5.082,8.129,5.164
		c0,0.011-0.005,0.021-0.005,0.032l0.077,1.965C8.204,7.231,8.221,7.296,8.25,7.357z M11.999,1.544c0.368,0,0.665,0.297,0.665,0.665
		c0,0.368-0.297,0.666-0.665,0.666c-0.367,0-0.666-0.297-0.666-0.666C11.333,1.841,11.632,1.544,11.999,1.544z"/>
	<path fill="#424242" d="M20.434,4.691h-3.202c0.05,0.183,0.08,0.373,0.072,0.564L17.22,7.167h2.558v19.342H4.218V7.167h2.556
		L6.699,5.251c-0.007-0.19,0.023-0.378,0.071-0.56H3.566c-1.124,0-2.042,0.919-2.042,2.042v20.863c0,1.123,0.918,2.041,2.042,2.041
		h16.868c1.121,0,2.043-0.918,2.043-2.041V6.733C22.477,5.61,21.555,4.691,20.434,4.691z"/>
	<path fill="#424242" d="M6.415,12.005c0,0.48,0.388,0.867,0.866,0.867h9.5c0.479,0,0.866-0.387,0.866-0.867
		c0-0.479-0.388-0.867-0.866-0.867h-9.5C6.802,11.138,6.415,11.526,6.415,12.005z"/>
	<path fill="#424242" d="M17.647,15.926c0-0.479-0.388-0.867-0.866-0.867h-9.5c-0.479,0-0.866,0.388-0.866,0.867
		s0.388,0.867,0.866,0.867h9.5C17.26,16.793,17.647,16.405,17.647,15.926z"/>
	<path fill="#424242" d="M7.281,18.98c-0.479,0-0.866,0.389-0.866,0.867c0,0.479,0.388,0.868,0.866,0.868h4.294
		c0.479,0,0.867-0.389,0.867-0.868c0-0.479-0.388-0.867-0.867-0.867H7.281z"/>
</g>
</svg>
