<?xml version="1.0" encoding="utf-8"?>
<!-- Generator: Adobe Illustrator 16.0.0, SVG Export Plug-In . SVG Version: 6.00 Build 0)  -->
<!DOCTYPE svg PUBLIC "-//W3C//DTD SVG 1.1//EN" "http://www.w3.org/Graphics/SVG/1.1/DTD/svg11.dtd">
<svg version="1.1" id="Layer_1" xmlns="http://www.w3.org/2000/svg" xmlns:xlink="http://www.w3.org/1999/xlink" x="0px" y="0px"
	 width="24px" height="24px" viewBox="0 0 24 24" enable-background="new 0 0 24 24" xml:space="preserve">
<g>
	<g>
		<path fill="#474747" d="M17.701,3.478c0-0.52-0.421-0.94-0.939-0.94h-0.471V1.66c0-0.779-0.631-1.41-1.409-1.41H9.118
			c-0.779,0-1.41,0.63-1.41,1.41v0.878H7.237c-0.519,0-0.939,0.42-0.939,0.94h2.351V1.66c0-0.259,0.21-0.47,0.47-0.47h5.764
			c0.258,0,0.47,0.21,0.47,0.47v1.818H17.701z"/>
		<g>
			<path fill="#474747" d="M21.4,4.418H2.6c-1.298,0-2.35,1.051-2.35,2.35V9.18h1.174v13.16h1.41c0,0.778,0.631,1.41,1.411,1.41
				c0.778,0,1.41-0.632,1.41-1.41h12.689c0,0.778,0.631,1.41,1.41,1.41c0.778,0,1.41-0.632,1.41-1.41h1.409V9.18h1.176V6.768
				C23.75,5.469,22.697,4.418,21.4,4.418z M21.165,20.931H2.834V9.18h18.331V20.931z"/>
		</g>
	</g>
	<path fill="#474747" d="M12,10.355c-2.596,0-4.701,2.104-4.701,4.701c0,2.595,2.104,4.699,4.701,4.699
		c2.596,0,4.699-2.104,4.699-4.699C16.699,12.459,14.596,10.355,12,10.355z M14.819,15.995h-1.88v1.88H11.06v-1.88H9.18v-1.88h1.88
		v-1.88h1.879v1.88h1.88V15.995z"/>
</g>
</svg>
