<?xml version="1.0" encoding="utf-8"?>
<!-- Generator: Adobe Illustrator 16.0.0, SVG Export Plug-In . SVG Version: 6.00 Build 0)  -->
<!DOCTYPE svg PUBLIC "-//W3C//DTD SVG 1.1//EN" "http://www.w3.org/Graphics/SVG/1.1/DTD/svg11.dtd">
<svg version="1.1" id="Layer_1" xmlns="http://www.w3.org/2000/svg" xmlns:xlink="http://www.w3.org/1999/xlink" x="0px" y="0px"
	 width="101px" height="101px" viewBox="0 0 101 101" enable-background="new 0 0 101 101" xml:space="preserve">
<circle fill="#FFFFFF" cx="50.5" cy="50.5" r="50"/>
<g display="none">
	<circle display="inline" fill="#4CBD95" cx="43.389" cy="28.621" r="5.47"/>
	<g display="inline">
		<circle fill="#4CBD95" cx="43.389" cy="61.439" r="2.735"/>
		<path fill="#4CBD95" d="M72.38,68.004h-2.296c-0.716-5.944-5.254-10.729-11.08-11.806c-0.4-1.31-0.942-2.581-1.635-3.779
			c-0.454-0.784-1.459-1.054-2.242-0.599c-0.785,0.453-1.053,1.457-0.6,2.241c1.302,2.25,1.989,4.802,1.989,7.378
			c0,7.239-5.889,13.128-13.127,13.128s-13.128-5.889-13.128-13.128c0-7.238,5.889-13.127,13.128-13.127h14.769
			c0.905,0,1.641-0.735,1.641-1.641c0-0.906-0.735-1.641-1.641-1.641h-6.59c-0.27-4.289-3.823-7.686-8.179-7.686
			c-4.531,0-8.205,3.673-8.205,8.205v1.694c-4.9,2.837-8.205,8.124-8.205,14.196c0,9.062,7.348,16.41,16.41,16.41
			c8.835,0,16.02-6.989,16.375-15.736c2.912,1.26,4.957,4.159,4.957,7.531c0,0.906,0.735,1.641,1.641,1.641h6.018
			c0.905,0,1.641-0.734,1.641-1.641S73.285,68.004,72.38,68.004z"/>
	</g>
</g>
<path fill="#4CBD95" d="M71.313,38.101c-1.633-0.601-3.001,1.148-3.896,3.069l-3.634,7.092c-0.292-0.021-0.557-0.055-0.786-0.142
	c-0.152-0.058-0.298-0.155-0.442-0.267l3.297-15.174c0.273-1.266-0.503-2.505-1.726-2.808c-1.227-0.3-2.489,0.433-2.846,1.68
	L56.89,46.203c-0.223-0.003-0.461-0.032-0.726-0.109c-0.102-0.029-0.202-0.088-0.304-0.167l1.595-18.475
	c0.155-1.477-0.809-2.779-2.147-2.953c-1.341-0.173-2.605,0.841-2.831,2.308L49.865,44.89c-0.282,0.163-0.54,0.28-0.772,0.29
	c-0.228,0.009-0.416-0.09-0.572-0.243l-0.082-15.281c0.049-1.408-1.039-2.579-2.422-2.655c-1.384-0.075-2.583,0.972-2.695,2.375
	l-0.872,16.748c-0.187,1.587-0.623,3.926-1.588,4.264c-1.062,0.371-1.792-0.107-1.798-0.111l-3.538-4.428
	c-0.78-1.421-3.895-3.093-5.884-2.704l-0.174,0.062c-1.522,0.837-0.625,2.128,0.157,3.551c0,0,2.83,4.001,4.952,8.171
	c2.122,4.171,4.445,8.905,4.445,8.905c0.507,1.309,1.851,3.486,3.161,4.839c0.612-0.528,0.645-0.739,0.733-1.418
	c0.118-0.914-0.048-2.596-0.048-2.596c-0.092-0.839-0.303-2.743-0.516-4.479c-0.283-2.311-0.925-4.663-0.925-4.663
	c-0.124-0.799-0.324-1.555,0.53-1.688l0.092,0.001c0.996,0.156,2.168,1.468,2.292,2.266l0.901,2.671c0,0.002,0.26,0.352,0.821,0.358
	c0.509,0.007,1.11-1.012,1.468-1.723l3.257-7.684c0.292-0.637,1.031-0.923,1.665-0.652s0.943,1.003,0.681,1.653l-2.562,7.16
	c0.047,0.098,0.117,0.177,0.226,0.211c0.111,0.035,0.252,0.024,0.411-0.005l4.297-8.01c0.354-0.648,1.119-0.907,1.716-0.599
	c0.597,0.31,0.826,1.082,0.502,1.747l-3.888,8.368c0.034,0.054,0.071,0.099,0.113,0.13c0.112,0.081,0.219,0.132,0.323,0.171
	l4.543-6.102c0.379-0.521,1.094-0.65,1.616-0.301c0.521,0.35,0.673,1.061,0.329,1.606l-4.123,6.534
	c0.049,0.077,0.101,0.147,0.162,0.2c0.092,0.079,0.205,0.144,0.333,0.206l2.093-2.231c0.692-0.796,1.587-1.444,2.285-0.932
	c0.697,0.512,0.052,1.706-0.451,2.392l-1.823,2.234l-1.02,1.356c0,0-0.882,1.248-2.002,2.662l-0.17,0.227
	c-0.063,0.085-0.132,0.167-0.206,0.242c-0.455,0.563-0.936,1.132-1.404,1.644c-0.906,0.991-3.642,4.164-6.336,6.886h15.294
	c0,0,0.681,0.131,0.383-0.997c-0.388-1.47-0.913-5.027,1.319-12.84c0.997-3.488,1.896-6.383,2.54-8.392
	c0.787-2.33,1.69-4.999,2.056-6.074c0.694-2.043,2.045-5.4,2.045-5.4C72.326,41.208,72.944,38.702,71.313,38.101z"/>
<g display="none">
	<path display="inline" fill="#53BCE8" d="M28.857,49.679c0.49-0.885,1.296-1.526,2.268-1.804l20.971-6.007
		c0.193,0.154,0.382,0.322,0.562,0.521c0.604,1.716-0.483,1.912-3.799,4.196c-3.628,2.497-4.238,4.483-3.167,5.837
		c1.072,1.354,2.907,0.773,4.726-0.554c6.24-4.551,13.009-6.783,16.179-7.651l0.149-0.014V31.425
		c-0.134-0.02-0.268-0.04-0.408-0.047c-7.757-0.396-17.77,0.261-17.77,0.261c-1.582-0.23-3.085,0.966-3.085,0.966
		s-5.84,5.595-9.925,8.355l-9.662,0.402c-0.499,0.021-0.89,0.445-0.87,0.944l0.827,19.85c0.021,0.5,0.445,0.891,0.944,0.87
		l4.671-0.195l-2.943-10.273C28.249,51.587,28.365,50.564,28.857,49.679z"/>
	<path display="inline" fill="#53BCE8" d="M70.148,47.207h-3.994l3.226,11.265l-8.176,2.343c1.141-2.222,1.479-4.858,0.738-7.447
		c-0.461-1.61-1.29-3.013-2.364-4.153c-1.698,0.773-3.503,1.708-5.308,2.828l-0.822,1.434l-0.165-0.095
		c-0.219-0.125-0.425-0.214-0.625-0.286c-0.297,0.204-0.594,0.411-0.889,0.627c-0.272,0.2-0.542,0.375-0.81,0.542
		c0.04,0.031,0.069,0.064,0.118,0.094c0.148,0.09,0.474,0.213,1.194,0.29c1.116,0.128,1.883,0.283,2.345,0.474
		c0.463,0.19,0.863,0.473,1.189,0.836c0.324,0.363,0.564,0.811,0.714,1.333c0.149,0.52,0.179,1.039,0.088,1.546
		c-0.089,0.507-0.271,0.946-0.543,1.307c-0.25,0.331-0.642,0.647-1.166,0.939l0.513,1.788l-1.602,0.459l-0.498-1.736
		c-0.547,0.076-1.049,0.062-1.493-0.041c-0.655-0.151-1.309-0.422-1.942-0.803l-0.156-0.095l1.063-1.974l0.171,0.102
		c0.993,0.594,1.85,0.794,2.541,0.596c0.335-0.096,0.581-0.288,0.754-0.591c0.173-0.299,0.213-0.595,0.124-0.904
		c-0.076-0.265-0.213-0.467-0.419-0.619c-0.219-0.156-0.607-0.279-1.152-0.362c-1.209-0.188-2.021-0.368-2.485-0.553
		c-0.473-0.187-0.865-0.444-1.165-0.764c-0.101-0.106-0.178-0.229-0.259-0.35c-0.553,0.169-1.088,0.252-1.604,0.252
		c-1.351,0-2.556-0.582-3.395-1.641c-0.491-0.621-0.8-1.313-0.917-2.046c-1.032,2.164-1.323,4.688-0.612,7.174
		c0.741,2.588,2.427,4.646,4.57,5.927l-7.286,2.086l-3.855-13.461l7.148-2.047c-0.028-0.343-0.021-0.691,0.032-1.045
		c0.179-1.184,0.812-2.344,1.91-3.505l-12.967,3.714c-0.479,0.137-0.76,0.642-0.622,1.121l5.471,19.101
		c0.069,0.239,0.229,0.43,0.433,0.542c0.203,0.112,0.449,0.148,0.688,0.08l35.37-10.131c0.479-0.138,0.76-0.643,0.623-1.122
		L70.148,47.207z"/>
	<path display="inline" fill="#53BCE8" d="M70.06,29.478c0,0-1.306,0.139-1.384,1.222c-0.08,3.342,0,13.183,0,14.293
		c0,1.348,1.243,1.576,1.243,1.576h6.055V29.478H70.06z"/>
</g>
</svg>
