<?xml version="1.0" encoding="utf-8"?>
<!-- Generator: Adobe Illustrator 16.0.0, SVG Export Plug-In . SVG Version: 6.00 Build 0)  -->
<!DOCTYPE svg PUBLIC "-//W3C//DTD SVG 1.1//EN" "http://www.w3.org/Graphics/SVG/1.1/DTD/svg11.dtd">
<svg version="1.1" id="Layer_1" xmlns="http://www.w3.org/2000/svg" xmlns:xlink="http://www.w3.org/1999/xlink" x="0px" y="0px"
	 width="22px" height="28px" viewBox="0 0 22 28" enable-background="new 0 0 22 28" xml:space="preserve">
<g>
	<g>
		<path fill="#474747" d="M5.094,0.239H3.719v2.749h1.375c0.759,0,1.374-0.615,1.374-1.375C6.468,0.854,5.853,0.239,5.094,0.239z"/>
		<path fill="#474747" d="M14.437,0.239h1.375v2.749h-1.375c-0.758,0-1.374-0.615-1.374-1.375
			C13.063,0.854,13.679,0.239,14.437,0.239z"/>
	</g>
	<path fill="#474747" d="M18.288,22.224c-1.222,0-2.245,0.802-2.603,1.904c-2.844-0.201-5.096-2.572-5.096-5.465v-2.062h1.648
		c3.486,0,6.321-2.835,6.321-6.321V1.063c0-0.456-0.369-0.825-0.825-0.825H16.91v10.042c0,2.577-2.095,4.672-4.672,4.672H7.292
		c-2.576,0-4.671-2.095-4.671-4.672V0.239H1.795c-0.456,0-0.825,0.369-0.825,0.825v9.217c0,3.486,2.836,6.321,6.321,6.321h1.649
		v2.062c0,3.798,2.986,6.902,6.732,7.113c0.346,1.121,1.379,1.943,2.615,1.943c1.517,0,2.748-1.23,2.748-2.747
		C21.036,23.454,19.805,22.224,18.288,22.224z M18.288,26.62c-0.911,0-1.649-0.739-1.649-1.647c0-0.91,0.738-1.648,1.649-1.648
		c0.909,0,1.648,0.738,1.648,1.648C19.937,25.881,19.197,26.62,18.288,26.62z"/>
</g>
</svg>
