<?xml version="1.0" encoding="utf-8"?>
<!-- Generator: Adobe Illustrator 16.0.0, SVG Export Plug-In . SVG Version: 6.00 Build 0)  -->
<!DOCTYPE svg PUBLIC "-//W3C//DTD SVG 1.1//EN" "http://www.w3.org/Graphics/SVG/1.1/DTD/svg11.dtd">
<svg version="1.1" id="Layer_1" xmlns="http://www.w3.org/2000/svg" xmlns:xlink="http://www.w3.org/1999/xlink" x="0px" y="0px"
	 width="155px" height="155px" viewBox="0 0 155 155" enable-background="new 0 0 155 155" xml:space="preserve">
<g>
	<g>
		<g>
			<path fill="#19A9E1" d="M86.676,123.394H68.318c-3.379,0-6.119,2.736-6.119,6.119v18.357c0,3.376,2.74,6.119,6.119,6.119h18.357
				c3.379,0,6.119-2.743,6.119-6.119v-18.357C92.795,126.13,90.055,123.394,86.676,123.394z"/>
			<path fill="#19A9E1" d="M147.87,123.394h-18.36c-3.38,0-6.119,2.736-6.119,6.119v18.357c0,3.376,2.739,6.119,6.119,6.119h18.36
				c3.376,0,6.119-2.743,6.119-6.119v-18.357C153.989,126.13,151.246,123.394,147.87,123.394z"/>
			<path fill="#19A9E1" d="M25.487,123.394H7.13c-3.376,0-6.119,2.736-6.119,6.119v18.357c0,3.376,2.743,6.119,6.119,6.119h18.357
				c3.376,0,6.119-2.743,6.119-6.119v-18.357C31.606,126.13,28.864,123.394,25.487,123.394z"/>
		</g>
		<path fill="#474747" d="M135.629,105.036H80.557v-6.119h-6.119v6.119H19.368c-3.376,0-6.119,2.743-6.119,6.119v6.119h6.119v-6.119
			h55.069v6.119h6.119v-6.119h55.072v6.119h6.122v-6.119C141.751,107.779,139.002,105.036,135.629,105.036z"/>
	</g>
	<g>
		<g>
			<g>
				<path fill="#474747" d="M77.497,1.011c-19.167,0-34.701,15.537-34.701,34.703c0,10.951,5.08,20.695,13.009,27.044
					c4.44,3.559,7.037,8.958,7.037,14.646v5.626c0,2.157,1.748,3.908,3.911,3.908l4.882,0.006c0,3.233,2.621,5.856,5.865,5.854
					c3.232,0,5.859-2.62,5.859-5.859l4.879,0.006c2.157-0.006,3.914-1.751,3.914-3.914v-5.626c0-5.696,2.591-11.083,7.036-14.646
					c7.924-6.351,13.01-16.094,13.01-27.044C112.198,16.548,96.661,1.011,77.497,1.011z M95.361,57.983
					c-5.928,4.75-9.328,11.831-9.328,19.421H68.961c0-7.59-3.4-14.67-9.328-19.421c-6.813-5.455-10.718-13.571-10.718-22.27
					c0-15.761,12.821-28.583,28.582-28.583s28.582,12.823,28.582,28.583C106.079,44.408,102.174,52.524,95.361,57.983z"/>
			</g>
			<g>
				<path fill="#474747" d="M85.923,42.751c-0.72,0-1.44-0.275-1.987-0.819l-6.438-6.439l-6.436,6.436
					c-1.093,1.097-2.871,1.097-3.968-0.003l-8.42-8.418c-1.096-1.094-1.096-2.87,0-3.968c1.094-1.098,2.872-1.098,3.971,0
					l6.436,6.438l6.433-6.44c1.1-1.092,2.874-1.094,3.971,0.001l6.436,6.439l6.438-6.436c1.094-1.098,2.868-1.098,3.965-0.003
					c1.097,1.097,1.097,2.877,0.003,3.968l-8.423,8.426C87.354,42.478,86.64,42.754,85.923,42.751z"/>
			</g>
		</g>
		<g>
			<g>
				<path fill="#19A9E1" d="M127.496,37.243h-6.119c-0.846,0-1.53-0.684-1.53-1.53s0.685-1.53,1.53-1.53h6.119
					c0.846,0,1.529,0.684,1.529,1.53S128.342,37.243,127.496,37.243z"/>
			</g>
			<g>
				<path fill="#19A9E1" d="M33.617,37.243h-6.119c-0.845,0-1.53-0.684-1.53-1.53s0.685-1.53,1.53-1.53h6.119
					c0.846,0,1.53,0.684,1.53,1.53S34.463,37.243,33.617,37.243z"/>
			</g>
			<g>
				<path fill="#19A9E1" d="M115.5,15.303c-0.526,0-1.043-0.273-1.324-0.765c-0.424-0.732-0.173-1.667,0.559-2.09l5.298-3.06
					c0.726-0.421,1.667-0.176,2.089,0.561c0.424,0.732,0.173,1.667-0.56,2.09l-5.297,3.06
					C116.022,15.238,115.76,15.303,115.5,15.303z"/>
			</g>
			<g>
				<path fill="#19A9E1" d="M34.197,62.243c-0.526,0-1.043-0.275-1.324-0.765c-0.424-0.732-0.173-1.667,0.559-2.09l5.3-3.06
					c0.726-0.424,1.667-0.173,2.089,0.56c0.424,0.732,0.173,1.667-0.559,2.09l-5.3,3.06C34.72,62.177,34.457,62.243,34.197,62.243z"
					/>
			</g>
			<g>
				<path fill="#19A9E1" d="M39.495,15.302c-0.26,0-0.523-0.065-0.765-0.205l-5.294-3.057c-0.732-0.423-0.983-1.358-0.559-2.09
					c0.421-0.732,1.359-0.979,2.088-0.561l5.294,3.057c0.732,0.423,0.983,1.358,0.559,2.09
					C40.537,15.027,40.021,15.302,39.495,15.302z"/>
			</g>
			<g>
				<path fill="#19A9E1" d="M120.8,62.241c-0.26,0-0.522-0.066-0.765-0.205l-5.301-3.06c-0.731-0.422-0.982-1.358-0.559-2.09
					c0.422-0.729,1.359-0.979,2.089-0.56l5.3,3.06c0.732,0.423,0.983,1.358,0.56,2.09C121.843,61.966,121.326,62.241,120.8,62.241z"
					/>
			</g>
		</g>
	</g>
</g>
</svg>
