<?xml version="1.0" encoding="utf-8"?>
<!-- Generator: Adobe Illustrator 16.0.0, SVG Export Plug-In . SVG Version: 6.00 Build 0)  -->
<!DOCTYPE svg PUBLIC "-//W3C//DTD SVG 1.1//EN" "http://www.w3.org/Graphics/SVG/1.1/DTD/svg11.dtd">
<svg version="1.1" id="Layer_1" xmlns="http://www.w3.org/2000/svg" xmlns:xlink="http://www.w3.org/1999/xlink" x="0px" y="0px"
	 width="110px" height="110px" viewBox="0 0 110 110" enable-background="new 0 0 110 110" xml:space="preserve">
<circle fill="#F2F2F2" cx="55" cy="55" r="54.5"/>
<g display="none">
	<path display="inline" fill="none" stroke="#21A2DC" stroke-width="2.5" stroke-miterlimit="10" d="M86.034,69.85
		c0,2.211-1.794,4.003-4.005,4.003H27.97c-2.211,0-4.004-1.792-4.004-4.003V32.141c0-2.211,1.793-4.003,4.004-4.003h54.06
		c2.211,0,4.005,1.792,4.005,4.003V69.85z"/>
	<path display="inline" fill="#23A1DB" d="M78.191,43.323c0,0.922-0.748,1.668-1.67,1.668H33.474c-0.921,0-1.668-0.746-1.668-1.668
		l0,0c0-0.922,0.747-1.67,1.668-1.67h43.047C77.443,41.653,78.191,42.401,78.191,43.323L78.191,43.323z"/>
	<path display="inline" fill="#23A1DB" d="M78.191,51.077c0,0.787-0.635,1.423-1.42,1.423H55.584c-0.784,0-1.419-0.637-1.419-1.423
		l0,0c0-0.783,0.636-1.417,1.419-1.417h21.187C77.557,49.659,78.191,50.294,78.191,51.077L78.191,51.077z"/>
	<path display="inline" fill="#23A1DB" d="M78.191,59.34c0,0.735-0.599,1.333-1.332,1.333H64.508c-0.735,0-1.333-0.598-1.333-1.333
		l0,0c0-0.737,0.598-1.335,1.333-1.335h12.352C77.593,58.005,78.191,58.603,78.191,59.34L78.191,59.34z"/>
	<polyline display="inline" fill="#FFFFFF" stroke="#21A3DD" stroke-width="2.5" stroke-miterlimit="10" points="47.06,64.484 
		47.06,67.02 47.06,81.862 41.061,75.93 35.195,81.862 35.195,67.02 35.063,64.484 	"/>
	
		<circle display="inline" fill="none" stroke="#21A3DD" stroke-width="2.5" stroke-miterlimit="10" cx="41.061" cy="58.646" r="8.373"/>
</g>
<g display="none">
	<path display="inline" fill="none" stroke="#21A3DD" stroke-width="2.5" stroke-miterlimit="10" d="M82.426,76.224
		c0,1.798-1.462,3.258-3.26,3.258H30.833c-1.8,0-3.258-1.46-3.258-3.258V37.665c0-1.799,1.458-3.259,3.258-3.259h48.333
		c1.798,0,3.26,1.459,3.26,3.259V76.224z"/>
	<path display="inline" fill="#23A2DC" d="M69.936,47.435c0,0.632-0.366,1.146-0.813,1.146H40.608c-0.451,0-0.814-0.514-0.814-1.146
		l0,0c0-0.632,0.364-1.146,0.814-1.146h28.514C69.569,46.289,69.936,46.803,69.936,47.435L69.936,47.435z"/>
	<path display="inline" fill="#23A2DC" d="M69.936,57.119c0,0.667-0.366,1.208-0.813,1.208H40.608c-0.451,0-0.814-0.541-0.814-1.208
		l0,0c0-0.669,0.364-1.209,0.814-1.209h28.514C69.569,55.91,69.936,56.45,69.936,57.119L69.936,57.119z"/>
	<path display="inline" fill="#23A2DC" d="M69.936,66.802c0,0.702-0.366,1.269-0.813,1.269H40.608c-0.451,0-0.814-0.566-0.814-1.269
		l0,0c0-0.704,0.364-1.271,0.814-1.271h28.514C69.569,65.531,69.936,66.098,69.936,66.802L69.936,66.802z"/>
	<path display="inline" fill="#23A2DC" d="M43.867,37.123c0,0.75-0.608,1.357-1.357,1.357l0,0c-0.75,0-1.357-0.607-1.357-1.357
		v-6.247c0-0.75,0.608-1.357,1.357-1.357l0,0c0.749,0,1.357,0.607,1.357,1.357V37.123z"/>
	<path display="inline" fill="#23A2DC" d="M56.9,37.123c0,0.75-0.608,1.357-1.357,1.357l0,0c-0.749,0-1.357-0.607-1.357-1.357
		v-6.247c0-0.75,0.608-1.357,1.357-1.357l0,0c0.749,0,1.357,0.607,1.357,1.357V37.123z"/>
	<path display="inline" fill="#23A2DC" d="M69.936,37.123c0,0.75-0.607,1.357-1.357,1.357l0,0c-0.752,0-1.359-0.607-1.359-1.357
		v-6.247c0-0.75,0.607-1.357,1.359-1.357l0,0c0.75,0,1.357,0.607,1.357,1.357V37.123z"/>
</g>
<g>
	<path fill="none" stroke="#21A3DD" stroke-width="2.5" stroke-miterlimit="10" d="M35.354,80.289c0,0-9.964-13.614-10.866-19.016
		c-0.775-4.647,1.811-9.508,7.697-17.204c0,0,14.977-17.766,40.559-4.3c0,0,9.536,4.417,12.864,21.052
		c0.888,4.438-14.355,20.977-14.355,20.977s0.887-12.706-1.039-17.809c-2.703-7.161-15.354-7.999-15.354-7.999
		s-13.343-0.936-16.337,8.452C35.619,73.552,35.354,80.289,35.354,80.289z"/>
	<path fill="#F2F2F2" stroke="#23A2DC" stroke-width="2.5" stroke-miterlimit="10" d="M36.977,34.226v17.876
		c0,0,0.755,3.018,2.868,3.622c2.113,0.603,29.88,0,29.88,0s3.02-2.716,3.02-3.622s0-17.624,0-17.624S57.123,20.526,36.977,34.226z"
		/>
	<rect x="52.597" y="34.226" fill="#21A3DD" width="4.526" height="15.393"/>
	<rect x="47.163" y="39.659" fill="#21A3DD" width="15.394" height="4.527"/>
</g>
</svg>
